<svg viewBox="0 0 1075 400" xmlns="http://www.w3.org/2000/svg"><g><g><g><g><g><line x1="34" y1="378" x2="29" y2="378" style="visibility: inherit;" fill="rgb(0, 0, 0)" stroke="rgb(204, 204, 204)" stroke-width="1px"></line><line x1="34" y1="330.75" x2="29" y2="330.75" style="visibility: inherit;" fill="rgb(0, 0, 0)" stroke="rgb(204, 204, 204)" stroke-width="1px"></line><line x1="34" y1="283.5" x2="29" y2="283.5" style="visibility: inherit;" fill="rgb(0, 0, 0)" stroke="rgb(204, 204, 204)" stroke-width="1px"></line><line x1="34" y1="236.25" x2="29" y2="236.25" style="visibility: inherit;" fill="rgb(0, 0, 0)" stroke="rgb(204, 204, 204)" stroke-width="1px"></line><line x1="34" y1="189" x2="29" y2="189" style="visibility: inherit;" fill="rgb(0, 0, 0)" stroke="rgb(204, 204, 204)" stroke-width="1px"></line><line x1="34" y1="141.75" x2="29" y2="141.75" style="visibility: inherit;" fill="rgb(0, 0, 0)" stroke="rgb(204, 204, 204)" stroke-width="1px"></line><line x1="34" y1="94.5" x2="29" y2="94.5" style="visibility: inherit;" fill="rgb(0, 0, 0)" stroke="rgb(204, 204, 204)" stroke-width="1px"></line><line x1="34" y1="47.25" x2="29" y2="47.25" style="visibility: inherit;" fill="rgb(0, 0, 0)" stroke="rgb(204, 204, 204)" stroke-width="1px"></line><line x1="34" y1="0" x2="29" y2="0" style="visibility: inherit;" fill="rgb(0, 0, 0)" stroke="rgb(204, 204, 204)" stroke-width="1px"></line></g><g transform="translate(24, 0)"><text x="0" y="378" dx="0em" dy="0.3em" style="text-anchor: end; visibility: hidden; font-family: &quot;Helvetica Neue&quot;, sans-serif; font-size: 12px; font-weight: 200;" fill="rgb(50, 49, 63)" stroke="none" stroke-width="1px">-1</text><text x="0" y="330.75" dx="0em" dy="0.3em" style="text-anchor: end; visibility: inherit; font-family: &quot;Helvetica Neue&quot;, sans-serif; font-size: 12px; font-weight: 200;" fill="rgb(50, 49, 63)" stroke="none" stroke-width="1px">0</text><text x="0" y="283.5" dx="0em" dy="0.3em" style="text-anchor: end; visibility: inherit; font-family: &quot;Helvetica Neue&quot;, sans-serif; font-size: 12px; font-weight: 200;" fill="rgb(50, 49, 63)" stroke="none" stroke-width="1px">1</text><text x="0" y="236.25" dx="0em" dy="0.3em" style="text-anchor: end; visibility: inherit; font-family: &quot;Helvetica Neue&quot;, sans-serif; font-size: 12px; font-weight: 200;" fill="rgb(50, 49, 63)" stroke="none" stroke-width="1px">2</text><text x="0" y="189" dx="0em" dy="0.3em" style="text-anchor: end; visibility: inherit; font-family: &quot;Helvetica Neue&quot;, sans-serif; font-size: 12px; font-weight: 200;" fill="rgb(50, 49, 63)" stroke="none" stroke-width="1px">3</text><text x="0" y="141.75" dx="0em" dy="0.3em" style="text-anchor: end; visibility: inherit; font-family: &quot;Helvetica Neue&quot;, sans-serif; font-size: 12px; font-weight: 200;" fill="rgb(50, 49, 63)" stroke="none" stroke-width="1px">4</text><text x="0" y="94.5" dx="0em" dy="0.3em" style="text-anchor: end; visibility: inherit; font-family: &quot;Helvetica Neue&quot;, sans-serif; font-size: 12px; font-weight: 200;" fill="rgb(50, 49, 63)" stroke="none" stroke-width="1px">5</text><text x="0" y="47.25" dx="0em" dy="0.3em" style="text-anchor: end; visibility: inherit; font-family: &quot;Helvetica Neue&quot;, sans-serif; font-size: 12px; font-weight: 200;" fill="rgb(50, 49, 63)" stroke="none" stroke-width="1px">6</text><text x="0" y="0" dx="0em" dy="0.3em" style="text-anchor: end; visibility: hidden; font-family: &quot;Helvetica Neue&quot;, sans-serif; font-size: 12px; font-weight: 200;" fill="rgb(50, 49, 63)" stroke="none" stroke-width="1px">7</text></g><line x1="34" y1="0" x2="34" y2="378" fill="rgb(0, 0, 0)" stroke="rgb(204, 204, 204)" stroke-width="1px"></line></g></g><g transform="translate(34, 0)" clip-path="url(#clip_0)"><clipPath id="clip_0"><rect width="1041" height="378"></rect></clipPath><g><g><g><line x1="0" y1="0" x2="0" y2="378" fill="rgb(0, 0, 0)" stroke="rgb(60, 60, 60)" stroke-width="1px" opacity="0.25"></line><line x1="94.63636363636364" y1="0" x2="94.63636363636364" y2="378" fill="rgb(0, 0, 0)" stroke="rgb(60, 60, 60)" stroke-width="1px" opacity="0.25"></line><line x1="189.27272727272728" y1="0" x2="189.27272727272728" y2="378" fill="rgb(0, 0, 0)" stroke="rgb(60, 60, 60)" stroke-width="1px" opacity="0.25"></line><line x1="283.9090909090909" y1="0" x2="283.9090909090909" y2="378" fill="rgb(0, 0, 0)" stroke="rgb(60, 60, 60)" stroke-width="1px" opacity="0.25"></line><line x1="378.54545454545456" y1="0" x2="378.54545454545456" y2="378" fill="rgb(0, 0, 0)" stroke="rgb(60, 60, 60)" stroke-width="1px" opacity="0.25"></line><line x1="473.1818181818182" y1="0" x2="473.1818181818182" y2="378" fill="rgb(0, 0, 0)" stroke="rgb(60, 60, 60)" stroke-width="1px" opacity="0.25"></line><line x1="567.8181818181818" y1="0" x2="567.8181818181818" y2="378" fill="rgb(0, 0, 0)" stroke="rgb(60, 60, 60)" stroke-width="1px" opacity="0.25"></line><line x1="662.4545454545455" y1="0" x2="662.4545454545455" y2="378" fill="rgb(0, 0, 0)" stroke="rgb(60, 60, 60)" stroke-width="1px" opacity="0.25"></line><line x1="757.0909090909091" y1="0" x2="757.0909090909091" y2="378" fill="rgb(0, 0, 0)" stroke="rgb(60, 60, 60)" stroke-width="1px" opacity="0.25"></line><line x1="851.7272727272727" y1="0" x2="851.7272727272727" y2="378" fill="rgb(0, 0, 0)" stroke="rgb(60, 60, 60)" stroke-width="1px" opacity="0.25"></line><line x1="946.3636363636364" y1="0" x2="946.3636363636364" y2="378" fill="rgb(0, 0, 0)" stroke="rgb(60, 60, 60)" stroke-width="1px" opacity="0.25"></line><line x1="1041" y1="0" x2="1041" y2="378" fill="rgb(0, 0, 0)" stroke="rgb(60, 60, 60)" stroke-width="1px" opacity="0.25"></line></g><g><line x1="0" y1="378" x2="1041" y2="378" fill="rgb(0, 0, 0)" stroke="rgb(60, 60, 60)" stroke-width="1px" opacity="0.25"></line><line x1="0" y1="330.75" x2="1041" y2="330.75" fill="rgb(0, 0, 0)" stroke="rgb(60, 60, 60)" stroke-width="1px" opacity="0.25"></line><line x1="0" y1="283.5" x2="1041" y2="283.5" fill="rgb(0, 0, 0)" stroke="rgb(60, 60, 60)" stroke-width="1px" opacity="0.25"></line><line x1="0" y1="236.25" x2="1041" y2="236.25" fill="rgb(0, 0, 0)" stroke="rgb(60, 60, 60)" stroke-width="1px" opacity="0.25"></line><line x1="0" y1="189" x2="1041" y2="189" fill="rgb(0, 0, 0)" stroke="rgb(60, 60, 60)" stroke-width="1px" opacity="0.25"></line><line x1="0" y1="141.75" x2="1041" y2="141.75" fill="rgb(0, 0, 0)" stroke="rgb(60, 60, 60)" stroke-width="1px" opacity="0.25"></line><line x1="0" y1="94.5" x2="1041" y2="94.5" fill="rgb(0, 0, 0)" stroke="rgb(60, 60, 60)" stroke-width="1px" opacity="0.25"></line><line x1="0" y1="47.25" x2="1041" y2="47.25" fill="rgb(0, 0, 0)" stroke="rgb(60, 60, 60)" stroke-width="1px" opacity="0.25"></line><line x1="0" y1="0" x2="1041" y2="0" fill="rgb(0, 0, 0)" stroke="rgb(60, 60, 60)" stroke-width="1px" opacity="0.25"></line></g></g></g><g><g><line x1="0" y1="330.75" x2="1041" y2="330.75" fill="rgb(0, 0, 0)" stroke="rgb(153, 153, 153)" stroke-width="1.5px"></line></g></g><g><g><line x1="94.63636363636364" y1="0" x2="94.63636363636364" y2="378" fill="rgb(0, 0, 0)" stroke="rgb(153, 153, 153)" stroke-width="1.5px"></line></g></g><g><g><g><g><g><path stroke="rgb(0, 119, 187)" stroke-width="2px" d="M96.52909090909091,150.8601851463318L97.47545454545455,188.35614853352308L97.94863636363635,212.066653745515L99.84136363636362,241.53108361210016L100.31454545454545,251.22943188644052L101.2609090909091,264.7334210077735L101.73409090909091,267.2256922015175L102.20727272727272,271.1930402166489L102.68045454545454,270.47293159906854L103.15363636363637,277.67572353076065L103.62681818181818,282.12496091151615L104.10000000000001,281.1689584123503L104.57318181818181,284.2058866006706L106.4659090909091,288.3471021168935L106.93909090909091,291.86693625185853L110.72454545454546,300.47981656401333L111.19772727272726,307.37236553994467L112.1440909090909,310.6779744363854L113.56363636363636,315.79434759703224L114.03681818181818,315.1580914824114L114.98318181818182,314.00676413376834L115.45636363636365,316.64377837881574L115.92954545454545,309.94810332112024L116.40272727272728,313.2713075822301L117.34909090909092,315.7921042372548L118.29545454545455,312.9183317116294L118.76863636363636,313.0640491034718L120.18818181818182,310.2676684901479L120.66136363636363,309.46978197473817L121.13454545454546,295.7747928859634L121.60772727272727,304.1626581059827L122.0809090909091,312.2144484211815L123.50045454545455,305.52429977238376L123.97363636363637,302.2322238704897L124.92,304.3341112034051L125.86636363636364,312.74225586363883L126.33954545454546,314.19486063848393L126.81272727272727,316.43598163441783L127.28590909090909,318.8960916309685L128.70545454545456,319.7366168351758L129.17863636363637,320.6986452662786L129.6518181818182,323.04818371193466L130.125,324.9296328259885L131.07136363636363,324.93953027030284L132.01772727272729,323.94655514468633L132.49090909090907,323.7332693425277L134.85681818181817,323.9954228825941L135.33,316.80938589721126L135.80318181818183,292.8250557666719L136.27636363636364,299.5895770601402L136.74954545454545,299.7589087195387L137.22272727272727,309.18149634496274L139.58863636363637,307.04276074943107L143.3740909090909,314.2711124523189L144.32045454545454,310.0059958817757L144.79363636363638,314.05288938416373L145.2668181818182,316.8004687740412L148.57909090909092,321.77681617112563L149.99863636363636,320.52532545430415L150.945,320.8776008200822L151.4181818181818,316.33767062796204L151.89136363636362,313.73482776804593L153.7840909090909,314.40177759601966L154.25727272727275,319.4713584159273L154.73045454545456,315.6504381969248L156.15,320.4005294188663L156.62318181818182,320.3004917648318L158.0427272727273,321.3823861731221L159.93545454545455,315.15447200853407L160.88181818181818,315.7109107644485L161.82818181818183,319.0309814778642L162.30136363636365,323.0573345373676L162.77454545454546,322.4491841793421L163.24772727272727,319.0804228306033L163.72090909090912,317.2202285152804L164.1940909090909,321.29532080350106L165.14045454545453,317.03224299822915L166.0868181818182,317.0465656666438L167.50636363636366,317.5957371442604L167.97954545454547,320.38883069152166L168.45272727272726,320.59444188770374L169.39909090909092,324.01864196887146L169.87227272727273,324.76804148647506L170.34545454545454,315.42059277590107L171.2918181818182,312.10700090286724L171.76500000000001,319.05326643415594L172.71136363636364,321.16925137089675L173.18454545454543,321.9520263051807L174.13090909090909,322.90547411744706L174.6040909090909,305.3707155293519L176.02363636363637,295.22154019512504L177.91636363636363,306.91653197251424L178.38954545454544,315.91249354291057L178.86272727272726,321.4460700592881L179.3359090909091,323.98747307979977L180.28227272727273,323.7480674709315L180.75545454545454,325.312630149003L181.7018181818182,326.24028976322774L182.6481818181818,325.30149213410357L183.12136363636364,325.02855835072364L183.59454545454545,316.112632195426L184.06772727272727,313.7685168893772L185.01409090909092,320.2298013392322L185.48727272727274,308.8396751656075L188.79954545454547,316.1786119847858L190.69227272727275,318.9157930111506L192.585,320.93537521932234L193.05818181818182,322.62681852250523L193.53136363636364,317.6417216150118L195.4240909090909,173.38356650401076L195.8972727272727,201.91293837147307L196.37045454545455,156.20089174221368L196.84363636363636,183.69124897068986L198.26318181818183,212.1283949479237L198.73636363636365,245.09313629059642L200.1559090909091,268.47033277147204L200.6290909090909,286.1518412947249L201.57545454545453,289.13445633170556L202.04863636363638,298.416378036246L202.5218181818182,306.0905068070324L194.9509090909091,307.1666286349673L195.4240909090909,313.49307719530935L195.8972727272727,317.02536473967L196.37045454545455,318.92565549342254L202.995,295.18376434402717L203.46818181818182,71.20779669616849L204.88772727272726,55.43046047886742L205.36090909090908,92.71107761025752L206.30727272727273,140.90226304507448L208.20000000000002,182.51042354092712L208.6731818181818,196.77112040511201L209.61954545454546,219.4323918914284L210.5659090909091,236.80038679215227L211.0390909090909,245.00421985729287L213.405,256.18686666931956L214.82454545454544,270.75043299702554L215.2977272727273,278.1160271102652L215.7709090909091,282.260989572672L216.24409090909091,286.005864874165L217.19045454545457,290.82401875593706L219.0831818181818,296.68393364511996L220.02954545454546,299.248199790496L220.97590909090908,300.7312148986926L221.44909090909093,305.06680491141503L221.92227272727274,308.2320052270414L223.815,311.66549850608834L224.2881818181818,313.780530727541L225.23454545454547,317.2514240960095L226.1809090909091,316.7203750979789L227.12727272727273,318.7953474415474L229.49318181818182,321.04402401555376L230.43954545454545,320.1278104633617L230.9127272727273,320.5588137656765L232.3322727272727,313.46412278117634L233.27863636363637,313.7589034581298L233.75181818181818,318.09752796704254L234.225,299.9488225139063L235.17136363636365,306.4381367240477L235.64454545454544,297.84834190452864L236.11772727272725,302.1706573471115L238.01045454545454,294.30304256109514L238.48363636363638,302.0608642639406L239.43,309.6615814993791L240.84954545454545,315.0323055344827L242.74227272727273,319.5471575481002L243.21545454545455,316.1638485921803L243.68863636363636,312.2060080548157L244.1618181818182,316.1100291612762L245.1081818181818,317.2380203695904L246.52772727272728,319.81089795033995L247.0009090909091,320.92848072290934L247.4740909090909,321.11509545350384L248.89363636363638,318.3464995098371L249.36681818181816,318.8827188803112L250.31318181818182,320.0064766090128L253.15227272727273,321.88056754654724L254.09863636363636,320.61770920804787L254.57181818181817,318.3379960230091L255.045,319.4101337952077L255.51818181818183,317.812467116872L255.99136363636364,316.74144864902473L256.9377272727273,321.3270598538999L257.4109090909091,323.7307284929326L259.77681818181816,326.3649450399076L260.25,324.42361989811627L261.1963636363636,325.50509375971893L262.14272727272726,327.36865954893733L262.6159090909091,323.7351415026063L263.08909090909094,313.21041297125066L264.03545454545457,310.7690098417237L264.50863636363636,311.2133740235826L264.98181818181814,302.51104975041517L265.455,312.5451633269892L266.40136363636367,312.95098304958975L266.87454545454545,316.83100402183436L267.8209090909091,302.54852943317354L268.2940909090909,311.86398836714784L269.2404545454545,312.542852039592L270.1868181818182,319.564657313835L271.1331818181818,321.93096444127644L271.60636363636365,324.8037865012448L272.07954545454544,318.73801168796786L273.02590909090907,322.82015309704764L273.4990909090909,321.0963676987494L274.9186363636364,322.95126932224065L275.39181818181817,321.25086458242197L275.865,312.86437989900264L276.3381818181818,317.68357916849703L277.2845454545454,317.3232146184316L277.7577272727273,320.0821867514057L278.2309090909091,323.7554146988483L278.7040909090909,322.14162829031295L281.07,325.35060508610906L282.96272727272725,325.3911103945202L283.4359090909091,319.1710665399567L284.3822727272727,323.32082166632927L285.8018181818182,324.3743701911623L289.1140909090909,323.829150190154L289.58727272727276,326.2438956429507L291.48,325.0246654230324L291.9531818181818,316.37017963993355L292.4263636363636,313.23345601658707L293.3727272727273,319.8638923975121L294.3190909090909,317.72180740906543L295.26545454545453,322.09825582131L296.21181818181816,321.29956038191466L300.4704545454546,324.7023056269857L300.94363636363636,325.785875391732L301.4168181818182,327.19227524374895L301.89,327.90804665327056L302.8363636363636,328.4462946964948L303.30954545454546,328.7990272977143L304.7290909090909,329.0279874343836L306.14863636363634,328.27754140580674L308.9877272727273,328.5637783635258L309.4609090909091,324.20436822942486L309.9340909090909,324.9021994490719L310.4072727272727,312.58047414537043L310.88045454545454,319.10840821469293L311.82681818181817,321.7597846326498L312.3,325.25519992651897L312.77318181818185,326.7115919824234L313.7195454545455,323.2173850766296L314.19272727272727,325.4619257595524L314.66590909090905,327.50834043658676L315.6122727272727,328.39793231986107L316.55863636363637,328.92311503102417L317.0318181818182,329.5676926177034L318.9245454545454,326.876131145733L320.8172727272727,322.03855509375177L322.2368181818182,324.9921020098158L322.71,324.68994039461785L323.65636363636366,326.9593911061631L324.12954545454545,327.55285421326437L325.0759090909091,327.84761418440746L326.0222727272727,328.07659080573205L327.44181818181823,328.2530947518246L330.7540909090909,327.45494632002095L332.1736363636364,328.1616764989578L332.64681818181816,326.97627773148315L334.06636363636363,328.2105449698679L334.5395454545454,328.5392539534606L335.0127272727273,329.2872064434483L335.95909090909095,326.640947066128L336.43227272727273,328.1742912289435L336.9054545454545,328.82071581561473L337.37863636363636,328.94356666403473L338.325,328.55131028792243L340.6909090909091,249.33392156780346L341.1640909090909,281.7149178244842L344.0031818181818,287.5000470672949L344.94954545454544,304.76908255509227L345.4227272727273,315.00765629411376L345.8959090909091,307.61013335466765L346.36909090909086,309.8360334931635L346.84227272727276,314.8050532042279L347.31545454545454,321.11612689604965L347.7886363636364,324.8795908349174L348.26181818181817,322.7573635806094L348.735,318.6483227538735L349.2081818181818,322.80695965305983L350.1545454545454,325.86628779215977L351.5740909090909,325.4400038492284L352.04727272727274,327.368248445245L352.5204545454545,326.31569001522803L353.46681818181816,327.6835793465951L353.94,327.8566671925383L355.35954545454547,316.2901629935263L356.3059090909091,312.86364491764056L357.2522727272727,312.78677527894587L357.7254545454545,316.97296093577154L359.145,321.1370368133426L359.6181818181818,321.54672239604236L360.0913636363636,320.53507836540126L361.03772727272724,323.6641393952345L361.5109090909091,325.3337797956333L361.9840909090909,324.50572580168637L362.93045454545455,326.5096916594058L363.8768181818182,327.9694107282243L364.34999999999997,327.74741959620013L365.7695454545455,327.5580201926738L366.2427272727273,320.46406516330893L366.7159090909091,323.51941567300236L367.1890909090909,317.3977525302081L367.66227272727275,321.49822149311353L368.13545454545454,324.0175001167348L368.6086363636363,325.621381948104L369.08181818181816,327.3652797255802L370.02818181818185,324.3851566218667L370.50136363636364,324.9345739835997L372.3940909090909,325.3048006641567L372.8672727272727,326.8392777538419L373.3404545454546,326.91248644790767L374.2868181818182,327.72546219022104L374.76,327.3182422910096L375.23318181818183,327.82614815422664L375.7063636363636,327.25842674040064L376.65272727272725,328.40361625688604L377.59909090909093,329.3273634671992L378.54545454545456,329.7751078564477L379.4918181818182,329.38492450765085L380.4381818181818,328.45483718306605L381.3845454545455,327.07390946889393L381.8577272727273,327.65499290112837L382.3309090909091,327.4960305961024L383.75045454545455,326.05411821139165L385.64318181818186,327.5543182555649L386.11636363636364,327.79988525927445L387.0627272727273,323.03512405228844L387.53590909090906,323.9458027861847L388.48227272727274,316.6728899766406L390.375,311.52592159446476L390.8481818181818,317.8561103404248L391.7945454545454,322.3502412470838L392.7409090909091,323.9325676870442L394.63363636363636,319.3699680007754L396.05318181818177,321.6554343536352L396.52636363636367,305.3750664970192L397.4727272727273,266.1834473002501L397.9459090909091,289.8887813546388L398.4190909090909,305.17582062568533L398.8922727272727,295.60236631444855L399.3654545454545,306.5718393228159L399.83863636363634,316.1761482474945L400.3118181818182,318.12972956554546L400.785,323.1542583884334L401.2581818181818,325.65798165520494L403.15090909090907,327.5564258932797L403.6240909090909,326.95297756655384L404.57045454545454,327.7091720081172L405.51681818181817,322.1908474789144L406.93636363636364,322.5507173404742L407.8827272727273,321.55205670837455L408.3559090909091,323.76732933204704L408.8290909090909,323.4205517451843L410.24863636363636,322.0473805892992L410.72181818181815,318.87398140600493L411.195,322.48430625257595L411.66818181818184,315.9670598069292L412.1413636363637,320.287948141811L413.08772727272725,323.5514674248205L413.5609090909091,322.85805758904854L414.0340909090909,316.35514154476783L414.9804545454545,320.83188093270576L415.4536363636364,322.4109775219304L415.9268181818182,325.5199473230283L416.40000000000003,327.18908338119036L416.8731818181818,327.98284659941163L417.3463636363636,328.89336045041557L418.29272727272723,327.4996710886352L418.7659090909091,328.50440027738614L420.18545454545455,328.33745202936234L422.0781818181818,326.49128702889385L423.4977272727273,325.92125298595727L423.9709090909091,327.56550635705173L424.4440909090909,328.47460607400404L424.91727272727275,329.31506706885955L425.39045454545453,329.6896658399326L425.8636363636364,330.06300891619344L426.33681818181816,330.02227406982433L426.81,330.02490656424004L427.75636363636363,329.5436516223755L428.2295454545455,328.7735503729228L428.70272727272726,328.6467385189857L430.5954545454546,312.37166216356314L432.48818181818183,317.5589129187629L432.9613636363636,322.07697283635827L433.90772727272724,324.58796775660096L434.38090909090914,327.0397940768446L434.8540909090909,328.47001173123095L435.3272727272727,326.22723919763786L435.80045454545456,309.33251368769777L436.27363636363634,317.8106488097647L437.6931818181818,322.98191223561025L438.1663636363636,325.9206485143148L438.6395454545455,313.595617836168L441.00545454545454,316.0512862118784L441.95181818181817,319.0832784213247L442.425,322.1200010396613L442.89818181818185,324.85864527963537L443.37136363636364,327.20271384068513L444.31772727272727,328.17761614325303L445.7372727272727,327.19099109934365L446.2104545454546,326.7151386980212L447.63,321.4735499348638L448.10318181818184,322.50775791563973L448.5763636363636,314.0157543799781L449.0495454545454,320.60032316182384L449.52272727272725,324.56990874131185L450.46909090909094,326.91979706906324L451.88863636363635,327.5516033518943L452.3618181818182,328.6232132486184L453.30818181818177,326.7839558971929L454.7277272727273,327.8301838209783L455.2009090909091,328.6597243690076L455.6740909090909,326.9991234805335L456.62045454545455,327.9053568521827L457.09363636363634,322.8391985970551L457.56681818181823,324.6285484829732L458.04,323.57314495737484L458.5131818181818,325.94154056419507L458.98636363636365,327.669223104195L459.45954545454543,328.82133775757325L459.9327272727273,329.3573412028719L461.35227272727275,329.74627977868283L461.8254545454546,329.7278269645445L463.7181818181818,330.00713858332466L464.19136363636363,330.1942772012091L465.1377272727273,330.0848931650005L466.08409090909095,327.23959598569166L467.0304545454545,324.6855754800325L467.50363636363636,324.5330217151454L467.97681818181815,326.80992002653994L468.45,328.1385226146827L468.92318181818183,329.11458419046625L469.3963636363637,329.68817204116255L470.3427272727273,329.9798826740796L471.2890909090909,329.94150889745293L472.2354545454545,329.7525169187393L473.65500000000003,327.0243461837534L474.1281818181818,328.14204560914123L474.60136363636366,328.8494249573632L475.07454545454544,329.34702844931013L475.5477272727273,321.9421228409608L476.49409090909086,324.88640863374917L477.44045454545454,322.6539947743776L478.38681818181817,325.4098254527487L478.86,325.6335577464603L479.80636363636364,327.6556995407107L481.2259090909091,328.87803283123367L482.17227272727274,329.41530182067714L482.6454545454545,327.3487496933589L483.11863636363637,328.46112781140954L484.53818181818184,325.2483308635577L485.95772727272725,322.3264885438934L486.4309090909091,322.08090686014026L487.3772727272727,323.38654493964157L488.3236363636364,322.9231456945922L489.27,325.57723988644545L489.7431818181818,325.8149389791624L491.6359090909091,327.7856090943574L492.58227272727277,326.64391694623583L493.05545454545455,327.89607559983943L493.5286363636364,328.7339743053616L494.0018181818182,329.43237749957L494.9481818181818,329.5285575030622L495.4213636363636,329.91184301903115L495.8945454545455,330.2041121996927L496.3677272727273,328.6554415994875L498.26045454545454,321.8800183846946L499.20681818181816,324.670428276175L499.68,315.29581430561166L500.15318181818185,321.4655019294761L500.62636363636364,325.1725448072876L501.0995454545455,326.15481871073996L502.9922727272727,327.7724159211065L503.4654545454546,328.95045420315284L503.93863636363636,329.6131004138459L504.4118181818182,326.7923655223053L505.8313636363636,327.49384654529103L506.30454545454546,328.76423219370434L506.77772727272725,327.87943359778876L507.2509090909091,322.3642736498508L507.72409090909093,325.4078946519043L508.67045454545456,321.16009719122326L509.14363636363635,324.8033945865676L509.6168181818182,326.3518800497648L510.09,321.3000745690225L511.03636363636366,318.3933284054016L512.455909090909,319.92361229329197L513.4022727272727,324.19455232201693L513.8754545454545,325.6069139158945L514.8218181818182,315.9966324756277L515.295,321.5376975580518L515.7681818181818,320.8594958719292L516.7145454545455,324.79873014448435L517.1877272727273,323.7467048240206L518.1340909090909,312.66690245106827L518.6072727272727,318.70592189705377L520.9731818181818,322.630849712348L521.9195454545454,322.0527893592453L522.3927272727273,319.0598018997631L522.8659090909091,323.7333535250411L523.3390909090908,326.53742487481935L523.8122727272727,328.2156101525135L524.2854545454545,328.95123079918295L524.7586363636365,320.35578156115093L525.705,323.3905538546382L526.1781818181819,307.88438917561405L526.6513636363636,316.4130715362074L528.0709090909091,301.76264220665945L528.5440909090909,312.4123527523342L529.0172727272727,225.76317212083714L529.4904545454546,264.8862521415876L530.4368181818181,287.1611633861617L533.2759090909092,297.5627678075168L533.7490909090909,302.5790071897944L534.2222727272728,306.9780564196849L535.1686363636363,316.24108971853593L537.0613636363636,321.4243283484849L538.480909090909,323.91444861602616L539.9004545454546,320.9193347258081L541.32,316.7227577008432L541.7931818181819,322.0721194719971L542.7395454545455,324.7146209374488L543.2127272727273,321.78792404207115L543.685909090909,324.3591314782054L544.1590909090909,322.74146362718056L545.1054545454546,324.9081826728648L545.5786363636363,326.04099808913867L546.0518181818181,327.3527076585287L546.525,326.2614342640754L546.9981818181818,327.5369221846933L547.4713636363637,328.2172412629828L547.9445454545455,328.46589328160314L548.4177272727273,328.3990405429031L548.8909090909091,328.84585071544353L549.8372727272728,327.03094142341916L550.3104545454546,327.24603653201046L551.2568181818182,324.82717416434633L552.2031818181817,324.4291069954583L552.6763636363636,279.229072907564L553.6227272727273,282.4149063402396L554.5690909090908,301.33099048373737L555.0422727272728,296.81548904799007L555.5154545454546,304.9183247531806L555.9886363636364,315.1567366262458L557.4081818181818,321.3879413987362L557.8813636363636,324.93057871251415L558.3545454545455,322.7364903219885L558.8277272727273,317.58935643603485L559.7740909090909,322.84101778150045L560.2472727272727,325.97238853302304L564.0327272727274,327.48605505493555L565.4522727272728,328.7381302503408L565.9254545454545,328.62577216104637L566.8718181818182,329.2323026612086L567.345,329.69801786690925L567.8181818181818,329.27406421579406L568.2913636363636,326.22860896454745L569.710909090909,328.02179356824655L570.1840909090909,329.05119644490287L571.1304545454545,329.4813367739128L571.6036363636364,329.2524649196748L572.0768181818182,326.8478894498279L572.5500000000001,328.0886398468587L573.9695454545455,328.88094737930885L577.755,329.561361856893L578.2281818181818,328.49345038988304L578.7013636363637,329.3171381987743L579.6477272727273,329.5738586548782L580.5940909090909,329.9434416000585L581.0672727272728,329.8086475054646L581.5404545454545,328.3412379738822L582.4868181818182,329.2586084439388L582.96,329.65202498182464L583.4331818181818,329.6089948778663L583.9063636363636,325.1965680548736L584.3795454545455,327.3875904295645L585.799090909091,328.5516259215617L586.2722727272728,329.3148560522683L586.7454545454545,329.8643845163318L589.1113636363636,328.9469002510627L590.0577272727272,329.54154061477936L590.5309090909091,328.82348811746573L591.4772727272727,329.23886803199906L591.9504545454545,328.2202407071594L592.8968181818182,328.8272416114571L595.7359090909091,327.9922274154283L596.209090909091,328.29730402465805L597.1554545454545,328.38943011521485L597.6286363636364,329.00736901214236L598.1018181818182,329.41758826433056L599.9945454545455,329.36642996014467L600.4677272727272,329.44588876558873L600.9409090909091,329.58378047764177L601.414090909091,329.0589769223027L601.8872727272727,328.6437777009572L602.8336363636364,291.51380873483214L603.78,294.2414547488796L604.2531818181818,265.6119627884452L604.7263636363637,291.33620268293765L605.1995454545455,248.95558437221376L605.6727272727272,271.96495105930046L606.1459090909091,295.4475046440753L606.6190909090909,309.5675594292992L608.5118181818183,316.8624374711015L609.4581818181819,318.9941014092266L609.9313636363637,323.6574290560142L612.7704545454545,325.4567962846283L613.7168181818182,326.5988998375013L614.6631818181818,326.8127291008338L615.1363636363636,327.3840109689983L615.6095454545454,327.6154870303096L616.5559090909092,326.4695523075236L618.4486363636364,327.0593375327869L619.8681818181818,327.33163284809496L620.8145454545454,326.7468288610941L622.2340909090909,327.7874886143172L623.6536363636363,328.21232397655933L624.1268181818182,327.12132027328187L625.0731818181819,326.221481823654L625.5463636363637,327.12341441548233L626.0195454545454,328.18031687322326L626.4927272727273,326.547947703499L626.9659090909091,324.6383744574776L627.439090909091,324.93521228490414L627.9122727272727,325.3163492250928L628.8586363636364,326.5828172307306L629.3318181818181,320.522146254247L629.805,324.4724431848228L631.2245454545454,325.2558992201507L631.6977272727273,326.7031813409579L632.644090909091,325.9988769871981L636.4295454545454,150.37804952758495L636.9027272727272,140.75263733564583L637.3759090909091,148.683993285291L637.8490909090908,201.66429963433302L638.3222727272727,205.81623117162914L639.2686363636365,246.36381372829754L639.7418181818182,279.1780132324724L640.215,296.52320418484385L640.6881818181819,299.17604554729087L641.6345454545454,305.1292440684821L642.1077272727273,314.29958615442723L642.5809090909091,320.63435546284535L643.5272727272727,324.58132338928425L644.0004545454545,326.7196257827863L644.9468181818181,324.4999506290665L649.6786363636364,324.44061274474325L651.0981818181818,326.3137850360302L651.5713636363636,327.84462008258197L652.0445454545454,327.7887527458697L652.5177272727273,326.7439138502079L653.4640909090908,328.27214342318723L653.9372727272727,327.44630769767014L654.4104545454545,328.23022470997364L655.3568181818182,328.8125183003118L656.7763636363636,329.39426508358315L657.2495454545455,329.78582713286545L657.7227272727273,329.9568147947965L658.1959090909091,329.97135924752524L658.6690909090909,330.16807194311934L659.1422727272727,330.17764053676365L659.6154545454546,329.1300100754728L660.0886363636363,329.50558353378057L661.035,329.8273956682976L661.9813636363635,330.00068276219866L662.4545454545455,329.88948122337194L663.4009090909092,329.74285346634525L664.3472727272728,329.001856465592L665.2936363636363,329.24016757649423L665.7668181818182,329.80182386789505L666.24,330.1189297055725L666.7131818181819,330.27922274171704L667.1863636363636,330.31201921244724L667.6595454545454,330.40168659405566L669.5522727272727,329.8048594215015L671.9181818181819,328.11297055369613L672.3913636363636,328.31257482043503L673.3377272727273,328.3942510250008L673.810909090909,328.7834373708991L674.2840909090909,329.2173789955409L675.7036363636363,329.10871194964534L676.1768181818181,329.28701218167475L676.65,329.1661713679107L677.5963636363637,329.26804151721876L678.5427272727273,329.59881533520644L679.0159090909091,329.3102758025361L680.4354545454546,329.6538475000252L681.3818181818182,329.7375163186127L682.3281818181817,322.997175544413L682.8013636363636,324.35837654242636L683.7477272727273,326.3462159952207L684.220909090909,324.9240004164388L685.6404545454546,327.0118328369355L686.1136363636364,326.7449567757068L686.5868181818182,327.9373579307358L687.5331818181818,328.68908000008526L688.0063636363636,329.327371167861L688.4795454545455,329.4706502565578L689.425909090909,329.131299115499L689.8990909090909,329.52059155167944L690.3722727272727,329.2755468977201L690.8454545454546,329.58827785098305L691.3186363636363,329.95581573759205L691.7918181818181,329.96044180439225L692.7381818181817,329.75907934432513L694.1577272727274,327.56035538599065L694.6309090909091,328.5136308382685L695.5772727272728,327.4665906838021L697.47,324.969084676292L697.9431818181818,307.34401559602406L698.8895454545454,311.5271753297519L699.3627272727273,288.7585266486568L700.7822727272728,242.43178973530308L701.7286363636364,232.63506609162434L702.6750000000001,271.7838172530744L703.6213636363636,295.3693003672157L704.0945454545455,309.4204037323025L704.5677272727272,317.0635945247517L705.040909090909,321.37513449769654L705.9872727272727,288.62872794259454L707.4068181818182,305.4432258575724L707.88,315.22710299310484L708.8263636363637,303.75958873520733L709.2995454545455,310.70374947154784L709.7727272727273,318.4498646812805L710.7190909090909,323.2614111419383L712.6118181818182,324.25338953753493L713.5581818181818,325.777962773041L714.0313636363636,326.76489686794343L714.9777272727272,319.92327162520445L715.450909090909,324.071203890477L715.924090909091,326.10768637018464L716.3972727272728,323.23303458963073L716.8704545454545,323.9057116478636L717.3436363636364,324.9728900630745L719.2363636363636,327.0353441836557L719.7095454545455,328.37329295420625L720.1827272727272,328.42456190224874L720.6559090909091,328.49335006139506L721.1290909090909,327.21611498079795L722.0754545454545,328.5576064977613L723.0218181818182,329.2682365947294L723.495,329.6252239032583L723.9681818181818,329.1870264453588L724.4413636363637,325.61274558561433L724.9145454545455,323.5591196865284L725.3877272727273,322.31313432457705L726.8072727272728,324.1402637627879L728.2268181818182,322.87884465856314L729.1731818181818,307.42609238030286L730.1195454545455,315.4764919982956L730.5927272727272,318.65638193974536L731.0659090909091,316.0497205972054L731.539090909091,303.4425673555957L732.0122727272727,303.66865552494687L733.905,313.5400478342459L735.7977272727272,311.2565173714927L736.7440909090909,318.53824546189287L737.2172727272726,323.25699971868426L737.6904545454545,326.22853129713286L738.6368181818183,326.9255417055401L739.11,328.141961710953L739.5831818181819,328.483708733203L741.0027272727273,326.10329963647246L742.4222727272727,319.7105028324301L742.8954545454545,309.24303678232286L743.3686363636364,317.46409971320094L744.3149999999999,322.091067569649L744.7881818181818,305.5055101020311L745.2613636363636,313.8222145149514L746.2077272727272,298.42565462049276L746.6809090909092,297.3737657729174L747.6272727272727,309.57654682961913L748.1004545454546,314.12985897462255L748.5736363636364,298.7932840371173L749.0468181818183,305.8444719185854L749.52,296.29079463901667L749.9931818181818,291.3462317158136L750.9395454545454,306.0075102456274L751.4127272727272,315.84048233011566L752.8322727272727,320.07374473112344L755.1981818181819,320.50804881720256L757.0909090909091,323.7348309615613L760.8763636363636,316.3964381312943L761.3495454545454,321.92188799913924L761.8227272727273,301.72699088177797L762.2959090909092,297.20530234170985L762.769090909091,310.55250169196205L764.1886363636364,309.04930410598797L764.6618181818181,316.4488441478615L765.6081818181818,321.60634732135566L766.0813636363637,317.7709335648324L767.0277272727272,319.4159760766212L767.5009090909091,320.61341866809033L767.9740909090908,321.24980540846525L768.4472727272727,316.9210170166179L769.3936363636365,310.96858994105366L770.34,317.71191225797776L770.8131818181819,316.776938187187L771.2863636363637,320.69320071316065L772.2327272727273,315.84566316948116L772.7059090909091,320.3687222209321L773.1790909090909,315.5071015779225L774.1254545454545,318.34983595156956L775.0718181818181,309.46433997717077L777.9109090909092,316.1491131451224L778.8572727272727,321.29641686850755L780.75,324.13913535758235L781.2231818181818,314.83504873922095L781.6963636363636,319.60107632449643L783.5890909090908,309.2411130605422L785.955,308.99406961430805L786.4281818181819,317.56346579502343L788.3209090909091,310.9124580628295L789.7404545454546,316.1333187688362L790.2136363636363,314.32654848509856L791.6331818181818,320.10537519157725L792.1063636363635,316.1368105924177L793.0527272727273,269.1964865276842L793.5259090909092,290.0665867760556L793.9990909090909,305.6339247143136L794.4722727272728,314.7747367473463L795.4186363636363,317.66839157056927L795.8918181818182,322.40539401273946L797.3113636363636,324.9892748061628L797.7845454545454,327.03512928838273L798.2577272727273,328.1069839128389L798.730909090909,328.5904830491414L799.2040909090908,328.96506933377657L801.0968181818182,329.3115981245799L802.5163636363636,328.9547718468913L802.9895454545455,328.5289146257852L803.4627272727273,328.7887501431802L803.935909090909,329.059384154576L804.8822727272727,328.3695616400528L805.3554545454546,322.1033688143663L805.8286363636363,321.36027570252253L806.3018181818181,321.2236787494101L806.775,321.4050267333435L807.2481818181818,321.36579231140894L807.7213636363637,290.41325188707043L808.1945454545455,305.08953671324684L808.6677272727273,309.40260862212443L810.0872727272728,316.5257360392872L811.0336363636363,312.5350723239221L813.3995454545454,319.6013641217128L813.8727272727273,320.1173707818255L814.345909090909,303.1130053624669L815.2922727272728,312.21881918014043L817.1850000000001,288.0389485234079L818.6045454545455,305.02781469495005L819.550909090909,308.1544932655746L821.4436363636363,315.4044619452807L821.9168181818181,314.7353525133045L822.39,304.5140736920304L822.8631818181817,313.9137818163733L824.2827272727274,320.611773994449L825.2290909090909,324.01818875708176L825.7022727272728,325.2700606993615L826.1754545454545,302.91040422986623L826.6486363636363,312.9361408645402L827.1218181818182,300.13258786764686L828.0681818181818,309.57338327030504L828.5413636363636,317.3164825505624L829.960909090909,321.4988316977984L830.4340909090909,324.4055071967075L831.3804545454545,320.1581384657162L831.8536363636364,318.4093497436248L832.3268181818182,322.02725775337234L834.6927272727272,323.5442727114023L835.165909090909,312.52534592779045L835.6390909090909,316.592696812043L839.4245454545455,317.743752919906L839.8977272727273,305.44507594899756L840.3709090909091,314.63215726872636L841.3172727272728,276.13383225357745L841.7904545454545,292.86924898181087L842.2636363636364,280.47901746960713L842.7368181818182,299.96717469890257L843.21,312.21357131551093L843.6831818181818,319.55934756800764L844.1563636363636,323.6649937837883L845.1027272727272,326.09984431137525L846.049090909091,327.58969864715567L846.5222727272728,325.62952458691257L846.9954545454545,323.7806935240725L847.9418181818182,325.23438176914453L848.415,323.9986000144744L849.3613636363636,324.874821201519L850.3077272727272,322.7559226337408L850.7809090909091,325.6804911481528L851.7272727272727,326.5561414230429L852.2004545454545,327.1828724082448L854.0931818181818,324.59813546753753L854.5663636363637,325.3656486220171L855.0395454545455,316.55452810806094L855.5127272727273,308.15461515237126L855.9859090909091,305.85340963512203L856.459090909091,301.1180938584181L856.9322727272728,312.79425139889554L857.8786363636364,315.93445958742757L858.3518181818182,303.2261149886207L858.8249999999999,314.11191518091516L859.2981818181818,319.46671091978766L861.1909090909091,323.914241584438L862.1372727272727,324.44612426745766L862.6104545454546,325.1606147181265L863.0836363636364,327.11278950501367L864.03,328.4645603880797L864.9763636363637,326.96453761968104L865.9227272727272,327.2382189000433L866.8690909090909,327.84404930225224L867.3422727272726,326.4621341884208L867.8154545454545,316.4338974988504L868.7618181818183,320.77823028481265L869.235,306.87211863706267L869.7081818181819,298.2172280699596L870.1813636363637,294.7204942256561L870.6545454545454,294.92485929431626L871.1277272727273,303.04933531524006L871.6009090909091,309.593967693694L872.074090909091,306.10822188714L872.5472727272727,308.5853768608502L873.9668181818182,315.11796627173015L874.4399999999999,320.7115666820358L875.3863636363636,323.1793623241038L875.8595454545454,324.8149962818474L877.279090909091,326.8937175863743L877.7522727272727,326.77519279010653L878.2254545454546,327.0206467243288L878.6986363636364,323.2002265442761L879.1718181818183,325.94389800626647L880.1181818181818,327.39683726164617L882.0109090909091,320.82414045472694L882.9572727272727,323.7764149910346L883.4304545454545,326.1501644659719L883.9036363636363,322.70607616357097L885.3231818181819,318.48235852034145L885.7963636363637,303.52128389186413L886.7427272727273,313.7287389316812L887.2159090909091,319.0598969364855L887.689090909091,320.43769996641237L888.6354545454545,318.9695013331065L889.1086363636364,323.3088410137856L889.5818181818181,325.3118520227083L890.055,326.4459177663629L891.0013636363636,320.86398319367794L891.9477272727273,323.6076791023566L892.894090909091,326.31916798927136L893.3672727272727,327.2862647166267L894.3136363636364,325.85290664824333L894.7868181818181,325.5694561914652L895.26,327.3711548065088L895.7331818181818,327.6947811992432L896.6795454545454,328.80731589015926L898.0990909090908,325.54168404291033L898.5722727272727,325.5992138096688L899.0454545454545,327.34162770675107L899.5186363636365,327.3961866399138L899.9918181818182,327.13147895413573L900.9381818181819,324.68463008033L901.4113636363637,318.6187063063786L901.8845454545454,323.032630502953L902.3577272727273,325.92663989444753L902.8309090909091,327.35109329863747L903.3040909090909,327.9525520646236L903.7772727272727,328.82722371005855L904.2504545454545,329.2850495686537L905.1968181818181,328.8334599817786L905.67,328.56641429536006L906.1431818181818,329.0367216650245L908.0359090909092,329.33822603835745L909.4554545454546,325.85919907727293L909.9286363636364,327.4222068090421L910.4018181818182,278.88284471626173L911.8213636363636,251.82356259223874L912.2945454545454,282.45457719190154L912.7677272727273,294.8944965983822L913.2409090909091,303.3449858001109L913.7140909090908,306.7098610115788L914.6604545454545,315.97668996566483L915.1336363636365,321.84968257819236L915.6068181818182,325.19155987323967L917.0263636363636,325.14228862507133L917.4995454545455,320.32665821303715L918.4459090909091,321.8773196929085L918.9190909090909,324.379838490092L919.3922727272727,308.1025749883671L920.8118181818181,317.1173754403029L921.7581818181818,295.1334309738299L922.2313636363635,308.95621714958077L922.7045454545455,317.538651405646L923.1777272727273,322.32204858574937L923.6509090909092,324.46109332808055L925.0704545454546,324.85193334322094L926.49,326.8100508810262L926.9631818181819,327.2647481373656" style="fill: none;" fill="none"></path></g></g></g></g><g opacity="0.2"><g><g><g><path stroke="rgb(0, 119, 187)" stroke-width="2px" d="M96.52909090909091,150.8601851463318L97.47545454545455,210.85372656583786L97.94863636363635,234.82873874902725L99.84136363636362,276.1812531352043L100.31454545454545,263.89159539341927L101.2609090909091,283.41429939866066L101.73409090909091,270.7896798849106L102.20727272727272,276.9774717092514L102.68045454545454,269.41091126203537L103.15363636363637,288.37103010714054L103.62681818181818,288.75846272706985L104.10000000000001,279.740157186985L104.57318181818181,288.751362785697L106.4659090909091,294.5508123189211L106.93909090909091,297.14255002141L110.72454545454546,313.3930625617504L111.19772727272726,317.7082723081112L112.1440909090909,315.63554848730564L113.56363636363636,323.46812791004777L114.03681818181818,314.2037654668093L114.98318181818182,312.27983625233173L115.45636363636365,320.5992129743099L115.92954545454545,299.90472292900085L116.40272727272728,318.2560746073723L117.34909090909092,319.57328130304813L118.29545454545455,308.6076851785183L118.76863636363636,313.28262481838465L120.18818181818182,306.07310186326504L120.66136363636363,308.2729529365897L121.13454545454546,275.2323168218136L121.60772727272727,316.7444531545043L122.0809090909091,324.29213229194283L123.50045454545455,295.4890775978565L123.97363636363637,297.29411025345325L124.92,307.48694211244583L125.86636363636364,325.3544726371765L126.33954545454546,316.3737677782774L126.81272727272727,319.7976631075144L127.28590909090909,322.58625661209226L128.70545454545456,320.99740463867784L129.17863636363637,322.1416879110038L129.6518181818182,326.5724913775921L130.125,327.7518064957112L131.07136363636363,324.95437643676996L132.01772727272729,322.4570924565196L132.49090909090907,323.413340639323L134.85681818181817,324.38865319266915L135.33,306.0303304195404L135.80318181818183,256.84856057167053L136.27636363636364,309.736359000206L136.74954545454545,300.0129062086344L137.22272727272727,323.31537778303027L139.58863636363637,303.834657356143L143.3740909090909,325.1136400066316L144.32045454545454,303.6083210259676L144.79363636363638,320.12322963774204L145.2668181818182,320.9218378588557L148.57909090909092,329.24133726675063L149.99863636363636,318.6480893790722L150.945,321.40601386874914L151.4181818181818,309.52777533978224L151.89136363636362,309.8305634781718L153.7840909090909,315.40220233798027L154.25727272727275,327.07572964578867L154.73045454545456,309.9190578684211L156.15,327.5256662517786L156.62318181818182,320.1504352837801L158.0427272727273,323.0052277855575L159.93545454545455,305.812600761652L160.88181818181818,316.5455688983202L161.82818181818183,324.0110875479877L162.30136363636365,329.0968641266227L162.77454545454546,321.53695864230394L163.24772727272727,314.0272808074951L163.72090909090912,314.42993704229593L164.1940909090909,327.4079592358321L165.14045454545453,310.63762629032135L166.0868181818182,317.06804966926575L167.50636363636366,318.41949436068535L167.97954545454547,324.5784710124135L168.45272727272726,320.9028586819768L169.39909090909092,329.1549420906231L169.87227272727273,325.89214076288044L170.34545454545454,301.3994197100401L171.2918181818182,307.13661309331656L171.76500000000001,329.472664731089L172.71136363636364,324.3432287760079L173.18454545454543,323.1261887066066L174.13090909090909,324.33564583584666L174.6040909090909,279.06857764720917L176.02363636363637,279.9977771937847L177.91636363636363,324.45901963859797L178.38954545454544,329.40643589850515L178.86272727272726,329.74643483385444L179.3359090909091,327.7995776105672L180.28227272727273,323.3889590576291L180.75545454545454,327.65947416611016L181.7018181818182,327.63177918456495L182.6481818181818,323.8932956904173L183.12136363636364,324.6191576756537L183.59454545454545,302.7387429624796L184.06772727272727,310.25234393030405L185.01409090909092,329.92172801401466L185.48727272727274,291.75448590517044L188.79954545454547,327.1870172135532L190.69227272727275,323.0215645506978L192.585,323.96474853157997L193.05818181818182,325.16398347727954L193.53136363636364,310.1640762537718L195.4240909090909,-43.003666162490845L195.8972727272727,244.70699617266655L196.37045454545455,87.63282179832458L196.84363636363636,224.92678481340408L198.26318181818183,254.7841139137745L198.73636363636365,294.5402483046055L200.1559090909091,303.53612749278545L200.6290909090909,312.67410407960415L201.57545454545453,293.6083788871765L202.04863636363638,312.3392605930567L202.5218181818182,317.601699963212L194.9509090909091,308.7808113768697L195.4240909090909,322.9827500358224L195.8972727272727,322.323796056211L196.37045454545455,321.77609162405133L202.995,259.5709276199341L203.46818181818182,-264.7561547756195L204.88772727272726,31.764456152915955L205.36090909090908,148.63200330734253L206.30727272727273,213.18904119729996L208.20000000000002,244.92266428470612L208.6731818181818,218.1621657013893L209.61954545454546,253.42429912090302L210.5659090909091,262.85237914323807L211.0390909090909,257.30996945500374L213.405,272.9608368873596L214.82454545454544,292.5957824885845L215.2977272727273,289.16441828012466L215.7709090909091,288.4784332662821L216.24409090909091,291.62317782640457L217.19045454545457,298.05124957859516L219.0831818181818,305.47380597889423L220.02954545454546,303.0945990085602L220.97590909090908,302.9557375609875L221.44909090909093,311.5701899304986L221.92227272727274,312.97980570048094L223.815,316.8157384246588L224.2881818181818,316.95307905972004L225.23454545454547,322.45776414871216L226.1809090909091,315.9238016009331L227.12727272727273,321.9078059569001L229.49318181818182,324.4170388765633L230.43954545454545,318.75349013507366L230.9127272727273,321.20531871914864L232.3322727272727,302.8220863044262L233.27863636363637,314.20107447355986L233.75181818181818,324.60546473041177L234.225,272.7257643342018L235.17136363636365,316.1721080392599L235.64454545454544,284.96364967525005L236.11772727272725,308.65413051098585L238.01045454545454,282.50162038207054L238.48363636363638,313.6975968182087L239.43,321.0626573525369L240.84954545454545,323.0883915871382L242.74227272727273,326.3194355685264L243.21545454545455,311.0888851583004L243.68863636363636,306.2692472487688L244.1618181818182,321.96606082096696L245.1081818181818,318.9300071820617L246.52772727272728,323.6702143214643L247.0009090909091,322.60485488176346L247.4740909090909,321.39501754939556L248.89363636363638,314.193605594337L249.36681818181816,319.6870479360223L250.31318181818182,321.69211320206523L253.15227272727273,324.6917039528489L254.09863636363636,318.7234217002988L254.57181818181817,314.918426245451L255.045,321.0183404535055L255.51818181818183,315.4159670993686L255.99136363636364,315.1349209472537L256.9377272727273,328.20547666121274L257.4109090909091,327.3362314514816L259.77681818181816,330.3162698603701L260.25,321.51163218542933L261.1963636363636,327.12730455212295L262.14272727272726,330.1640082327649L262.6159090909091,318.28486443310976L263.08909090909094,297.4233201742172L264.03545454545457,307.1069051474333L264.50863636363636,311.879920296371L264.98181818181814,289.4575633406639L265.455,327.5963336918503L266.40136363636367,313.55971263349056L266.87454545454545,322.65103548020124L267.8209090909091,281.12481755018234L268.2940909090909,325.8371767681092L269.2404545454545,313.5611475482583L270.1868181818182,330.0973652251996L271.1331818181818,325.48042513243854L271.60636363636365,329.11301959119737L272.07954545454544,309.6393494680524L273.02590909090907,328.94336521066725L273.4990909090909,318.51068960130215L274.9186363636364,325.7336217574775L275.39181818181817,318.7002574726939L275.865,300.2846528738737L276.3381818181818,324.91237807273865L277.2845454545454,316.78266779333353L277.7577272727273,324.2206449508667L278.2309090909091,329.2652566200122L278.7040909090909,319.72094867751L281.07,330.1640702798031L282.96272727272725,325.45186835713685L283.4359090909091,309.8410007581115L284.3822727272727,329.54545435588807L285.8018181818182,325.9546929784119L289.1140909090909,323.01132018864155L289.58727272727276,329.86601382214576L291.48,323.1958200931549L291.9531818181818,303.3884509652853L292.4263636363636,308.5283705815673L293.3727272727273,329.80954696889967L294.3190909090909,314.5086799263954L295.26545454545453,328.66292843967676L296.21181818181816,320.1015172228217L300.4704545454546,329.8064234945923L300.94363636363636,327.4112300388515L301.4168181818182,329.3018750217743L301.89,328.981703767553L302.8363636363636,329.25366676133126L303.30954545454546,329.3281261995435L304.7290909090909,329.37142763938755L306.14863636363634,327.1518723629415L308.9877272727273,328.99313380010426L309.4609090909091,317.6652530282736L309.9340909090909,325.9489462785423L310.4072727272727,294.0978861898184L310.88045454545454,328.9003093186766L311.82681818181817,325.73684925958514L312.3,330.4983228673227L312.77318181818185,328.89618006628007L313.7195454545455,317.9760747179389L314.19272727272727,328.8287367839366L314.66590909090905,330.5779624521383L315.6122727272727,329.73232014477253L316.55863636363637,329.7108890977688L317.0318181818182,330.53455899772234L318.9245454545454,322.8387889377773L320.8172727272727,314.78219101578L322.2368181818182,329.4224223839119L322.71,324.23669797182083L323.65636363636366,330.363567173481L324.12954545454545,328.44304887391627L325.0759090909091,328.2897541411221L326.0222727272727,328.42005573771894L327.44181818181823,328.5178506709635L330.7540909090909,326.2577236723155L332.1736363636364,329.22177176736295L332.64681818181816,325.19817958027124L334.06636363636363,330.061945827445L334.5395454545454,329.03231742884964L335.0127272727273,330.40913517843L335.95909090909095,322.67155800014734L336.43227272727273,330.47430747316685L336.9054545454545,329.79035269562155L337.37863636363636,329.1278429366648L338.325,327.96292572375387L340.6909090909091,130.50783848762512L341.1640909090909,330.2864122095052L344.0031818181818,296.1777409315109L344.94954545454544,330.6726357867883L345.4227272727273,330.36551690264605L345.8959090909091,296.51384894549847L346.36909090909086,313.17488370090723L346.84227272727276,322.25858277082443L347.31545454545454,330.5827374337823L347.7886363636364,330.524786743219L348.26181818181817,319.57402269914746L348.735,312.4847615137696L349.2081818181818,329.0449150018394L350.1545454545454,330.4552800008096L351.5740909090909,324.8005779348314L352.04727272727274,330.26061533926986L352.5204545454545,324.73685237020254L353.46681818181816,329.73541334364563L353.94,328.11629896145314L355.35954545454547,298.9404066950083L356.3059090909091,307.723867803812L357.2522727272727,312.6714708209038L357.7254545454545,323.25223942101L359.145,327.38315062969923L359.6181818181818,322.161250770092L360.0913636363636,319.01761231943965L361.03772727272724,328.3577309399843L361.5109090909091,327.8382403962314L361.9840909090909,323.263644810766L362.93045454545455,329.5156404459849L363.8768181818182,330.1589893314522L364.34999999999997,327.4144328981638L365.7695454545455,327.2739210873842L366.2427272727273,309.82313261926174L366.7159090909091,328.10244143754244L367.1890909090909,308.2152578160167L367.66227272727275,327.64892493747175L368.13545454545454,327.7964180521667L368.6086363636363,328.0272046951577L369.08181818181816,329.98112639179453L370.02818181818185,319.91497196629643L370.50136363636364,325.7587000261992L372.3940909090909,325.8601406849921L372.8672727272727,329.1409933883697L373.3404545454546,327.0222994890064L374.2868181818182,328.94492580369115L374.76,326.70741244219244L375.23318181818183,328.5880069490522L375.7063636363636,326.40684461966157L376.65272727272725,330.1214005316142L377.59909090909093,330.7129842826689L378.54545454545456,330.4467244403204L379.4918181818182,328.7996494844556L380.4381818181818,327.0597061961889L381.3845454545455,325.0025178976357L381.8577272727273,328.52661804948L382.3309090909091,327.2575871385634L383.75045454545455,323.8912496343255L385.64318181818186,329.8046183218248L386.11636363636364,328.16823576483876L387.0627272727273,315.88798224180937L387.53590909090906,325.31182088702917L388.48227272727274,305.76352076232433L390.375,303.80546902120113L390.8481818181818,327.3513934593648L391.7945454545454,329.0914376070723L392.7409090909091,326.30605734698474L394.63363636363636,312.5260684713721L396.05318181818177,325.0836338829249L396.52636363636367,280.95451471209526L397.4727272727273,207.39601850509644L397.9459090909091,325.44678243622184L398.4190909090909,328.10637953225523L398.8922727272727,281.2421848475933L399.3654545454545,323.02604883536696L399.83863636363634,330.58261163451243L400.3118181818182,321.06010154262185L400.785,330.69105162276537L401.2581818181818,329.4135665553622L403.15090909090907,330.40409225039184L403.6240909090909,326.047805076465L404.57045454545454,328.84346367046237L405.51681818181817,313.9133606851101L406.93636363636364,323.09052213281393L407.8827272727273,320.05406576022506L408.3559090909091,327.09023826755583L408.8290909090909,322.9003853648901L410.24863636363636,319.9876238554716L410.72181818181815,314.11388263106346L411.195,327.89979352243245L411.66818181818184,306.1911901384592L412.1413636363637,326.7692806441337L413.08772727272725,328.4467463493347L413.5609090909091,321.81794283539057L414.0340909090909,306.6007674783468L414.9804545454545,327.5469900146127L415.4536363636364,324.77962240576744L415.9268181818182,330.18340202467516L416.40000000000003,329.6927874684334L416.8731818181818,329.17349142674357L417.3463636363636,330.25913122692145L418.29272727272723,325.4091370459646L418.7659090909091,330.01149406051263L420.18545454545455,328.08702965732664L422.0781818181818,323.7220395281911L423.4977272727273,325.0662019215524L423.9709090909091,330.0318864136934L424.4440909090909,329.83825564943254L424.91727272727275,330.5757585611427L425.39045454545453,330.25156399654225L425.8636363636364,330.62302353058476L426.33681818181816,329.9611718002707L426.81,330.02885530586354L427.75636363636363,328.82176920957863L428.2295454545455,327.6183984987438L428.70272727272726,328.45652073808014L430.5954545454546,287.95904763042927L432.48818181818183,325.33978905156255L432.9613636363636,328.85406271275133L433.90772727272724,328.3544601369649L434.38090909090914,330.7175335572101L434.8540909090909,330.61533821281046L435.3272727272727,322.86308039724827L435.80045454545456,283.99042542278767L436.27363636363634,330.527851492865L437.6931818181818,330.73880737437867L438.1663636363636,330.3287529323716L438.6395454545455,295.1080718189478L441.00545454545454,319.73478877544403L441.95181818181817,323.63126673549414L442.425,326.6750849671662L442.89818181818185,328.9666116395965L443.37136363636364,330.7188166822598L444.31772727272727,329.63996959710494L445.7372727272727,325.71105353347957L446.2104545454546,326.0013600960374L447.63,313.61116679012775L448.10318181818184,324.0590698868036L448.5763636363636,301.27774907648563L449.0495454545454,330.4771763345925L449.52272727272725,330.5242871105438L450.46909090909094,330.4446295606904L451.88863636363635,328.49931277614087L452.3618181818182,330.2306280937046L453.30818181818177,324.0250698700547L454.7277272727273,329.3995257066563L455.2009090909091,329.90403519105166L455.6740909090909,324.5082221478224L456.62045454545455,329.2647069096565L457.09363636363634,315.2399612143636L457.56681818181823,327.31257331185043L458.04,321.99003966897726L458.5131818181818,329.4941339744255L458.98636363636365,330.2607469141949L459.45954545454543,330.5495097376406L459.9327272727273,330.16134637081996L461.35227272727275,330.3296876423992L461.8254545454546,329.70014774333686L463.7181818181818,330.426106011495L464.19136363636363,330.47498512803577L465.1377272727273,329.9208171106875L466.08409090909095,322.97165021672845L467.0304545454545,320.8545447215438L467.50363636363636,324.3041910678148L467.97681818181815,330.2252674936317L468.45,330.1314264968969L468.92318181818183,330.57867655414157L469.3963636363637,330.548553817207L470.3427272727273,330.41744862345513L471.2890909090909,329.8839482325129L472.2354545454545,329.46902895066887L473.65500000000003,322.9320900812745L474.1281818181818,329.81859474722296L474.60136363636366,329.9104939796962L475.07454545454544,330.0934336872306L475.5477272727273,310.83476442843676L476.49409090909086,329.30283732293174L477.44045454545454,319.30537398532033L478.38681818181817,329.5435714703053L478.86,325.9691561870277L479.80636363636364,330.6889122320863L481.2259090909091,330.71153276701807L482.17227272727274,330.22120530484244L482.6454545454545,324.24892150238156L483.11863636363637,330.1296949884854L484.53818181818184,320.4291354417801L485.95772727272725,317.94372506439686L486.4309090909091,321.71253433451056L487.3772727272727,325.34500205889344L488.3236363636364,322.22804682701826L489.27,329.55838117422536L489.7431818181818,326.17148761823773L491.6359090909091,330.74161426715L492.58227272727277,324.9313787240535L493.05545454545455,329.7743135802448L493.5286363636364,329.99082236364484L494.0018181818182,330.4799822908826L494.9481818181818,329.67282750830054L495.4213636363636,330.4867712929845L495.8945454545455,330.64251597068505L496.3677272727273,326.33243569917977L498.26045454545454,311.71688356250525L499.20681818181816,328.8560431133956L499.68,301.23389334976673L500.15318181818185,330.7200333652727L500.62636363636364,330.73310912400484L501.0995454545455,327.62822956591845L502.9922727272727,330.19881173665635L503.4654545454546,330.7175116262224L503.93863636363636,330.60706972988555L504.4118181818182,322.56126318499446L505.8313636363636,328.5460680797696L506.30454545454546,330.66981066632434L506.77772727272725,326.55223570391536L507.2509090909091,314.0915337279439L507.72409090909093,329.97332615498453L508.67045454545456,314.7884010002017L509.14363636363635,330.26834067958407L509.6168181818182,328.67460824456066L510.09,313.722366347909L511.03636363636366,314.0332091599703L512.455909090909,322.21903812512755L513.4022727272727,330.60096236510435L513.8754545454545,327.72545630671084L514.8218181818182,301.5812103152275L515.295,329.8492951816879L515.7681818181818,319.8421933427453L516.7145454545455,330.70758155331714L517.1877272727273,322.1686668433249L518.1340909090909,296.0471988916397L518.6072727272727,327.76445106603205L520.9731818181818,328.5182414352894L521.9195454545454,321.1856988295913L522.3927272727273,314.5703207105398L522.8659090909091,330.743680962958L523.3390909090908,330.7435318994867L523.8122727272727,330.73288806905475L524.2854545454545,330.0546617691871L524.7586363636365,307.462607704103L525.705,327.9427122948691L526.1781818181819,284.6251421570778L526.6513636363636,329.2060950770974L528.0709090909091,279.7869982123375L528.5440909090909,328.3869185708463L529.0172727272727,95.78940117359161L529.4904545454546,323.5708721727133L530.4368181818181,320.5735302530229L533.2759090909092,313.16517443954945L533.7490909090909,310.1033662632108L534.2222727272728,313.57663026452065L535.1686363636363,330.1356396668125L537.0613636363636,329.1991862934083L538.480909090909,327.64962901733816L539.9004545454546,316.426663890481L541.32,310.4278921633959L541.7931818181819,330.0961621287279L542.7395454545455,328.6783731356263L543.2127272727273,317.39787869900465L543.685909090909,328.21594263240695L544.1590909090909,320.31496185064316L545.1054545454546,328.1582612413913L545.5786363636363,327.7402212135494L546.0518181818181,329.3202720126137L546.525,324.62452417239547L546.9981818181818,329.45015406562015L547.4713636363637,329.237719880417L547.9445454545455,328.8388713095337L548.4177272727273,328.2987614348531L548.8909090909091,329.51606597425416L549.8372727272728,324.30857748538256L550.3104545454546,327.5686791948974L551.2568181818182,321.1988806128502L552.2031818181817,323.8320062421262L552.6763636363636,211.4290217757225L553.6227272727273,287.19365648925304L554.5690909090908,329.70511669898406L555.0422727272728,290.0422368943691L555.5154545454546,317.0725783109665L555.9886363636364,330.5143544358434L557.4081818181818,330.7347485574719L557.8813636363636,330.244534683181L558.3545454545455,319.4453577362001L558.8277272727273,309.8686556071043L559.7740909090909,330.71850979969895L560.2472727272727,330.6694446603069L564.0327272727274,329.7565548378043L565.4522727272728,330.6162430434488L565.9254545454545,328.4572350271046L566.8718181818182,330.142098411452L567.345,330.3965906754602L567.8181818181818,328.63813373912126L568.2913636363636,321.6604260876775L569.710909090909,330.7115704737953L570.1840909090909,330.5953007598873L571.1304545454545,330.12654726742767L571.6036363636364,328.9091571383178L572.0768181818182,323.2410262450576L572.5500000000001,329.9497654424049L573.9695454545455,330.06940867798403L577.755,330.5819835732691L578.2281818181818,326.89158318936825L578.7013636363637,330.552669912111L579.6477272727273,329.95893933903426L580.5940909090909,330.4978160178289L581.0672727272728,329.60645636357367L581.5404545454545,326.14012367650867L582.4868181818182,330.6346641490236L582.96,330.2421497886535L583.4331818181818,329.5444497219287L583.9063636363636,318.5779278203845L584.3795454545455,330.67412399160094L585.799090909091,330.29767915955745L586.2722727272728,330.4597012483282L586.7454545454545,330.68867721242714L589.1113636363636,327.57067385315895L590.0577272727272,330.43350116035435L590.5309090909091,327.74640937149525L591.4772727272727,329.8619379037991L591.9504545454545,326.6922997198999L592.8968181818182,329.7377429679036L595.7359090909091,326.7397061213851L596.209090909091,328.75491893850267L597.1554545454545,328.52761925105006L597.6286363636364,329.9342773575336L598.1018181818182,330.03291714261286L599.9945454545455,329.2896925038658L600.4677272727272,329.5650769737549L600.9409090909091,329.7906180457212L601.414090909091,328.2717715892941L601.8872727272727,328.020978868939L602.8336363636364,235.81885528564453L603.78,298.33292376995087L604.2531818181818,222.66772484779358L604.7263636363637,329.9225625246763L605.1995454545455,185.38465690612793L605.6727272727272,306.47900108993053L606.1459090909091,330.6713350212376L606.6190909090909,330.74764160713494L608.5118181818183,327.80475453380495L609.4581818181819,322.1915973164141L609.9313636363637,330.6524205261958L612.7704545454545,328.15584712754935L613.7168181818182,328.31205516681075L614.6631818181818,327.13347299583256L615.1363636363636,328.2409337712452L615.6095454545454,327.9627011222765L616.5559090909092,324.75065022334456L618.4486363636364,327.9440153706819L619.8681818181818,327.74007582105696L620.8145454545454,325.86962288059294L622.2340909090909,329.3484782441519L623.6536363636363,328.84957701992244L624.1268181818182,325.48481471836567L625.0731818181819,324.87172414921224L625.5463636363637,328.47631330322474L626.0195454545454,329.7656705598347L626.4927272727273,324.0993939489126L626.9659090909091,321.7740145884454L627.439090909091,325.380469026044L627.9122727272727,325.88805463537574L628.8586363636364,328.48251923918724L629.3318181818181,311.4311397895217L629.805,330.3978885806864L631.2245454545454,326.4310832731426L631.6977272727273,328.87410452216864L632.644090909091,324.94242045655847L636.4295454545454,-113.05319166183472L636.9027272727272,126.31451904773712L637.3759090909091,160.58102720975876L637.8490909090908,281.13475915789604L638.3222727272727,212.0441284775734L639.2686363636365,307.18518756330013L639.7418181818182,328.3993124887347L640.215,322.54099061340094L640.6881818181819,303.15530759096146L641.6345454545454,314.05904185026884L642.1077272727273,328.05509928334504L642.5809090909091,330.13650942547247L643.5272727272727,330.50177527894266L644.0004545454545,329.9270793730393L644.9468181818181,321.17043789848685L649.6786363636364,324.35160591825843L651.0981818181818,329.1235434729606L651.5713636363636,330.1408726524096L652.0445454545454,327.70495174080133L652.5177272727273,325.1766555067152L653.4640909090908,330.5644877826562L653.9372727272727,326.20755410939455L654.4104545454545,329.40610022842884L655.3568181818182,329.68595868581906L656.7763636363636,330.2668852584902L657.2495454545455,330.3731702067889L657.7227272727273,330.2132962876931L658.1959090909091,329.9931759266183L658.6690909090909,330.46314098651055L659.1422727272727,330.19199342723005L659.6154545454546,327.5585643835366L660.0886363636363,330.06894372124225L661.035,330.3101138700731L661.9813636363635,330.26061340305023L662.4545454545455,329.72267891513184L663.4009090909092,329.52291183080524L664.3472727272728,327.89036096446216L665.2936363636363,329.59763424284756L665.7668181818182,330.64430830499623L666.24,330.5945884620887L666.7131818181819,330.5196622959338L667.1863636363636,330.3612139185425L667.6595454545454,330.5361876664683L669.5522727272727,328.90961866267025L671.9181818181819,325.57513725198805L672.3913636363636,328.6119812205434L673.3377272727273,328.51676533184946L673.810909090909,329.3672168897465L674.2840909090909,329.8682914325036L675.7036363636363,328.9457113808021L676.1768181818181,329.5544625297189L676.65,328.9849101472646L677.5963636363637,329.42084674118087L678.5427272727273,330.0949760621879L679.0159090909091,328.87746650353074L680.4354545454546,330.16920504625887L681.3818181818182,329.8630195464939L682.3281818181817,312.8866643831134L682.8013636363636,326.4001780394465L683.7477272727273,329.32797517441213L684.220909090909,322.79067704826593L685.6404545454546,330.14358146768063L686.1136363636364,326.34464268386364L686.5868181818182,329.72595966327935L687.5331818181818,329.81666310410947L688.0063636363636,330.2848079195246L688.4795454545455,329.685568889603L689.425909090909,328.62227240391076L689.8990909090909,330.10453020595014L690.3722727272727,328.9079799167812L690.8454545454546,330.0573742808774L691.3186363636363,330.5071225675056L691.7918181818181,329.9673809045926L692.7381818181817,329.45703565422446L694.1577272727274,324.26226944848895L694.6309090909091,329.94354401668534L695.5772727272728,325.8960304521024L697.47,321.2228256650269L697.9431818181818,280.9064119756222L698.8895454545454,317.8019149303436L699.3627272727273,254.60555362701416L700.7822727272728,172.94168436527252L701.7286363636364,217.93998062610626L702.6750000000001,330.50694399524946L703.6213636363636,330.74752503842774L704.0945454545455,330.49705877993256L704.5677272727272,328.5283807134256L705.040909090909,327.84244445711374L705.9872727272727,239.50911810994148L707.4068181818182,330.66497273003915L707.88,329.9029186964035L708.8263636363637,286.558317348361L709.2995454545455,321.1199905760586L709.7727272727273,330.06903749587946L710.7190909090909,330.47873083292507L712.6118181818182,325.7413571309298L713.5581818181818,328.06482262630016L714.0313636363636,328.2452980102971L714.9777272727272,309.660833761096L715.450909090909,330.29310228838585L715.924090909091,329.1624100897461L716.3972727272728,318.9210569187999L716.8704545454545,324.9147272352129L717.3436363636364,326.5736576858908L719.2363636363636,330.1290253645275L719.7095454545455,330.38021611003205L720.1827272727272,328.50146532431245L720.6559090909091,328.59653230011463L721.1290909090909,325.30026235990226L722.0754545454545,330.56984377320623L723.0218181818182,330.3341817401815L723.495,330.1607048660517L723.9681818181818,328.5297302585095L724.4413636363637,320.2513242959976L724.9145454545455,320.47868083789945L725.3877272727273,320.44415628165007L726.8072727272728,326.88095792010427L728.2268181818182,320.9867160022259L729.1731818181818,284.24696396291256L730.1195454545455,327.55209142528474L730.5927272727272,323.4262168519199L731.0659090909091,312.1397285833955L731.539090909091,284.53183749318123L732.0122727272727,304.0077877789736L733.905,328.3471362981945L735.7977272727272,307.8312216773629L736.7440909090909,329.4608375974931L737.2172727272726,330.3351311038714L737.6904545454545,330.68582866480574L738.6368181818183,327.971057318151L739.11,329.9665917190723L739.5831818181819,328.99632926657796L741.0027272727273,322.53268599137664L742.4222727272727,310.1213076263666L742.8954545454545,293.5418377071619L743.3686363636364,329.7956941095181L744.3149999999999,329.03151935432106L744.7881818181818,280.62717390060425L745.2613636363636,326.2972711343318L746.2077272727272,275.3308147788048L746.6809090909092,295.7959325015545L747.6272727272727,327.8807184146717L748.1004545454546,320.9598271921277L748.5736363636364,275.7884216308594L749.0468181818183,316.4212537407875L749.52,281.9602787196636L749.9931818181818,283.9293873310089L750.9395454545454,327.999428040348L751.4127272727272,330.5899404568481L752.8322727272727,326.42363833263516L755.1981818181819,321.15950494632125L757.0909090909091,328.57500417809933L760.8763636363636,305.3888488858938L761.3495454545454,330.2100628009066L761.8227272727273,271.43464520573616L762.2959090909092,290.4227695316076L762.769090909091,330.5733007173403L764.1886363636364,306.79450772702694L764.6618181818181,327.5481542106718L765.6081818181818,329.34260208159685L766.0813636363637,312.0178129300475L767.0277272727272,321.8835398443043L767.5009090909091,322.40958255529404L767.9740909090908,322.2043855190277L768.4472727272727,310.42783442884684L769.3936363636365,302.0399493277073L770.34,327.8268957333639L770.8131818181819,315.3744770810008L771.2863636363637,326.5675945021212L772.2327272727273,308.57435685396194L772.7059090909091,327.1533107981086L773.1790909090909,308.2146706134081L774.1254545454545,322.61393751204014L775.0718181818181,296.13609601557255L777.9109090909092,326.1762728970498L778.8572727272727,329.01737245358527L780.75,328.40321309119463L781.2231818181818,300.8789188116789L781.6963636363636,326.7501177024096L783.5890909090908,293.70116816461086L785.955,308.6235044449568L786.4281818181819,330.4175600660965L788.3209090909091,300.9359464645386L789.7404545454546,323.9646098278463L790.2136363636363,311.6163930594921L791.6331818181818,328.77361525129527L792.1063636363635,310.1839636936784L793.0527272727273,198.78600043058395L793.5259090909092,321.37173714861274L793.9990909090909,328.9849316217005L794.4722727272728,328.4859547968954L795.4186363636363,322.0088738054037L795.8918181818182,329.5108976759948L797.3113636363636,328.8650959962979L797.7845454545454,330.1039110117126L798.2577272727273,329.71476584952325L798.730909090909,329.3157317535952L799.2040909090908,329.5269487607293L801.0968181818182,329.83139131078497L802.5163636363636,328.41953243035823L802.9895454545455,327.8901287941262L803.4627272727273,329.1785034192726L803.935909090909,329.4653351716697L804.8822727272727,327.3348278682679L805.3554545454546,312.70407957583666L805.8286363636363,320.2456360347569L806.3018181818181,321.0187833197415L806.775,321.67704870924354L807.2481818181818,321.3069406785071L807.7213636363637,243.98444125056267L808.1945454545455,327.10396395251155L808.6677272727273,315.87221648544073L810.0872727272728,327.21042716503143L811.0336363636363,306.5490767508745L813.3995454545454,330.20080181839876L813.8727272727273,320.8913807719946L814.345909090909,277.60645723342896L815.2922727272728,325.8775399066508L817.1850000000001,251.7691425383091L818.6045454545455,330.51111395226326L819.550909090909,312.84451112151146L821.4436363636363,326.2794149648398L821.9168181818181,313.73168836534023L822.39,289.18215546011925L822.8631818181817,328.0133440028876L824.2827272727274,330.6587622615625L825.2290909090909,329.1278109010309L825.7022727272728,327.14786861278117L826.1754545454545,269.3709195256233L826.6486363636363,327.97474581655115L827.1218181818182,280.9272583723068L828.0681818181818,323.7345763742924L828.5413636363636,328.93113147094846L829.960909090909,327.7723554186523L830.4340909090909,328.76552044507116L831.3804545454545,313.7870853692293L831.8536363636364,315.78616666048765L832.3268181818182,327.4541197679937L834.6927272727272,325.81979514844716L835.165909090909,295.99695575237274L835.6390909090909,322.6937231384218L839.4245454545455,319.47033708170056L839.8977272727273,286.9970604926348L840.3709090909091,328.41277924831957L841.3172727272728,218.38634473085403L841.7904545454545,317.97237407416105L842.2636363636364,261.8936702013016L842.7368181818182,329.1994105428457L843.21,330.58316624042345L843.6831818181818,330.57801194675267L844.1563636363636,329.82346310745925L845.1027272727272,329.7521201027557L846.049090909091,329.8244801508263L846.5222727272728,322.68926349654794L846.9954545454545,321.00744692981243L847.9418181818182,327.4149141367525L848.415,322.1449273824692L849.3613636363636,326.18915298208594L850.3077272727272,319.5775747820735L850.7809090909091,330.0673439197708L851.7272727272727,327.8696168353781L852.2004545454545,328.1229688860476L854.0931818181818,320.7210300564766L854.5663636363637,326.5169183537364L855.0395454545455,303.33784733712673L855.5127272727273,295.5547457188368L855.9859090909091,302.40160135924816L856.459090909091,294.01512019336224L856.9322727272728,330.30848770961165L857.8786363636364,320.64477187022567L858.3518181818182,284.16359809041023L858.8249999999999,330.440615469357L859.2981818181818,327.4989045280963L861.1909090909091,330.5855375814135L862.1372727272727,325.2439482919872L862.6104545454546,326.23235039412975L863.0836363636364,330.0410516853444L864.03,330.4922167126788L864.9763636363637,324.714503467083L865.9227272727272,327.6487408205867L866.8690909090909,328.7527949055657L867.3422727272726,324.38926151767373L867.8154545454545,301.3915424644947L868.7618181818183,327.2947294637561L869.235,286.0129511654377L869.7081818181819,285.23489221930504L870.1813636363637,289.47539345920086L870.6545454545454,295.23140689730644L871.1277272727273,315.2360493466258L871.6009090909091,319.41091626137495L872.074090909091,300.87960317730904L872.5472727272727,312.3011093214154L873.9668181818182,324.9168503880501L874.4399999999999,329.1019672974944L875.3863636363636,326.8810557872057L875.8595454545454,327.2684472184628L877.279090909091,330.01179954316467L877.7522727272727,326.5974055957049L878.2254545454546,327.3888276256621L878.6986363636364,317.4695962741971L879.1718181818183,330.05940519925207L880.1181818181818,329.5762461447157L882.0109090909091,310.96509524434805L882.9572727272727,328.20482679549605L883.4304545454545,329.71078867837787L883.9036363636363,317.5399437099695L885.3231818181819,312.14678205549717L885.7963636363637,281.0796719491482L886.7427272727273,329.03992149140686L887.2159090909091,327.05663394369185L887.689090909091,322.5044045113027L888.6354545454545,316.7672033831477L889.1086363636364,329.81785053480417L889.5818181818181,328.31636853609234L890.055,328.1470163818449L891.0013636363636,312.4910813346505L891.9477272727273,327.7232229653746L892.894090909091,330.3864013196435L893.3672727272727,328.7369098076597L894.3136363636364,323.70286954566836L894.7868181818181,325.14428050629795L895.26,330.0737027290743L895.7331818181818,328.18022078834474L896.6795454545454,330.47611792653333L898.0990909090908,320.64323627203703L898.5722727272727,325.68550845980644L899.0454545454545,329.95524855237454L899.5186363636365,327.47802503965795L899.9918181818182,326.73441742546856L900.9381818181819,321.0143567696214L901.4113636363637,309.51982064545155L901.8845454545454,329.6535167978145L902.3577272727273,330.26765398168936L902.8309090909091,329.48777340492234L903.3040909090909,328.8547402136028L903.7772727272727,330.13923117821105L904.2504545454545,329.9717883565463L905.1968181818181,328.156075601466L905.67,328.16584576573223L906.1431818181818,329.7421827195212L908.0359090909092,329.7904825983569L909.4554545454546,320.6406586356461L909.9286363636364,329.7667184066959L910.4018181818182,206.07380157709122L911.8213636363636,211.23463940620422L912.2945454545454,328.40109909139574L912.7677272727273,313.5543757081032L913.2409090909091,316.02071960270405L913.7140909090908,311.75717382878065L914.6604545454545,329.8769333967939L915.1336363636365,330.6591714969836L915.6068181818182,330.20437581581064L917.0263636363636,325.0683817528188L917.4995454545455,313.10321259498596L918.4459090909091,324.20331191271544L918.9190909090909,328.1336166858673L919.3922727272727,283.68667973577976L920.8118181818181,330.6395761182066L921.7581818181818,262.15751427412033L922.2313636363635,329.69039641320705L922.7045454545455,330.412302789744L923.1777272727273,329.4971443559043L923.6509090909092,327.66966044157743L925.0704545454546,325.4381933659315L926.49,329.7472271877341L926.9631818181819,327.94679402187467" style="fill: none;" fill="none"></path></g></g></g></g></g></g><g transform="translate(34, 378)" clip-path="url(#clip_1)"><clipPath id="clip_1"><rect width="1041" height="22"></rect></clipPath><g><g><line x1="0" y1="0" x2="0" y2="5" style="visibility: inherit;" fill="rgb(0, 0, 0)" stroke="rgb(204, 204, 204)" stroke-width="1px"></line><line x1="94.63636363636364" y1="0" x2="94.63636363636364" y2="5" style="visibility: inherit;" fill="rgb(0, 0, 0)" stroke="rgb(204, 204, 204)" stroke-width="1px"></line><line x1="189.27272727272728" y1="0" x2="189.27272727272728" y2="5" style="visibility: inherit;" fill="rgb(0, 0, 0)" stroke="rgb(204, 204, 204)" stroke-width="1px"></line><line x1="283.9090909090909" y1="0" x2="283.9090909090909" y2="5" style="visibility: inherit;" fill="rgb(0, 0, 0)" stroke="rgb(204, 204, 204)" stroke-width="1px"></line><line x1="378.54545454545456" y1="0" x2="378.54545454545456" y2="5" style="visibility: inherit;" fill="rgb(0, 0, 0)" stroke="rgb(204, 204, 204)" stroke-width="1px"></line><line x1="473.1818181818182" y1="0" x2="473.1818181818182" y2="5" style="visibility: inherit;" fill="rgb(0, 0, 0)" stroke="rgb(204, 204, 204)" stroke-width="1px"></line><line x1="567.8181818181818" y1="0" x2="567.8181818181818" y2="5" style="visibility: inherit;" fill="rgb(0, 0, 0)" stroke="rgb(204, 204, 204)" stroke-width="1px"></line><line x1="662.4545454545455" y1="0" x2="662.4545454545455" y2="5" style="visibility: inherit;" fill="rgb(0, 0, 0)" stroke="rgb(204, 204, 204)" stroke-width="1px"></line><line x1="757.0909090909091" y1="0" x2="757.0909090909091" y2="5" style="visibility: inherit;" fill="rgb(0, 0, 0)" stroke="rgb(204, 204, 204)" stroke-width="1px"></line><line x1="851.7272727272727" y1="0" x2="851.7272727272727" y2="5" style="visibility: inherit;" fill="rgb(0, 0, 0)" stroke="rgb(204, 204, 204)" stroke-width="1px"></line><line x1="946.3636363636364" y1="0" x2="946.3636363636364" y2="5" style="visibility: inherit;" fill="rgb(0, 0, 0)" stroke="rgb(204, 204, 204)" stroke-width="1px"></line><line x1="1041" y1="0" x2="1041" y2="5" style="visibility: inherit;" fill="rgb(0, 0, 0)" stroke="rgb(204, 204, 204)" stroke-width="1px"></line></g><g transform="translate(0, 8)"><text x="0" y="0" dx="0em" dy="0.95em" style="text-anchor: middle; visibility: hidden; font-family: &quot;Helvetica Neue&quot;, sans-serif; font-size: 12px; font-weight: 200;" fill="rgb(50, 49, 63)" stroke="none" stroke-width="1px">-200</text><text x="94.63636363636364" y="0" dx="0em" dy="0.95em" style="text-anchor: middle; visibility: inherit; font-family: &quot;Helvetica Neue&quot;, sans-serif; font-size: 12px; font-weight: 200;" fill="rgb(50, 49, 63)" stroke="none" stroke-width="1px">0</text><text x="189.27272727272728" y="0" dx="0em" dy="0.95em" style="text-anchor: middle; visibility: inherit; font-family: &quot;Helvetica Neue&quot;, sans-serif; font-size: 12px; font-weight: 200;" fill="rgb(50, 49, 63)" stroke="none" stroke-width="1px">200</text><text x="283.9090909090909" y="0" dx="0em" dy="0.95em" style="text-anchor: middle; visibility: inherit; font-family: &quot;Helvetica Neue&quot;, sans-serif; font-size: 12px; font-weight: 200;" fill="rgb(50, 49, 63)" stroke="none" stroke-width="1px">400</text><text x="378.54545454545456" y="0" dx="0em" dy="0.95em" style="text-anchor: middle; visibility: inherit; font-family: &quot;Helvetica Neue&quot;, sans-serif; font-size: 12px; font-weight: 200;" fill="rgb(50, 49, 63)" stroke="none" stroke-width="1px">600</text><text x="473.1818181818182" y="0" dx="0em" dy="0.95em" style="text-anchor: middle; visibility: inherit; font-family: &quot;Helvetica Neue&quot;, sans-serif; font-size: 12px; font-weight: 200;" fill="rgb(50, 49, 63)" stroke="none" stroke-width="1px">800</text><text x="567.8181818181818" y="0" dx="0em" dy="0.95em" style="text-anchor: middle; visibility: inherit; font-family: &quot;Helvetica Neue&quot;, sans-serif; font-size: 12px; font-weight: 200;" fill="rgb(50, 49, 63)" stroke="none" stroke-width="1px">1k</text><text x="662.4545454545455" y="0" dx="0em" dy="0.95em" style="text-anchor: middle; visibility: inherit; font-family: &quot;Helvetica Neue&quot;, sans-serif; font-size: 12px; font-weight: 200;" fill="rgb(50, 49, 63)" stroke="none" stroke-width="1px">1.2k</text><text x="757.0909090909091" y="0" dx="0em" dy="0.95em" style="text-anchor: middle; visibility: inherit; font-family: &quot;Helvetica Neue&quot;, sans-serif; font-size: 12px; font-weight: 200;" fill="rgb(50, 49, 63)" stroke="none" stroke-width="1px">1.4k</text><text x="851.7272727272727" y="0" dx="0em" dy="0.95em" style="text-anchor: middle; visibility: inherit; font-family: &quot;Helvetica Neue&quot;, sans-serif; font-size: 12px; font-weight: 200;" fill="rgb(50, 49, 63)" stroke="none" stroke-width="1px">1.6k</text><text x="946.3636363636364" y="0" dx="0em" dy="0.95em" style="text-anchor: middle; visibility: inherit; font-family: &quot;Helvetica Neue&quot;, sans-serif; font-size: 12px; font-weight: 200;" fill="rgb(50, 49, 63)" stroke="none" stroke-width="1px">1.8k</text><text x="1041" y="0" dx="0em" dy="0.95em" style="text-anchor: middle; visibility: hidden; font-family: &quot;Helvetica Neue&quot;, sans-serif; font-size: 12px; font-weight: 200;" fill="rgb(50, 49, 63)" stroke="none" stroke-width="1px">2k</text></g><line x1="0" y1="0" x2="1041" y2="0" fill="rgb(0, 0, 0)" stroke="rgb(204, 204, 204)" stroke-width="1px"></line></g></g></g></g></svg>