<svg viewBox="0 0 1075 400" xmlns="http://www.w3.org/2000/svg">
    <g>
        <g>
            <g>
                <g>
                    <g>
                        <line x1="82" y1="378" x2="77" y2="378" style="visibility: inherit;" fill="rgb(0, 0, 0)" stroke="rgb(204, 204, 204)" stroke-width="1px"></line>
                        <line x1="82" y1="346.5" x2="77" y2="346.5" style="visibility: inherit;" fill="rgb(0, 0, 0)" stroke="rgb(204, 204, 204)" stroke-width="1px"></line>
                        <line x1="82" y1="315" x2="77" y2="315" style="visibility: inherit;" fill="rgb(0, 0, 0)" stroke="rgb(204, 204, 204)" stroke-width="1px"></line>
                        <line x1="82" y1="283.5" x2="77" y2="283.5" style="visibility: inherit;" fill="rgb(0, 0, 0)" stroke="rgb(204, 204, 204)" stroke-width="1px"></line>
                        <line x1="82" y1="252" x2="77" y2="252" style="visibility: inherit;" fill="rgb(0, 0, 0)" stroke="rgb(204, 204, 204)" stroke-width="1px"></line>
                        <line x1="82" y1="220.5" x2="77" y2="220.5" style="visibility: inherit;" fill="rgb(0, 0, 0)" stroke="rgb(204, 204, 204)" stroke-width="1px"></line>
                        <line x1="82" y1="189" x2="77" y2="189" style="visibility: inherit;" fill="rgb(0, 0, 0)" stroke="rgb(204, 204, 204)" stroke-width="1px"></line>
                        <line x1="82" y1="157.5" x2="77" y2="157.5" style="visibility: inherit;" fill="rgb(0, 0, 0)" stroke="rgb(204, 204, 204)" stroke-width="1px"></line>
                        <line x1="82" y1="126" x2="77" y2="126" style="visibility: inherit;" fill="rgb(0, 0, 0)" stroke="rgb(204, 204, 204)" stroke-width="1px"></line>
                        <line x1="82" y1="94.5" x2="77" y2="94.5" style="visibility: inherit;" fill="rgb(0, 0, 0)" stroke="rgb(204, 204, 204)" stroke-width="1px"></line>
                        <line x1="82" y1="63" x2="77" y2="63" style="visibility: inherit;" fill="rgb(0, 0, 0)" stroke="rgb(204, 204, 204)" stroke-width="1px"></line>
                        <line x1="82" y1="31.5" x2="77" y2="31.5" style="visibility: inherit;" fill="rgb(0, 0, 0)" stroke="rgb(204, 204, 204)" stroke-width="1px"></line>
                        <line x1="82" y1="0" x2="77" y2="0" style="visibility: inherit;" fill="rgb(0, 0, 0)" stroke="rgb(204, 204, 204)" stroke-width="1px"></line>
                    </g>
                    <g transform="translate(72, 0)">
                        <text x="0" y="378" dx="0em" dy="0.3em" style="text-anchor: end; visibility: hidden; font-family: &quot;Helvetica Neue&quot;, sans-serif; font-size: 12px; font-weight: 200;" fill="rgb(50, 49, 63)" stroke="none" stroke-width="1px">-500</text>
                        <text x="0" y="346.5" dx="0em" dy="0.3em" style="text-anchor: end; visibility: inherit; font-family: &quot;Helvetica Neue&quot;, sans-serif; font-size: 12px; font-weight: 200;" fill="rgb(50, 49, 63)" stroke="none" stroke-width="1px">0</text>
                        <text x="0" y="315" dx="0em" dy="0.3em" style="text-anchor: end; visibility: inherit; font-family: &quot;Helvetica Neue&quot;, sans-serif; font-size: 12px; font-weight: 200;" fill="rgb(50, 49, 63)" stroke="none" stroke-width="1px">500</text>
                        <text x="0" y="283.5" dx="0em" dy="0.3em" style="text-anchor: end; visibility: inherit; font-family: &quot;Helvetica Neue&quot;, sans-serif; font-size: 12px; font-weight: 200;" fill="rgb(50, 49, 63)" stroke="none" stroke-width="1px">1e+3</text>
                        <text x="0" y="252" dx="0em" dy="0.3em" style="text-anchor: end; visibility: inherit; font-family: &quot;Helvetica Neue&quot;, sans-serif; font-size: 12px; font-weight: 200;" fill="rgb(50, 49, 63)" stroke="none" stroke-width="1px">1.5e+3</text>
                        <text x="0" y="220.5" dx="0em" dy="0.3em" style="text-anchor: end; visibility: inherit; font-family: &quot;Helvetica Neue&quot;, sans-serif; font-size: 12px; font-weight: 200;" fill="rgb(50, 49, 63)" stroke="none" stroke-width="1px">2e+3</text>
                        <text x="0" y="189" dx="0em" dy="0.3em" style="text-anchor: end; visibility: inherit; font-family: &quot;Helvetica Neue&quot;, sans-serif; font-size: 12px; font-weight: 200;" fill="rgb(50, 49, 63)" stroke="none" stroke-width="1px">2.5e+3</text>
                        <text x="0" y="157.5" dx="0em" dy="0.3em" style="text-anchor: end; visibility: inherit; font-family: &quot;Helvetica Neue&quot;, sans-serif; font-size: 12px; font-weight: 200;" fill="rgb(50, 49, 63)" stroke="none" stroke-width="1px">3e+3</text>
                        <text x="0" y="126" dx="0em" dy="0.3em" style="text-anchor: end; visibility: inherit; font-family: &quot;Helvetica Neue&quot;, sans-serif; font-size: 12px; font-weight: 200;" fill="rgb(50, 49, 63)" stroke="none" stroke-width="1px">3.5e+3</text>
                        <text x="0" y="94.5" dx="0em" dy="0.3em" style="text-anchor: end; visibility: inherit; font-family: &quot;Helvetica Neue&quot;, sans-serif; font-size: 12px; font-weight: 200;" fill="rgb(50, 49, 63)" stroke="none" stroke-width="1px">4e+3</text>
                        <text x="0" y="63" dx="0em" dy="0.3em" style="text-anchor: end; visibility: inherit; font-family: &quot;Helvetica Neue&quot;, sans-serif; font-size: 12px; font-weight: 200;" fill="rgb(50, 49, 63)" stroke="none" stroke-width="1px">4.5e+3</text>
                        <text x="0" y="31.5" dx="0em" dy="0.3em" style="text-anchor: end; visibility: inherit; font-family: &quot;Helvetica Neue&quot;, sans-serif; font-size: 12px; font-weight: 200;" fill="rgb(50, 49, 63)" stroke="none" stroke-width="1px">5e+3</text>
                        <text x="0" y="0" dx="0em" dy="0.3em" style="text-anchor: end; visibility: hidden; font-family: &quot;Helvetica Neue&quot;, sans-serif; font-size: 12px; font-weight: 200;" fill="rgb(50, 49, 63)" stroke="none" stroke-width="1px">5.5e+3</text>
                    </g>
                    <line x1="82" y1="0" x2="82" y2="378" fill="rgb(0, 0, 0)" stroke="rgb(204, 204, 204)" stroke-width="1px"></line>
                </g>
            </g>
            <g transform="translate(82, 0)" clip-path="url(#clip_0)">
                <clipPath id="clip_0">
                    <rect width="993" height="378"></rect>
                </clipPath>
                <g>
                    <g>
                        <g>
                            <line x1="0" y1="0" x2="0" y2="378" fill="rgb(0, 0, 0)" stroke="rgb(60, 60, 60)" stroke-width="1px" opacity="0.25"></line>
                            <line x1="70.92857142857143" y1="0" x2="70.92857142857143" y2="378" fill="rgb(0, 0, 0)" stroke="rgb(60, 60, 60)" stroke-width="1px" opacity="0.25"></line>
                            <line x1="141.85714285714286" y1="0" x2="141.85714285714286" y2="378" fill="rgb(0, 0, 0)" stroke="rgb(60, 60, 60)" stroke-width="1px" opacity="0.25"></line>
                            <line x1="212.78571428571428" y1="0" x2="212.78571428571428" y2="378" fill="rgb(0, 0, 0)" stroke="rgb(60, 60, 60)" stroke-width="1px" opacity="0.25"></line>
                            <line x1="283.7142857142857" y1="0" x2="283.7142857142857" y2="378" fill="rgb(0, 0, 0)" stroke="rgb(60, 60, 60)" stroke-width="1px" opacity="0.25"></line>
                            <line x1="354.64285714285717" y1="0" x2="354.64285714285717" y2="378" fill="rgb(0, 0, 0)" stroke="rgb(60, 60, 60)" stroke-width="1px" opacity="0.25"></line>
                            <line x1="425.57142857142856" y1="0" x2="425.57142857142856" y2="378" fill="rgb(0, 0, 0)" stroke="rgb(60, 60, 60)" stroke-width="1px" opacity="0.25"></line>
                            <line x1="496.5" y1="0" x2="496.5" y2="378" fill="rgb(0, 0, 0)" stroke="rgb(60, 60, 60)" stroke-width="1px" opacity="0.25"></line>
                            <line x1="567.4285714285714" y1="0" x2="567.4285714285714" y2="378" fill="rgb(0, 0, 0)" stroke="rgb(60, 60, 60)" stroke-width="1px" opacity="0.25"></line>
                            <line x1="638.3571428571429" y1="0" x2="638.3571428571429" y2="378" fill="rgb(0, 0, 0)" stroke="rgb(60, 60, 60)" stroke-width="1px" opacity="0.25"></line>
                            <line x1="709.2857142857143" y1="0" x2="709.2857142857143" y2="378" fill="rgb(0, 0, 0)" stroke="rgb(60, 60, 60)" stroke-width="1px" opacity="0.25"></line>
                            <line x1="780.2142857142857" y1="0" x2="780.2142857142857" y2="378" fill="rgb(0, 0, 0)" stroke="rgb(60, 60, 60)" stroke-width="1px" opacity="0.25"></line>
                            <line x1="851.1428571428571" y1="0" x2="851.1428571428571" y2="378" fill="rgb(0, 0, 0)" stroke="rgb(60, 60, 60)" stroke-width="1px" opacity="0.25"></line>
                            <line x1="922.0714285714286" y1="0" x2="922.0714285714286" y2="378" fill="rgb(0, 0, 0)" stroke="rgb(60, 60, 60)" stroke-width="1px" opacity="0.25"></line>
                            <line x1="993" y1="0" x2="993" y2="378" fill="rgb(0, 0, 0)" stroke="rgb(60, 60, 60)" stroke-width="1px" opacity="0.25"></line>
                        </g>
                        <g>
                            <line x1="0" y1="378" x2="993" y2="378" fill="rgb(0, 0, 0)" stroke="rgb(60, 60, 60)" stroke-width="1px" opacity="0.25"></line>
                            <line x1="0" y1="346.5" x2="993" y2="346.5" fill="rgb(0, 0, 0)" stroke="rgb(60, 60, 60)" stroke-width="1px" opacity="0.25"></line>
                            <line x1="0" y1="315" x2="993" y2="315" fill="rgb(0, 0, 0)" stroke="rgb(60, 60, 60)" stroke-width="1px" opacity="0.25"></line>
                            <line x1="0" y1="283.5" x2="993" y2="283.5" fill="rgb(0, 0, 0)" stroke="rgb(60, 60, 60)" stroke-width="1px" opacity="0.25"></line>
                            <line x1="0" y1="252" x2="993" y2="252" fill="rgb(0, 0, 0)" stroke="rgb(60, 60, 60)" stroke-width="1px" opacity="0.25"></line>
                            <line x1="0" y1="220.5" x2="993" y2="220.5" fill="rgb(0, 0, 0)" stroke="rgb(60, 60, 60)" stroke-width="1px" opacity="0.25"></line>
                            <line x1="0" y1="189" x2="993" y2="189" fill="rgb(0, 0, 0)" stroke="rgb(60, 60, 60)" stroke-width="1px" opacity="0.25"></line>
                            <line x1="0" y1="157.5" x2="993" y2="157.5" fill="rgb(0, 0, 0)" stroke="rgb(60, 60, 60)" stroke-width="1px" opacity="0.25"></line>
                            <line x1="0" y1="126" x2="993" y2="126" fill="rgb(0, 0, 0)" stroke="rgb(60, 60, 60)" stroke-width="1px" opacity="0.25"></line>
                            <line x1="0" y1="94.5" x2="993" y2="94.5" fill="rgb(0, 0, 0)" stroke="rgb(60, 60, 60)" stroke-width="1px" opacity="0.25"></line>
                            <line x1="0" y1="63" x2="993" y2="63" fill="rgb(0, 0, 0)" stroke="rgb(60, 60, 60)" stroke-width="1px" opacity="0.25"></line>
                            <line x1="0" y1="31.5" x2="993" y2="31.5" fill="rgb(0, 0, 0)" stroke="rgb(60, 60, 60)" stroke-width="1px" opacity="0.25"></line>
                            <line x1="0" y1="0" x2="993" y2="0" fill="rgb(0, 0, 0)" stroke="rgb(60, 60, 60)" stroke-width="1px" opacity="0.25"></line>
                        </g>
                    </g>
                </g>
                <g>
                    <g>
                        <line x1="0" y1="346.5" x2="993" y2="346.5" fill="rgb(0, 0, 0)" stroke="rgb(153, 153, 153)" stroke-width="1.5px"></line>
                    </g>
                </g>
                <g>
                    <g>
                        <line x1="70.92857142857143" y1="0" x2="70.92857142857143" y2="378" fill="rgb(0, 0, 0)" stroke="rgb(153, 153, 153)" stroke-width="1.5px"></line>
                    </g>
                </g>
                <g>
                    <g>
                        <g>
                            <g>
                                <g>
                                    <path stroke="rgb(0, 119, 187)" stroke-width="2px" d="M72.34714285714286,56.579537109374996L73.76571428571428,77.00491845703124L75.18428571428572,136.97965722656252L76.60285714285713,166.1730205078125L78.02142857142857,187.43290576171873L79.44,217.02943212890625L80.85857142857144,218.34367272949217L82.27714285714285,239.03851904296874L83.69571428571429,247.57052783203125L85.11428571428571,244.11913220214842L86.53285714285715,251.55858471679687L87.95142857142856,241.8034207763672L89.36999999999999,249.11924963378905L90.78857142857143,249.58863500976562L92.20714285714286,262.355255859375L93.6257142857143,267.2261817626953L95.0442857142857,257.6622403564453L96.46285714285715,271.0583843994141L97.88142857142857,266.68130712890627L99.30000000000001,277.57381640625L100.71857142857142,274.4920535888672L102.13714285714286,283.8527061767578L103.55571428571429,283.8597352294922L104.97428571428571,279.0104578857422L106.39285714285714,267.5669370117188L107.81142857142856,274.72427380371096L109.23,289.49998095703126L110.64857142857143,283.49346313476565L112.06714285714285,284.13343762207035L113.48571428571428,285.77961254882814L114.90428571428572,286.10304125976563L116.32285714285715,291.0489949951172L117.74142857142857,283.51530395507814L119.16,287.99708258056637L120.57857142857142,291.6402198486328L121.99714285714286,292.74287365722654L123.41571428571429,291.7081532592773L124.83428571428573,280.7596922607422L126.25285714285714,293.0779649047852L127.67142857142856,291.28623706054685L129.09,295.59966833496094L131.92714285714285,297.52287561035155L133.34571428571428,296.47996490478516L134.7642857142857,292.3729793701172L136.18285714285716,291.47956677246094L137.60142857142856,292.94959240722653L139.02,295.5249558105469L140.43857142857144,295.43820776367187L141.85714285714286,298.0021970214844L143.2757142857143,291.6319833984375L144.6942857142857,292.4181529541016L146.11285714285714,302.11845336914064L147.53142857142856,286.3115595703125L148.95,291.62973010253904L150.36857142857144,275.05687719726564L151.78714285714287,303.2649733886719L153.20571428571427,302.440532409668L154.62428571428572,294.3738561401367L156.04285714285714,299.2659614868164L157.46142857142857,288.7421237182617L158.88,295.8692601928711L160.29857142857142,295.5480040283203L161.71714285714287,301.7045467529297L163.13571428571427,298.3581793212891L164.5542857142857,298.16771813964846L165.97285714285715,301.99749829101563L167.39142857142858,299.4003978881836L168.81,302.73812127685545L170.22857142857143,292.1879437866211L171.64714285714285,303.1351512451172L173.0657142857143,295.7917368164062L174.4842857142857,293.7475437011719L175.90285714285713,302.68480737304685L177.32142857142858,300.7275353393555L178.73999999999998,307.5203803710938L180.15857142857143,294.6475316162109L181.57714285714286,306.87521484375L182.99571428571429,305.3120619506836L184.4142857142857,296.8844353637695L185.83285714285714,306.2934838256836L187.2514285714286,302.94006811523434L188.67000000000002,304.8724962158203L190.0885714285714,297.00154522705077L191.50714285714287,304.49947192382814L192.9257142857143,303.5462854614258L194.3442857142857,303.08495965576174L195.76285714285714,301.6931995239258L197.18142857142857,304.1348455810547L198.60000000000002,300.4884321899414L200.01857142857142,303.04432727050784L201.43714285714285,301.83243090820315L202.8557142857143,308.8117650146484L204.27428571428572,294.5024747314453L205.69285714285715,309.5014812011719L207.11142857142858,304.7239978637695L208.53,306.1392561035156L209.94857142857143,294.9037575073242L211.36714285714285,308.1991723022461L212.78571428571428,303.148690246582L214.20428571428573,302.599632019043L215.62285714285713,305.38310229492185L217.04142857142858,298.69130181884765L218.46,311.9533439941406L219.8785714285714,313.4073427734375L221.29714285714286,308.5209706420899L222.71571428571428,306.4927582397461L224.1342857142857,308.48482946777347L225.55285714285714,306.2813291015625L226.97142857142856,301.4446563720703L228.39000000000001,305.3919232177734L229.80857142857144,300.6906058959961L231.22714285714284,309.3886510620117L232.6457142857143,308.5090927734375L234.06428571428572,308.1782158813477L235.48285714285714,308.58781201171877L236.90142857142857,301.79256372070313L238.32,313.3870823364258L239.73857142857145,309.1137182006836L241.15714285714284,307.71863580322264L242.57571428571427,300.1996911621094L243.99428571428572,308.81372222900393L245.41285714285715,313.2466243286133L246.83142857142857,305.22055352783207L248.25,310.95954052734373L249.66857142857145,321.5731909790039L251.08714285714282,309.5312893066406L252.50571428571428,306.80106372070316L255.34285714285713,307.5081602783203L256.76142857142855,306.45604797363285L258.18,306.5763532104492L259.59857142857146,303.47006176757816L261.01714285714286,310.93734979248046L262.4357142857143,307.26627703857423L263.8542857142857,300.5776565551758L265.2728571428571,310.309576171875L266.69142857142856,295.8469464111328L268.11,312.3199506225586L269.5285714285714,303.7002286376953L270.94714285714286,306.3189814453125L272.3657142857143,303.8391677856445L273.7842857142857,305.8746784057617L275.2028571428571,311.3762849121094L276.62142857142857,309.4243231201172L278.04,313.7595913696289L279.4585714285714,317.3389192199707L280.87714285714287,311.7524430541992L282.2957142857143,312.41661932373046L283.7142857142857,301.4400690307617L285.1328571428571,314.0656896972656L286.5514285714286,304.7278392333984L289.3885714285714,307.2353538208008L290.8071428571429,308.7820568847656L292.2257142857143,313.80576855468746L293.64428571428573,311.0567706298828L295.0628571428571,305.24229052734376L296.4814285714286,306.6429677124023L297.9,310.4171460571289L299.31857142857143,298.90632623291015L300.7371428571429,311.3593005981445L302.1557142857143,301.4106685180664L303.57428571428574,308.10363024902347L304.9928571428572,309.1445145263672L306.41142857142853,306.5539779052734L307.83,309.45382360839847L309.24857142857144,309.33244171142576L310.66714285714284,312.8359400024414L312.0857142857143,303.9472067871094L313.50428571428574,306.282744140625L314.92285714285714,308.62220745849606L316.34142857142854,302.07671740722657L317.76,312.8142222290039L319.17857142857144,301.8077138671875L320.59714285714284,312.69941564941405L322.0157142857143,306.9014930419922L323.43428571428575,308.63617712402345L324.85285714285715,311.6120542602539L326.27142857142854,308.19798413085937L327.69,313.77967877197267L329.1085714285714,316.4305083618164L330.52714285714285,308.97618255615237L331.9457142857143,312.4922393188477L333.3642857142857,312.9150130004883L334.78285714285715,303.4948557128906L336.20142857142855,307.4867847290039L337.62,307.4650823364258L339.0385714285714,304.2791795654297L340.45714285714286,316.10604144287106L341.8757142857143,309.9667060546875L343.2942857142857,310.9455016479492L344.71285714285716,313.05295239257816L346.1314285714286,309.3194064331055L347.54999999999995,316.9977275390625L350.38714285714286,316.31920669555666L351.80571428571426,315.0291544189453L353.2242857142857,304.3558569946289L354.64285714285717,311.44065380859377L356.0614285714286,314.34572900390623L357.47999999999996,315.44546044921873L358.8985714285714,300.3171624755859L360.31714285714287,312.4699870605469L363.1542857142857,314.8163121643066L364.5728571428572,312.9022891845703L365.99142857142857,310.8611376342773L367.40999999999997,320.2184564208984L368.8285714285714,304.6927670288086L371.6657142857143,313.03225744628907L373.0842857142857,312.3119333496094L374.5028571428572,318.0566766357422L375.9214285714286,309.3956301269531L377.34000000000003,320.35066452026365L378.75857142857143,313.2554567871094L380.1771428571428,311.48304730224606L381.5957142857143,314.2217900390625L383.01428571428573,310.61684729003906L384.43285714285713,294.7930845336914L385.8514285714286,316.8439362487793L387.27000000000004,321.2222439880371L388.6885714285714,316.5231434326172L391.5257142857143,318.5612341918945L392.94428571428574,315.3469691162109L394.36285714285714,319.14971740722655L395.7814285714286,307.4952211303711L397.20000000000005,311.8026038818359L398.6185714285714,308.51302642822264L400.03714285714284,313.95347479248045L401.4557142857143,321.668119720459L402.8742857142857,292.2450721435547L404.29285714285714,291.96756298828126L405.7114285714286,316.29621615600587L407.13,312.273846496582L408.54857142857145,315.80262130737304L409.96714285714285,313.9876241455078L411.3857142857143,311.2191732788086L412.8042857142857,313.67115142822263L414.22285714285715,316.5532245483398L415.6414285714286,316.29740625L417.06,316.8282477722168L418.47857142857146,317.1778681640625L419.89714285714285,307.4608103027344L421.31571428571425,317.6862459411621L422.7342857142857,313.8233565673828L424.15285714285716,319.3856597900391L425.57142857142856,317.37792123413084L426.99,319.36264233398435L428.40857142857146,329.1003509216309L429.82714285714286,322.24202380371094L431.24571428571426,316.9346890869141L432.6642857142857,313.13597827148436L434.08285714285716,314.9962816772461L435.50142857142856,315.9350428161621L436.92,319.0636038208008L438.33857142857147,312.23259503173824L439.7571428571428,315.1586381835937L441.17571428571426,312.72627832031253L442.5942857142857,314.1424709472656L444.0128571428571,319.5147032775879L445.43142857142857,315.62690267944333L446.85,318.4445761413574L448.2685714285714,319.12880905151366L451.10571428571427,319.39769146728514L452.5242857142857,313.8807617797852L453.9428571428571,318.9009435424805L455.3614285714286,314.29899810791017L456.78000000000003,323.9264182434082L458.1985714285714,311.8731212768555L459.6171428571429,321.6965723876953L461.0357142857143,318.1586940307617L462.4542857142857,317.3391383972168L463.87285714285713,320.7560001525879L465.2914285714286,315.0920390625L466.71,318.8243853149414L468.12857142857143,319.41320114135743L469.5471428571429,318.4896785888672L470.9657142857143,319.4523300476074L472.3842857142857,317.9658622741699L473.80285714285714,315.3296502685547L475.2214285714286,312.3741450805664L476.64,320.52668115234377L478.05857142857144,316.6633303527832L479.4771428571429,319.90458306884767L482.3142857142857,314.72546896362303L485.15142857142854,315.64403118896485L486.57,319.83647470092774L487.98857142857145,310.84207690429685L489.4071428571429,317.32301541137696L490.8257142857143,319.4950926818848L492.2442857142857,316.4766778564453L493.66285714285715,318.2807584533691L495.08142857142855,320.5557490539551L496.5,325.4165870361328L497.91857142857145,319.59512210083005L499.3371428571429,320.7213874511719L500.75571428571436,322.19968029785156L502.17428571428565,316.12692864990237L503.5928571428571,320.1103405151367L505.01142857142855,311.92245538330076L507.84857142857146,301.51066333007816L509.2671428571429,319.80030661010744L510.68571428571425,322.7034034423828L512.1042857142857,321.5712087707519L513.5228571428571,320.17963320922854L516.36,322.80228890991214L517.7785714285715,314.3970433959961L519.1971428571429,313.91251556396486L520.6157142857143,318.44996520996096L522.0342857142857,319.8615301208496L523.4528571428572,320.71044396972655L524.8714285714286,311.48120544433596L526.2900000000001,321.19227438354494L527.7085714285714,313.6297576904297L529.1271428571428,319.97761138916013L530.5457142857142,321.8811196289063L531.9642857142857,315.48718295288086L533.3828571428571,320.23797280883787L534.8014285714286,316.2129345703125L536.22,323.889731048584L537.6385714285715,318.57792819213864L539.0571428571428,316.95194064331054L540.4757142857143,321.9177376098633L541.8942857142857,317.43577056884766L543.3128571428572,318.28134869384763L544.7314285714286,316.46180072021485L546.1500000000001,315.4630869140625L547.5685714285714,319.5055074462891L548.9871428571428,315.0739588623047L550.4057142857142,319.2817294006348L551.8242857142857,317.93455838012693L553.2428571428571,321.2537074584961L554.6614285714286,317.6751448059082L556.08,322.11523937988284L557.4985714285714,320.2447769165039L558.9171428571428,324.7107920837402L560.3357142857143,321.64412365722654L561.7542857142857,322.3690024108887L563.1728571428572,322.54979095458987L564.5914285714287,317.8965830383301L566.01,318.81016955566406L567.4285714285714,305.27244470214845L568.8471428571429,318.52624081420896L570.2657142857142,317.10912533569336L571.6842857142857,314.84161752319335L573.1028571428571,320.9837541503906L574.5214285714286,317.73147720336914L575.9399999999999,323.3116376037598L577.3585714285714,310.1849566040039L578.7771428571428,324.23946295166013L580.1957142857143,318.4904284057617L581.6142857142858,320.9100413818359L583.0328571428572,317.44746771240233L584.4514285714286,319.79102618408206L585.87,317.9506871337891L587.2885714285715,315.20297927856444L588.7071428571429,305.74707879638675L590.1257142857143,313.79509423828125L591.5442857142857,315.7405672302246L592.9628571428572,321.6027414550781L594.3814285714285,317.96424920654295L597.2185714285714,310.77258618164063L598.6371428571429,323.585509185791L600.0557142857143,322.0782599487305L601.4742857142858,320.2666427307129L602.8928571428571,321.83779174804687L604.3114285714286,319.9658719482422L605.73,323.316109588623L607.1485714285715,315.93856311035154L608.5671428571429,318.4983533935547L609.9857142857144,314.8645792236328L611.4042857142857,316.5026138305664L612.8228571428571,321.3448544311523L614.2414285714285,318.4225738220215L615.66,322.02738006591795L617.0785714285714,307.6365481567383L618.4971428571429,316.89390673828126L619.9157142857143,321.1602610473633L621.3342857142857,298.91938842773436L622.7528571428571,313.4618486938476L624.1714285714286,316.7580283813477L625.59,321.59602770996094L627.0085714285715,320.8020677490234L628.4271428571429,322.6315863647461L629.8457142857143,321.84303469848635L632.6828571428571,318.6087745056152L634.1014285714285,315.46081439208984L635.52,322.49891876220704L636.9385714285714,316.1422364501953L638.3571428571429,317.9822082824707L639.7757142857142,316.36195779418944L641.1942857142857,321.66504739379883L642.6128571428571,321.6761773681641L644.0314285714286,318.616115020752L645.45,324.89956521606445L646.8685714285715,319.8068665466309L648.2871428571428,323.1672017211914L649.7057142857143,318.9045772705078L651.1242857142857,320.8534186706543L652.5428571428571,314.3634439086914L653.9614285714285,316.3435834350586L655.38,324.05530407714843L656.7985714285714,322.11313412475585L658.2171428571428,320.91836050415037L659.6357142857142,320.7975899963379L661.0542857142857,319.18611044311524L662.4728571428572,319.4927490234375L665.3100000000001,321.67546600341797L666.7285714285714,312.54079284667966L668.1471428571429,320.8372630004883L669.5657142857143,317.73727001953125L670.9842857142858,312.5328793945313L672.4028571428571,320.9195313720703L673.8214285714286,316.9787071838379L675.24,322.92707189941405L676.6585714285713,318.7014345703125L678.0771428571428,326.12816903686524L679.4957142857143,313.6849865112305L680.9142857142857,318.5263100280762L682.3328571428572,325.65838760375976L685.17,320.9786900024414L688.0071428571429,323.3423339538574L689.4257142857143,326.2029469299316L690.8442857142858,323.0332998046875L692.2628571428572,323.26890957641604L693.6814285714286,318.47450537109376L695.0999999999999,322.07752551269533L696.5185714285714,319.0910394287109L697.9371428571428,326.53231649780275L699.3557142857143,325.878451171875L700.7742857142857,320.3548346557617L702.1928571428572,323.36912741088867L703.6114285714285,321.04195724487306L705.03,325.1741866149902L706.4485714285714,320.8562583618164L707.8671428571429,316.50349630737304L709.2857142857143,321.1764686279297L710.7042857142858,318.46452896118166L712.1228571428572,322.7112649841309L713.5414285714286,321.4085734863281L714.9599999999999,325.96377648925784L716.3785714285714,315.4064026794434L717.7971428571428,323.8078010559082L719.2157142857143,322.12643087768555L720.6342857142857,322.9274641113281L722.0528571428571,321.5914038391113L723.4714285714285,320.73140615844727L724.89,323.2145766906738L726.3085714285714,319.68646325683596L727.7271428571429,324.2418835144043L729.1457142857143,324.0035167236328L730.5642857142858,321.36890625L731.9828571428571,317.2990789489746L733.4014285714286,317.3729859008789L734.8199999999999,324.7589034118652L736.2385714285714,313.1285031738281L737.6571428571428,324.43833169555666L739.0757142857143,318.41581777954104L740.4942857142856,318.5760997924805L741.9128571428571,322.94177792358397L743.3314285714285,321.17138525390624L744.75,326.9293733825684L746.1685714285715,317.0841468200684L747.5871428571429,324.95051239013674L749.0057142857144,322.2240743408203L750.4242857142857,321.1128380126953L751.8428571428572,322.6026261291504L753.2614285714286,321.3853406982422L754.6800000000001,321.0922315063477L756.0985714285714,323.1774569091797L757.5171428571429,325.02133932495116L758.9357142857142,317.88277294921875L760.3542857142857,323.4392026062012L761.7728571428571,324.04253988647463L763.1914285714286,316.12604232788084L764.61,319.8634065856934L766.0285714285715,324.2807586364746L767.4471428571429,321.65554010009765L768.8657142857143,323.45723281860353L770.2842857142857,322.603695098877L771.7028571428572,322.9594332275391L774.5400000000001,326.70763330078125L775.9585714285714,322.2964432067871L777.3771428571428,323.4744959106445L778.7957142857142,325.15580264282227L780.2142857142857,322.85750811767576L781.6328571428571,321.56973220825193L784.47,325.16824383544923L785.8885714285715,314.0932022094727L787.3071428571428,325.5884219970703L788.7257142857143,318.5522017822266L790.1442857142857,324.80322912597654L791.5628571428572,324.52511627197265L792.9814285714286,324.5703071594238L794.4000000000001,325.2690826721191L795.8185714285714,313.1445415649414L797.2371428571428,324.5139305419922L798.6557142857142,322.90247021484373L800.0742857142857,322.7847355041504L801.4928571428571,323.36394982910156L802.9114285714286,319.95952926635744L804.33,320.0429012145996L805.7485714285714,315.49090319824217L807.1671428571428,325.1469817199707L808.5857142857143,322.3612889099121L810.0042857142857,320.16912615966794L811.4228571428572,323.4066067199707L812.8414285714287,322.0075983581543L814.26,325.56668884277343L815.6785714285714,319.3194797973633L817.0971428571429,322.49123025512694L822.7714285714286,323.0789674987793L824.1899999999999,328.31019387817383L825.6085714285714,318.22787521362307L827.0271428571428,326.21613409423827L828.4457142857143,326.4584153137207L829.8642857142858,318.65228503417967L831.2828571428572,323.8684977722168L832.7014285714286,314.1392409667969L834.12,328.9581029663086L835.5385714285715,324.1795775756836L836.9571428571429,321.6483014831543L838.3757142857143,310.5725427246094L839.7942857142857,325.20738427734375L841.2128571428572,327.7110574951172L842.6314285714285,320.32509576416015L844.05,325.90371231079104L845.4685714285714,321.92926171875L846.8871428571429,321.3566553955078L848.3057142857143,321.7478848571777L849.7242857142858,315.46474420166015L851.1428571428571,322.4886308898926L852.5614285714286,319.973714263916L853.98,321.43256762695313L855.3985714285715,323.5483067321777L856.8171428571429,322.88759692382814L859.6542857142857,323.3259706420898L861.0728571428571,325.414268371582L862.4914285714285,319.26188809204103L863.91,325.1128439025879L865.3285714285714,315.8006967773438L866.7471428571429,328.8634972229004L868.1657142857143,320.0518048095703L869.5842857142857,316.77998648071286L871.0028571428571,320.365408996582L872.4214285714286,317.01658447265623L873.84,327.51599743652343L875.2585714285715,320.72052612304685L876.6771428571429,325.99178118896486L878.0957142857143,318.5748481750488L879.5142857142856,320.32217724609376L880.9328571428571,322.5333699645996L882.3514285714285,321.48094427490236L883.77,328.72728048706057L885.1885714285714,320.668350402832L886.6071428571429,326.4321082763672L888.0257142857142,321.39916424560545L889.4442857142857,312.70891333007813L890.8628571428571,324.4377472229004L892.2814285714286,323.73469583129884L893.7,324.49198013305664L895.1185714285715,317.42518853759765L896.5371428571428,316.24847204589844L897.9557142857143,321.0661148071289L899.3742857142857,322.0006981201172L900.7928571428571,321.7150255737305L902.2114285714285,320.9652432861328L903.63,329.75000381469727L905.0485714285714,324.4719196472168L906.4671428571428,326.5454536743164L907.8857142857142,309.97275842285154L910.7228571428572,320.9202119750977L912.1414285714286,321.5024313354492L913.5600000000001,325.6451889038086L914.9785714285714,320.430427734375L916.3971428571429,318.4343728637695L917.8157142857143,322.14530319213867L919.2342857142858,321.42875701904296L920.6528571428571,322.6103973083496L922.0714285714286,317.4964884338379L923.49,324.5078204956055L924.9085714285713,322.2118157958984L926.3271428571428,324.2427967529297" style="fill: none;" fill="none"></path>
                                </g>
                            </g>
                        </g>
                    </g>
                </g>
            </g>
            <g transform="translate(82, 378)" clip-path="url(#clip_1)">
                <clipPath id="clip_1">
                    <rect width="993" height="22"></rect>
                </clipPath>
                <g>
                    <g>
                        <line x1="0" y1="0" x2="0" y2="5" style="visibility: inherit;" fill="rgb(0, 0, 0)" stroke="rgb(204, 204, 204)" stroke-width="1px"></line>
                        <line x1="70.92857142857143" y1="0" x2="70.92857142857143" y2="5" style="visibility: inherit;" fill="rgb(0, 0, 0)" stroke="rgb(204, 204, 204)" stroke-width="1px"></line>
                        <line x1="141.85714285714286" y1="0" x2="141.85714285714286" y2="5" style="visibility: inherit;" fill="rgb(0, 0, 0)" stroke="rgb(204, 204, 204)" stroke-width="1px"></line>
                        <line x1="212.78571428571428" y1="0" x2="212.78571428571428" y2="5" style="visibility: inherit;" fill="rgb(0, 0, 0)" stroke="rgb(204, 204, 204)" stroke-width="1px"></line>
                        <line x1="283.7142857142857" y1="0" x2="283.7142857142857" y2="5" style="visibility: inherit;" fill="rgb(0, 0, 0)" stroke="rgb(204, 204, 204)" stroke-width="1px"></line>
                        <line x1="354.64285714285717" y1="0" x2="354.64285714285717" y2="5" style="visibility: inherit;" fill="rgb(0, 0, 0)" stroke="rgb(204, 204, 204)" stroke-width="1px"></line>
                        <line x1="425.57142857142856" y1="0" x2="425.57142857142856" y2="5" style="visibility: inherit;" fill="rgb(0, 0, 0)" stroke="rgb(204, 204, 204)" stroke-width="1px"></line>
                        <line x1="496.5" y1="0" x2="496.5" y2="5" style="visibility: inherit;" fill="rgb(0, 0, 0)" stroke="rgb(204, 204, 204)" stroke-width="1px"></line>
                        <line x1="567.4285714285714" y1="0" x2="567.4285714285714" y2="5" style="visibility: inherit;" fill="rgb(0, 0, 0)" stroke="rgb(204, 204, 204)" stroke-width="1px"></line>
                        <line x1="638.3571428571429" y1="0" x2="638.3571428571429" y2="5" style="visibility: inherit;" fill="rgb(0, 0, 0)" stroke="rgb(204, 204, 204)" stroke-width="1px"></line>
                        <line x1="709.2857142857143" y1="0" x2="709.2857142857143" y2="5" style="visibility: inherit;" fill="rgb(0, 0, 0)" stroke="rgb(204, 204, 204)" stroke-width="1px"></line>
                        <line x1="780.2142857142857" y1="0" x2="780.2142857142857" y2="5" style="visibility: inherit;" fill="rgb(0, 0, 0)" stroke="rgb(204, 204, 204)" stroke-width="1px"></line>
                        <line x1="851.1428571428571" y1="0" x2="851.1428571428571" y2="5" style="visibility: inherit;" fill="rgb(0, 0, 0)" stroke="rgb(204, 204, 204)" stroke-width="1px"></line>
                        <line x1="922.0714285714286" y1="0" x2="922.0714285714286" y2="5" style="visibility: inherit;" fill="rgb(0, 0, 0)" stroke="rgb(204, 204, 204)" stroke-width="1px"></line>
                        <line x1="993" y1="0" x2="993" y2="5" style="visibility: inherit;" fill="rgb(0, 0, 0)" stroke="rgb(204, 204, 204)" stroke-width="1px"></line>
                    </g>
                    <g transform="translate(0, 8)">
                        <text x="0" y="0" dx="0em" dy="0.95em" style="text-anchor: middle; visibility: hidden; font-family: &quot;Helvetica Neue&quot;, sans-serif; font-size: 12px; font-weight: 200;" fill="rgb(50, 49, 63)" stroke="none" stroke-width="1px">-50</text>
                        <text x="70.92857142857143" y="0" dx="0em" dy="0.95em" style="text-anchor: middle; visibility: inherit; font-family: &quot;Helvetica Neue&quot;, sans-serif; font-size: 12px; font-weight: 200;" fill="rgb(50, 49, 63)" stroke="none" stroke-width="1px">0</text>
                        <text x="141.85714285714286" y="0" dx="0em" dy="0.95em" style="text-anchor: middle; visibility: inherit; font-family: &quot;Helvetica Neue&quot;, sans-serif; font-size: 12px; font-weight: 200;" fill="rgb(50, 49, 63)" stroke="none" stroke-width="1px">50</text>
                        <text x="212.78571428571428" y="0" dx="0em" dy="0.95em" style="text-anchor: middle; visibility: inherit; font-family: &quot;Helvetica Neue&quot;, sans-serif; font-size: 12px; font-weight: 200;" fill="rgb(50, 49, 63)" stroke="none" stroke-width="1px">100</text>
                        <text x="283.7142857142857" y="0" dx="0em" dy="0.95em" style="text-anchor: middle; visibility: inherit; font-family: &quot;Helvetica Neue&quot;, sans-serif; font-size: 12px; font-weight: 200;" fill="rgb(50, 49, 63)" stroke="none" stroke-width="1px">150</text>
                        <text x="354.64285714285717" y="0" dx="0em" dy="0.95em" style="text-anchor: middle; visibility: inherit; font-family: &quot;Helvetica Neue&quot;, sans-serif; font-size: 12px; font-weight: 200;" fill="rgb(50, 49, 63)" stroke="none" stroke-width="1px">200</text>
                        <text x="425.57142857142856" y="0" dx="0em" dy="0.95em" style="text-anchor: middle; visibility: inherit; font-family: &quot;Helvetica Neue&quot;, sans-serif; font-size: 12px; font-weight: 200;" fill="rgb(50, 49, 63)" stroke="none" stroke-width="1px">250</text>
                        <text x="496.5" y="0" dx="0em" dy="0.95em" style="text-anchor: middle; visibility: inherit; font-family: &quot;Helvetica Neue&quot;, sans-serif; font-size: 12px; font-weight: 200;" fill="rgb(50, 49, 63)" stroke="none" stroke-width="1px">300</text>
                        <text x="567.4285714285714" y="0" dx="0em" dy="0.95em" style="text-anchor: middle; visibility: inherit; font-family: &quot;Helvetica Neue&quot;, sans-serif; font-size: 12px; font-weight: 200;" fill="rgb(50, 49, 63)" stroke="none" stroke-width="1px">350</text>
                        <text x="638.3571428571429" y="0" dx="0em" dy="0.95em" style="text-anchor: middle; visibility: inherit; font-family: &quot;Helvetica Neue&quot;, sans-serif; font-size: 12px; font-weight: 200;" fill="rgb(50, 49, 63)" stroke="none" stroke-width="1px">400</text>
                        <text x="709.2857142857143" y="0" dx="0em" dy="0.95em" style="text-anchor: middle; visibility: inherit; font-family: &quot;Helvetica Neue&quot;, sans-serif; font-size: 12px; font-weight: 200;" fill="rgb(50, 49, 63)" stroke="none" stroke-width="1px">450</text>
                        <text x="780.2142857142857" y="0" dx="0em" dy="0.95em" style="text-anchor: middle; visibility: inherit; font-family: &quot;Helvetica Neue&quot;, sans-serif; font-size: 12px; font-weight: 200;" fill="rgb(50, 49, 63)" stroke="none" stroke-width="1px">500</text>
                        <text x="851.1428571428571" y="0" dx="0em" dy="0.95em" style="text-anchor: middle; visibility: inherit; font-family: &quot;Helvetica Neue&quot;, sans-serif; font-size: 12px; font-weight: 200;" fill="rgb(50, 49, 63)" stroke="none" stroke-width="1px">550</text>
                        <text x="922.0714285714286" y="0" dx="0em" dy="0.95em" style="text-anchor: middle; visibility: inherit; font-family: &quot;Helvetica Neue&quot;, sans-serif; font-size: 12px; font-weight: 200;" fill="rgb(50, 49, 63)" stroke="none" stroke-width="1px">600</text>
                        <text x="993" y="0" dx="0em" dy="0.95em" style="text-anchor: middle; visibility: hidden; font-family: &quot;Helvetica Neue&quot;, sans-serif; font-size: 12px; font-weight: 200;" fill="rgb(50, 49, 63)" stroke="none" stroke-width="1px">650</text>
                    </g>
                    <line x1="0" y1="0" x2="993" y2="0" fill="rgb(0, 0, 0)" stroke="rgb(204, 204, 204)" stroke-width="1px"></line>
                </g>
            </g>
        </g>
    </g>
</svg>