<svg viewBox="0 0 1075 400" xmlns="http://www.w3.org/2000/svg"><g><g><g><g><g><line x1="58" y1="378" x2="53" y2="378" style="visibility: inherit;" fill="rgb(0, 0, 0)" stroke="rgb(204, 204, 204)" stroke-width="1px"></line><line x1="58" y1="343.6363636363636" x2="53" y2="343.6363636363636" style="visibility: inherit;" fill="rgb(0, 0, 0)" stroke="rgb(204, 204, 204)" stroke-width="1px"></line><line x1="58" y1="309.27272727272725" x2="53" y2="309.27272727272725" style="visibility: inherit;" fill="rgb(0, 0, 0)" stroke="rgb(204, 204, 204)" stroke-width="1px"></line><line x1="58" y1="274.90909090909093" x2="53" y2="274.90909090909093" style="visibility: inherit;" fill="rgb(0, 0, 0)" stroke="rgb(204, 204, 204)" stroke-width="1px"></line><line x1="58" y1="240.54545454545453" x2="53" y2="240.54545454545453" style="visibility: inherit;" fill="rgb(0, 0, 0)" stroke="rgb(204, 204, 204)" stroke-width="1px"></line><line x1="58" y1="206.18181818181816" x2="53" y2="206.18181818181816" style="visibility: inherit;" fill="rgb(0, 0, 0)" stroke="rgb(204, 204, 204)" stroke-width="1px"></line><line x1="58" y1="171.81818181818184" x2="53" y2="171.81818181818184" style="visibility: inherit;" fill="rgb(0, 0, 0)" stroke="rgb(204, 204, 204)" stroke-width="1px"></line><line x1="58" y1="137.45454545454547" x2="53" y2="137.45454545454547" style="visibility: inherit;" fill="rgb(0, 0, 0)" stroke="rgb(204, 204, 204)" stroke-width="1px"></line><line x1="58" y1="103.09090909090907" x2="53" y2="103.09090909090907" style="visibility: inherit;" fill="rgb(0, 0, 0)" stroke="rgb(204, 204, 204)" stroke-width="1px"></line><line x1="58" y1="68.7272727272728" x2="53" y2="68.7272727272728" style="visibility: inherit;" fill="rgb(0, 0, 0)" stroke="rgb(204, 204, 204)" stroke-width="1px"></line><line x1="58" y1="34.363636363636374" x2="53" y2="34.363636363636374" style="visibility: inherit;" fill="rgb(0, 0, 0)" stroke="rgb(204, 204, 204)" stroke-width="1px"></line><line x1="58" y1="0" x2="53" y2="0" style="visibility: inherit;" fill="rgb(0, 0, 0)" stroke="rgb(204, 204, 204)" stroke-width="1px"></line></g><g transform="translate(48, 0)"><text x="0" y="378" dx="0em" dy="0.3em" style="text-anchor: end; visibility: hidden; font-family: &quot;Helvetica Neue&quot;, sans-serif; font-size: 12px; font-weight: 200;" fill="rgb(50, 49, 63)" stroke="none" stroke-width="1px">0.09</text><text x="0" y="343.6363636363636" dx="0em" dy="0.3em" style="text-anchor: end; visibility: inherit; font-family: &quot;Helvetica Neue&quot;, sans-serif; font-size: 12px; font-weight: 200;" fill="rgb(50, 49, 63)" stroke="none" stroke-width="1px">0.1</text><text x="0" y="309.27272727272725" dx="0em" dy="0.3em" style="text-anchor: end; visibility: inherit; font-family: &quot;Helvetica Neue&quot;, sans-serif; font-size: 12px; font-weight: 200;" fill="rgb(50, 49, 63)" stroke="none" stroke-width="1px">0.11</text><text x="0" y="274.90909090909093" dx="0em" dy="0.3em" style="text-anchor: end; visibility: inherit; font-family: &quot;Helvetica Neue&quot;, sans-serif; font-size: 12px; font-weight: 200;" fill="rgb(50, 49, 63)" stroke="none" stroke-width="1px">0.12</text><text x="0" y="240.54545454545453" dx="0em" dy="0.3em" style="text-anchor: end; visibility: inherit; font-family: &quot;Helvetica Neue&quot;, sans-serif; font-size: 12px; font-weight: 200;" fill="rgb(50, 49, 63)" stroke="none" stroke-width="1px">0.13</text><text x="0" y="206.18181818181816" dx="0em" dy="0.3em" style="text-anchor: end; visibility: inherit; font-family: &quot;Helvetica Neue&quot;, sans-serif; font-size: 12px; font-weight: 200;" fill="rgb(50, 49, 63)" stroke="none" stroke-width="1px">0.14</text><text x="0" y="171.81818181818184" dx="0em" dy="0.3em" style="text-anchor: end; visibility: inherit; font-family: &quot;Helvetica Neue&quot;, sans-serif; font-size: 12px; font-weight: 200;" fill="rgb(50, 49, 63)" stroke="none" stroke-width="1px">0.15</text><text x="0" y="137.45454545454547" dx="0em" dy="0.3em" style="text-anchor: end; visibility: inherit; font-family: &quot;Helvetica Neue&quot;, sans-serif; font-size: 12px; font-weight: 200;" fill="rgb(50, 49, 63)" stroke="none" stroke-width="1px">0.16</text><text x="0" y="103.09090909090907" dx="0em" dy="0.3em" style="text-anchor: end; visibility: inherit; font-family: &quot;Helvetica Neue&quot;, sans-serif; font-size: 12px; font-weight: 200;" fill="rgb(50, 49, 63)" stroke="none" stroke-width="1px">0.17</text><text x="0" y="68.7272727272728" dx="0em" dy="0.3em" style="text-anchor: end; visibility: inherit; font-family: &quot;Helvetica Neue&quot;, sans-serif; font-size: 12px; font-weight: 200;" fill="rgb(50, 49, 63)" stroke="none" stroke-width="1px">0.18</text><text x="0" y="34.363636363636374" dx="0em" dy="0.3em" style="text-anchor: end; visibility: inherit; font-family: &quot;Helvetica Neue&quot;, sans-serif; font-size: 12px; font-weight: 200;" fill="rgb(50, 49, 63)" stroke="none" stroke-width="1px">0.19</text><text x="0" y="0" dx="0em" dy="0.3em" style="text-anchor: end; visibility: hidden; font-family: &quot;Helvetica Neue&quot;, sans-serif; font-size: 12px; font-weight: 200;" fill="rgb(50, 49, 63)" stroke="none" stroke-width="1px">0.2</text></g><line x1="58" y1="0" x2="58" y2="378" fill="rgb(0, 0, 0)" stroke="rgb(204, 204, 204)" stroke-width="1px"></line></g></g><g transform="translate(58, 0)" clip-path="url(#clip_0)"><clipPath id="clip_0"><rect width="1017" height="378"></rect></clipPath><g><g><g><line x1="0" y1="0" x2="0" y2="378" fill="rgb(0, 0, 0)" stroke="rgb(60, 60, 60)" stroke-width="1px" opacity="0.25"></line><line x1="92.45454545454545" y1="0" x2="92.45454545454545" y2="378" fill="rgb(0, 0, 0)" stroke="rgb(60, 60, 60)" stroke-width="1px" opacity="0.25"></line><line x1="184.9090909090909" y1="0" x2="184.9090909090909" y2="378" fill="rgb(0, 0, 0)" stroke="rgb(60, 60, 60)" stroke-width="1px" opacity="0.25"></line><line x1="277.3636363636363" y1="0" x2="277.3636363636363" y2="378" fill="rgb(0, 0, 0)" stroke="rgb(60, 60, 60)" stroke-width="1px" opacity="0.25"></line><line x1="369.8181818181818" y1="0" x2="369.8181818181818" y2="378" fill="rgb(0, 0, 0)" stroke="rgb(60, 60, 60)" stroke-width="1px" opacity="0.25"></line><line x1="462.27272727272725" y1="0" x2="462.27272727272725" y2="378" fill="rgb(0, 0, 0)" stroke="rgb(60, 60, 60)" stroke-width="1px" opacity="0.25"></line><line x1="554.7272727272726" y1="0" x2="554.7272727272726" y2="378" fill="rgb(0, 0, 0)" stroke="rgb(60, 60, 60)" stroke-width="1px" opacity="0.25"></line><line x1="647.1818181818181" y1="0" x2="647.1818181818181" y2="378" fill="rgb(0, 0, 0)" stroke="rgb(60, 60, 60)" stroke-width="1px" opacity="0.25"></line><line x1="739.6363636363636" y1="0" x2="739.6363636363636" y2="378" fill="rgb(0, 0, 0)" stroke="rgb(60, 60, 60)" stroke-width="1px" opacity="0.25"></line><line x1="832.0909090909091" y1="0" x2="832.0909090909091" y2="378" fill="rgb(0, 0, 0)" stroke="rgb(60, 60, 60)" stroke-width="1px" opacity="0.25"></line><line x1="924.5454545454545" y1="0" x2="924.5454545454545" y2="378" fill="rgb(0, 0, 0)" stroke="rgb(60, 60, 60)" stroke-width="1px" opacity="0.25"></line><line x1="1017" y1="0" x2="1017" y2="378" fill="rgb(0, 0, 0)" stroke="rgb(60, 60, 60)" stroke-width="1px" opacity="0.25"></line></g><g><line x1="0" y1="378" x2="1017" y2="378" fill="rgb(0, 0, 0)" stroke="rgb(60, 60, 60)" stroke-width="1px" opacity="0.25"></line><line x1="0" y1="343.6363636363636" x2="1017" y2="343.6363636363636" fill="rgb(0, 0, 0)" stroke="rgb(60, 60, 60)" stroke-width="1px" opacity="0.25"></line><line x1="0" y1="309.27272727272725" x2="1017" y2="309.27272727272725" fill="rgb(0, 0, 0)" stroke="rgb(60, 60, 60)" stroke-width="1px" opacity="0.25"></line><line x1="0" y1="274.90909090909093" x2="1017" y2="274.90909090909093" fill="rgb(0, 0, 0)" stroke="rgb(60, 60, 60)" stroke-width="1px" opacity="0.25"></line><line x1="0" y1="240.54545454545453" x2="1017" y2="240.54545454545453" fill="rgb(0, 0, 0)" stroke="rgb(60, 60, 60)" stroke-width="1px" opacity="0.25"></line><line x1="0" y1="206.18181818181816" x2="1017" y2="206.18181818181816" fill="rgb(0, 0, 0)" stroke="rgb(60, 60, 60)" stroke-width="1px" opacity="0.25"></line><line x1="0" y1="171.81818181818184" x2="1017" y2="171.81818181818184" fill="rgb(0, 0, 0)" stroke="rgb(60, 60, 60)" stroke-width="1px" opacity="0.25"></line><line x1="0" y1="137.45454545454547" x2="1017" y2="137.45454545454547" fill="rgb(0, 0, 0)" stroke="rgb(60, 60, 60)" stroke-width="1px" opacity="0.25"></line><line x1="0" y1="103.09090909090907" x2="1017" y2="103.09090909090907" fill="rgb(0, 0, 0)" stroke="rgb(60, 60, 60)" stroke-width="1px" opacity="0.25"></line><line x1="0" y1="68.7272727272728" x2="1017" y2="68.7272727272728" fill="rgb(0, 0, 0)" stroke="rgb(60, 60, 60)" stroke-width="1px" opacity="0.25"></line><line x1="0" y1="34.363636363636374" x2="1017" y2="34.363636363636374" fill="rgb(0, 0, 0)" stroke="rgb(60, 60, 60)" stroke-width="1px" opacity="0.25"></line><line x1="0" y1="0" x2="1017" y2="0" fill="rgb(0, 0, 0)" stroke="rgb(60, 60, 60)" stroke-width="1px" opacity="0.25"></line></g></g></g><g><g><line x1="0" y1="687.2727272727273" x2="1017" y2="687.2727272727273" fill="rgb(0, 0, 0)" stroke="rgb(153, 153, 153)" stroke-width="1.5px"></line></g></g><g><g><line x1="92.45454545454545" y1="0" x2="92.45454545454545" y2="378" fill="rgb(0, 0, 0)" stroke="rgb(153, 153, 153)" stroke-width="1.5px"></line></g></g><g><g><g><g><g><path stroke="rgb(0, 119, 187)" stroke-width="2px" d="M94.30363636363636,186.37254189361227L95.22818181818182,193.01140696487644L95.69045454545454,160.42437988442265L97.53954545454545,127.59250390139181L98.00181818181818,159.20825707194984L98.92636363636363,173.29553185141583L99.38863636363637,148.9895037486092L99.85090909090908,154.59115652773323L100.31318181818182,173.89208403394244L100.77545454545455,186.18906682672016L101.23772727272727,160.04196231988576L101.7,177.98395741424898L102.16227272727272,234.6082137871441L104.01136363636364,229.02178638082628L104.47363636363636,185.40353474937285L108.17181818181818,190.99180371131538L108.6340909090909,143.1420412313861L109.55863636363637,145.05489408666747L110.94545454545454,156.99701642524917L111.40772727272727,172.72972935041923L112.33227272727274,181.02484176003753L112.79454545454546,165.38387127015167L113.25681818181818,190.5331159916413L113.71909090909091,220.40333646334133L114.64363636363636,235.043168679107L115.56818181818181,234.09169452918636L116.03045454545455,237.4492018302326L117.41727272727272,234.9576925110599L117.87954545454545,226.34329352500245L118.34181818181818,198.54811527012396L118.80409090909092,197.3283683256006L119.26636363636364,162.8076889402468L120.65318181818182,133.72182211460196L121.11545454545455,191.1866046902701L122.03999999999999,225.64087391114327L122.96454545454546,197.23714253127906L123.42681818181819,217.03715559307122L123.8890909090909,197.5267327413768L124.35136363636363,234.7057223413774L125.73818181818183,221.96317023523682L126.20045454545453,207.9740381190246L126.66272727272727,175.62646116217113L127.125,123.49916485852805L128.04954545454547,154.41416681726366L128.97409090909093,196.2827437780917L129.4363636363636,179.84509193951234L131.74772727272727,193.51957841653285L132.21,205.8710395660385L132.67227272727274,214.00021085441347L133.13454545454547,160.2297963345596L133.5968181818182,182.05556718929012L134.05909090909088,211.9801873363247L136.37045454545455,190.77791865501754L140.06863636363636,204.63044670180852L140.99318181818182,178.89833479387664L141.45545454545456,174.83740793677413L141.9177272727273,127.35983353155035L145.15363636363637,82.83489231318663L146.54045454545457,123.87309787737286L147.465,137.036222728132L147.9272727272727,159.8575184579567L148.38954545454544,184.05299637639908L150.23863636363637,163.92779222031498L150.7009090909091,178.88857875081675L151.16318181818184,120.60831044583995L152.54999999999998,102.12928004653025L153.01227272727272,97.07402893819517L154.39909090909092,203.48955584553119L156.24818181818182,217.97265267527084L157.17272727272726,210.70346271867945L158.09727272727272,176.57748701064668L158.55954545454546,158.32138663030625L159.0218181818182,156.75694633639213L159.48409090909092,186.4632584941821L159.94636363636366,158.03722221860454L160.40863636363636,181.29579008237923L161.3331818181818,173.8984159051183L162.25772727272727,180.93123950528468L163.64454545454547,171.87677000741581L164.1068181818182,211.83267114519236L164.5690909090909,213.135700387061L165.49363636363637,199.84140986666372L165.95590909090907,183.16425181471126L166.4181818181818,227.81416644154402L167.34272727272727,212.8234629221843L167.805,206.30996223075252L168.72954545454547,164.03119888826598L169.19181818181818,170.17169412491992L170.11636363636364,216.9243262690311L170.57863636363635,163.73722474847094L171.96545454545455,135.74310940602288L173.81454545454545,173.46532109817994L174.2768181818182,142.58493241280456L174.73909090909092,191.26223361639083L175.20136363636362,143.85233306756177L176.1259090909091,198.1488857283246L176.58818181818182,179.09000956879186L177.5127272727273,231.4276061938716L178.43727272727273,202.71163653976075L178.89954545454546,221.86914803120754L179.36181818181817,171.8078826648896L179.8240909090909,173.34202369024513L180.74863636363636,144.58091805180194L181.2109090909091,123.2310057162172L184.44681818181817,158.76239337307857L186.2959090909091,169.98643095688885L188.145,213.73587337914677L188.60727272727271,175.8055303343964L189.06954545454545,144.55910149670277L190.91863636363635,176.47674945160628L191.38090909090909,177.24232282357525L191.84318181818182,216.10575692615083L192.30545454545455,227.896427232771L193.69227272727272,197.6345443024547L194.15454545454546,200.0376117242327L195.54136363636363,227.42205574372935L196.00363636363636,200.57758737523707L196.92818181818183,217.71994383666348L197.39045454545456,214.31859813325391L197.85272727272726,264.34556703357293L190.45636363636365,266.6511618584245L190.91863636363635,242.82194615704552L191.38090909090909,250.77690443902134L191.84318181818182,239.81922974185412L198.315,178.45926417543612L198.77727272727273,160.30315253408133L200.1640909090909,181.00625496885186L200.62636363636364,153.58768294052155L201.5509090909091,174.53789717921057L203.4,188.39345537351088L203.8622727272727,220.41807002912412L204.78681818181818,216.3862005894807L205.71136363636364,214.60074056430136L206.17363636363638,150.7647026677989L208.48499999999999,170.3717082419216L209.87181818181818,174.02181869452875L210.33409090909092,209.2268197334693L210.79636363636365,239.87520677699686L211.25863636363636,187.6619263190543L212.18318181818182,208.1020882166715L214.03227272727273,187.5667963180228L214.9568181818182,167.89738284070992L215.88136363636363,177.9100031482722L216.34363636363636,192.30246502216835L216.8059090909091,222.11809829073496L218.655,215.2375901109364L219.11727272727273,245.84555442783102L220.0418181818182,210.7066229322723L220.96636363636364,202.37015124196833L221.89090909090908,178.91785276823978L224.20227272727274,203.99659142810162L225.12681818181818,201.70646958193913L225.5890909090909,208.62570969573972L226.97590909090908,215.88681865358103L227.90045454545455,128.7843184334913L228.36272727272728,172.460239081446L228.82500000000002,131.97870562496516L229.74954545454545,179.34698909534657L230.21181818181816,195.04972674096183L230.6740909090909,208.13113038869886L232.52318181818183,197.459282266256L232.98545454545456,213.24571891582687L233.91,187.13689717570415L235.29681818181817,170.48470434390097L237.1459090909091,166.8328930384834L237.60818181818183,178.37217270198795L238.07045454545457,174.7558646025965L238.53272727272727,140.5537332342419L239.4572727272727,184.5325811435411L240.8440909090909,189.1929171574437L241.30636363636364,158.16174240012364L241.76863636363638,203.30443855962605L243.15545454545455,225.23677537942794L243.61772727272725,207.97828865655643L244.54227272727272,186.93339011815038L247.31590909090912,227.6144217573595L248.24045454545453,229.1376492454405L248.70272727272726,186.40111238204213L249.165,219.48915974382405L249.62727272727273,233.217937326931L250.08954545454546,205.45305537860685L251.01409090909092,203.688523576743L251.47636363636366,223.3414274923884L253.78772727272727,217.01208965996025L254.25,198.4180565461301L255.17454545454547,180.74663973739263L256.09909090909093,181.22956043254015L256.56136363636364,159.14495532267605L257.0236363636364,172.47703228760122L257.94818181818187,180.31776576586847L258.41045454545457,156.06360065006731L258.8727272727272,145.01636447565053L259.335,165.31240554431312L260.25954545454545,170.461602844743L260.72181818181815,163.34328427192457L261.6463636363636,164.31472331667257L262.1086363636364,154.20104155444412L263.0331818181818,192.66250958471753L263.95772727272725,165.33480946298175L264.8822727272727,193.107787232417L265.3445454545455,183.48312629726797L265.8068181818182,199.6534187295978L266.73136363636365,229.18338444931078L267.1936363636364,216.07767927545336L268.58045454545453,167.99270809069455L269.04272727272723,111.61403577117875L269.505,137.74207492659113L269.9672727272727,165.22460238493892L270.89181818181817,171.95742556178115L271.3540909090909,164.03331244856602L271.81636363636363,191.60580882894743L272.27863636363634,206.0046845046744L274.59000000000003,130.11016364015623L276.4390909090909,173.0874019895317L276.90136363636367,199.16660125893642L277.8259090909091,183.21481159289596L279.21272727272725,185.52645529430512L282.44863636363635,188.50235775185467L282.9109090909091,201.71566336035795L284.76000000000005,143.22524799838968L285.22227272727275,227.0608516786794L285.68454545454546,225.7631652940257L286.60909090909087,206.18589754147087L287.53363636363633,203.09891019499867L288.4581818181818,173.20731829329094L289.38272727272727,222.32127948130332L293.54318181818184,205.84863437239525L294.00545454545454,167.76711463021476L294.4677272727273,155.3152144767803L294.93,189.10958600584797L295.8545454545454,236.13590820159996L296.3168181818182,257.12177932196926L297.70363636363635,217.0190226052429L299.0904545454545,181.5725558733749L301.8640909090909,179.54785962047296L302.3263636363637,175.29385424232655L302.7886363636364,164.1635768751328L303.2509090909091,180.24221392404093L303.71318181818185,205.80756149034158L304.63772727272726,168.63535682436827L305.09999999999997,161.15863490150576L305.5622727272727,174.03024429002036L306.4868181818182,129.50224994155758L306.9490909090909,142.37774347384573L307.4113636363636,119.47440815314263L308.33590909090907,144.0232707564347L309.26045454545454,164.34141555996072L309.7227272727273,188.9473145632769L311.5718181818182,173.55999320050307L313.42090909090905,193.46862115768008L314.8077272727273,170.8355191086538L315.27,180.10506193249276L316.19454545454545,177.464846049925L316.65681818181815,209.9256663662186L317.5813636363636,207.29315976967544L318.5059090909091,207.69458323574688L319.8927272727273,208.62999290142432L323.12863636363636,187.34880711222445L324.51545454545453,178.16505525406507L324.97772727272724,185.70132725502108L326.36454545454546,138.20124574342407L326.82681818181817,156.4051339985183L327.28909090909093,181.04079210527257L328.2136363636364,190.1496279897704L328.6759090909091,183.9590332686173L329.1381818181818,201.20839586892959L329.60045454545457,254.40317303561716L330.52500000000003,220.73376571961913L332.8363636363636,161.8699744582801L333.2986363636363,188.5263969228859L336.0722727272727,189.96725240072422L336.9968181818182,168.86891851963173L337.45909090909095,106.01984862390287L337.92136363636365,140.88026159618897L338.38363636363636,185.868421386459L338.8459090909091,188.73961272557025L339.3081818181818,159.21383953631678L339.7704545454546,134.87848870426325L340.2327272727273,69.06706603937204L340.695,97.36263149342835L341.1572727272727,160.22363184093393L342.08181818181816,142.74882972250668L343.46863636363634,152.15736407589543L343.9309090909091,199.53872106512458L344.3931818181818,213.50781375843877L345.31772727272727,221.86446528080626L345.78000000000003,186.70397649292445L347.1668181818182,182.42719368009523L348.09136363636367,196.26078778752213L349.01590909090913,207.95027719667488L349.47818181818184,193.53046883997067L350.86499999999995,179.01793567073574L351.3272727272727,188.1208610345313L351.7895454545454,203.61899567681704L352.7140909090909,178.58475056746857L353.17636363636365,181.8404168010038L353.63863636363635,174.15002180946473L354.5631818181818,160.0993940894922L355.4877272727273,164.18232424864073L355.95,203.50570249660333L357.3368181818182,232.23842690702935L357.7990909090909,210.0676954082377L358.2613636363637,110.68681775011254L358.72363636363633,132.90825666257138L359.1859090909091,173.95190110745878L359.6481818181818,210.44248383715552L360.1104545454545,207.17791432479447L360.57272727272726,164.94322348601912L361.49727272727273,185.2272554195145L361.95954545454543,194.5627161996929L363.80863636363637,206.5445846021774L364.2709090909091,221.10672759308946L364.73318181818183,182.3023287167548L365.6577272727273,178.1716858734564L366.12,167.62432983403116L366.58227272727277,164.58640146240953L367.04454545454547,150.04789036395275L367.9690909090909,193.05164199563777L368.89363636363635,187.54657974916265L369.8181818181818,189.82980935240502L370.7427272727273,153.58230114693635L371.66727272727275,212.50606910091489L372.5918181818182,196.60495418457572L373.0540909090909,221.31687463393652L373.5163636363636,198.54233184282307L374.90318181818185,166.22269519191852L376.7522727272728,135.6982788650776L377.21454545454543,177.02657763142173L378.1390909090909,179.15253339234633L378.6013636363636,210.09724384993862L379.52590909090907,196.06155717966556L381.375,233.14707487852664L381.8372727272727,223.69705381737208L382.76181818181817,191.94345778238053L383.68636363636364,161.26360806883685L385.53545454545457,127.3475275709815L386.9222727272727,113.08764269688163L387.38454545454545,147.61533682894856L388.3090909090909,113.8196014484891L388.7713636363636,143.70177257241124L389.2336363636364,200.97675821455738L389.6959090909091,205.35185941457567L390.1581818181818,213.47410946130645L390.62045454545455,186.81539372933935L391.08272727272725,177.88552125999237L391.545,194.60291338389456L392.0072727272727,157.66525097146834L393.85636363636365,169.50595256524048L394.3186363636364,174.63135095358123L395.24318181818177,169.32350274168496L396.16772727272723,187.55838831916375L397.55454545454546,175.99221620083085L398.4790909090909,220.7269876785292L398.94136363636363,176.53837902686462L399.40363636363634,183.89621755034065L400.79045454545457,210.97035116827146L401.25272727272727,179.46838488125374L401.71500000000003,198.2750805342085L402.17727272727274,142.87350729033497L402.6395454545455,128.63284725718972L403.5640909090909,108.54156191051334L404.02636363636367,177.981705375099L404.4886363636363,231.97278079029763L405.4131818181818,236.5570803680232L405.87545454545455,256.9481635428575L406.33772727272725,221.8099645685509L406.8,229.12625765272116L407.2622727272727,208.8998242346534L407.7245454545454,217.43640449593818L408.6490909090909,198.34630058920047L409.11136363636365,188.22967251532305L410.4981818181818,193.77436100587158L412.34727272727275,192.05600916829644L413.73409090909087,215.1387144946815L414.1963636363636,168.9802917137004L414.65863636363633,120.28628901588274L415.1209090909091,126.30310899312977L415.5831818181818,87.45088672055584L416.04545454545456,138.3435904381229L416.50772727272727,149.7366790195654L416.96999999999997,133.71006039285587L417.89454545454544,157.58539162036678L418.3568181818182,143.2509656285838L418.8190909090909,115.51064390969032L420.66818181818184,152.81183154439353L422.5172727272727,192.48413117452623L422.9795454545454,180.6290763231656L423.9040909090909,178.1725357756721L424.36636363636364,198.04188881485453L424.82863636363635,136.78794246145634L425.29090909090905,160.3086618908503L425.7531818181818,163.26734193677711L426.2154545454545,155.78525667497513L427.60227272727275,155.1775901405372L428.06454545454545,165.0286719028079L428.5268181818182,180.3436158844729L430.83818181818185,191.19724214205903L431.76272727272726,231.00921057648407L432.22499999999997,181.86277596129963L432.6872727272727,165.06621337354943L433.14954545454543,189.09267561036262L434.0740909090909,204.0979727725425L435.46090909090907,209.12305373941027L435.92318181818183,227.7687777654343L437.31,171.1960778959022L437.77227272727276,193.576246031857L438.23454545454547,167.55979577065062L438.6968181818182,165.93609579745535L439.15909090909093,146.03313665594823L440.0836363636364,178.96581720821848L441.4704545454545,174.7703856699254L441.9327272727273,230.83076918774535L442.8572727272727,232.2952296144261L444.2440909090909,183.36828951332478L444.7063636363636,195.35964829663183L445.1686363636364,223.41193094705304L446.09318181818185,207.289136823417L446.55545454545455,218.6420809973594L447.0177272727273,216.69198065043835L447.48,217.79537640888844L447.9422727272727,208.120415379607L448.4045454545455,176.20270901756058L448.8668181818182,183.84445939941966L449.32909090909095,169.40753493489L450.71590909090907,226.34041006543032L451.1781818181818,232.74984364453002L453.0272727272727,199.66310961255894L453.48954545454546,209.01957922377596L454.41409090909093,217.77727232476937L455.3386363636364,242.71211354684263L456.2631818181818,224.001706977468L456.72545454545457,218.56724961983042L457.1877272727273,265.43441947387333L457.65000000000003,269.6938182749279L458.11227272727274,240.21360856954186L458.57454545454544,229.7485126415725L459.4990909090909,249.01565400556103L460.4236363636363,246.66695627610744L461.3481818181818,250.77166102336184L462.735,212.18432339867124L463.1972727272727,224.69817970083074L463.6595454545455,220.54842610399564L464.1218181818182,199.23195965270938L464.58409090909095,246.50656480084126L465.50863636363636,239.36682816169093L466.4331818181818,203.24581572903057L467.3577272727273,168.53715162083319L467.82,174.59111095919013L468.74454545454546,175.81568703650984L470.13136363636363,207.41606508688224L471.0559090909091,205.74469335781282L471.5181818181818,239.13508111074526L471.98045454545456,252.51673705587848L473.36727272727273,238.11429910188951L474.7540909090909,240.51606532421243L475.21636363636367,228.48756003453067L476.14090909090913,257.57715702534324L477.06545454545454,220.5833899136492L477.98999999999995,224.44447518867364L478.4522727272727,199.95949414443058L480.30136363636365,154.34877929784057L481.2259090909091,165.6183003700155L481.6881818181818,161.14830567880196L482.1504545454546,174.52713358341612L482.6127272727273,166.6398289134982L483.53727272727275,243.84598742636604L483.99954545454545,246.50738063608424L484.4618181818182,226.9566477941941L484.9240909090909,223.58606837924063L486.7731818181818,205.28416527948224L487.69772727272726,207.95957157289754L488.15999999999997,188.8233496070089L488.62227272727273,205.27547050888978L489.08454545454543,216.10994478958952L489.5468181818182,238.9725135076475L491.3959090909091,260.8077115546181L491.85818181818183,234.7593783142115L492.32045454545454,191.25153980916954L492.7827272727273,174.4536767357742L494.16954545454547,188.41713056507814L494.63181818181823,191.64137920519124L495.0940909090909,173.3094477266531L495.5563636363636,220.99993886576488L496.01863636363635,192.56790081061575L496.9431818181818,187.60576347512236L497.4054545454545,202.1231093948671L497.8677272727273,185.67428032052234L498.33,184.0359274227017L499.25454545454545,207.17308404480616L500.6413636363636,202.34725396567433L501.5659090909091,198.72344546321972L502.02818181818185,223.84022792948556L502.9527272727273,214.88931469944714L503.415,211.41272624032266L503.8772727272728,226.66358518419608L504.80181818181813,199.51602344404418L505.2640909090909,183.91759732181285L506.18863636363636,201.84767363665267L506.65090909090907,177.90667682353768L508.96227272727276,147.20064618593202L509.88681818181817,189.15588576276912L510.34909090909093,174.9912117532589L510.8113636363637,120.84290019343479L511.27363636363634,167.5877535280163L511.7359090909091,158.5414851107507L512.1981818181819,189.43347146501L512.6604545454546,148.08803783454053L513.585,190.77740685103868L514.0472727272728,172.56803229480647L514.5095454545454,161.27860053307697L515.8963636363637,185.84252757549055L516.3586363636364,159.3018128817284L516.8209090909091,153.44760028771412L517.2831818181819,197.24412941432558L518.2077272727272,165.4237625048714L520.9813636363637,179.88513150815385L521.4436363636363,201.1126809060825L521.9059090909091,221.33005144456726L522.8304545454545,226.9073182587498L524.6795454545454,216.20896968349226L526.0663636363636,200.27264415358874L527.4531818181819,180.8702804232127L528.84,180.1502213555539L529.3022727272728,235.30633084588487L530.2268181818182,271.96223101764684L530.689090909091,233.2805237007398L531.1513636363636,200.5210220442839L531.6136363636364,187.38386143279564L532.5381818181819,235.5220099142234L533.0004545454545,204.81211165060483L533.4627272727273,196.6022230571881L533.9250000000001,211.04705807973104L534.3872727272728,178.6279340719638L534.8495454545455,218.69233589546263L535.3118181818182,216.88597169406862L535.7740909090909,173.4178765664123L536.2363636363635,211.46028171098152L537.1609090909091,230.3125125014105L537.6231818181818,238.91350705123222L538.5477272727272,244.05274071783322L539.4722727272726,233.3194585840244L539.9345454545454,220.29083792840206L540.8590909090909,236.84000069944562L541.7836363636363,145.05818230755412L542.2459090909091,163.50940791656762L542.7081818181819,198.79958946422667L543.1704545454545,158.2629159082474L544.5572727272727,145.8623203845702L545.0195454545454,158.6513912099638L545.4818181818182,146.8034180380996L545.944090909091,203.91770671800623L546.8686363636364,189.70536807502089L547.3309090909091,240.90501387150314L551.029090909091,205.62321790323668L552.4159090909092,183.33240539969427L552.8781818181818,190.64805493710017L553.8027272727273,196.44884059945744L554.265,225.5065723610575L554.7272727272726,201.88074833631083L555.1895454545454,207.4131201783501L556.5763636363636,224.91782213274195L557.0386363636363,200.81043253988526L557.9631818181817,214.3784342880442L558.4254545454545,239.87903876428894L558.8877272727273,236.10731675222567L559.35,255.8698066223456L560.7368181818182,222.32507648054434L564.4350000000001,239.5001746534328L564.8972727272727,238.58276375049473L565.3595454545455,269.1912769659299L566.2840909090909,270.80395404438167L567.2086363636364,247.84290165431926L567.6709090909092,240.83860707174867L568.1331818181818,247.4725107446597L569.0577272727273,201.7262164302748L569.5200000000001,208.9094401653728L569.9822727272727,177.6595826464205L570.4445454545455,204.51050928880082L570.9068181818183,199.91446044669496L572.2936363636363,251.7198562691891L572.7559090909091,241.92611133387476L573.2181818181817,222.7158718481057L575.5295454545454,263.0332435202508L576.4540909090908,205.37410042150995L576.9163636363636,192.39676470979015L577.8409090909091,223.59459468975035L578.3031818181818,264.325143804224L579.2277272727273,230.6063636547212L582.0013636363636,209.94799815776523L582.4636363636364,185.94597391366327L583.3881818181818,206.38994334658335L583.8504545454546,207.8857976651863L584.3127272727273,227.58507949126545L586.1618181818183,247.07196055875076L586.6240909090909,242.2687115069327L587.0863636363637,187.4173725938638L587.5486363636364,198.12011297320365L588.0109090909091,182.4832166181507L588.9354545454546,184.72332259964688L589.86,115.58539691321903L590.3222727272727,156.23927760681312L590.7845454545454,194.81356673574925L591.2468181818182,192.7934348065751L591.7090909090908,207.02914442945647L592.1713636363636,232.7961427242216L592.6336363636364,177.91819978289834L594.4827272727273,114.79102651306897L595.4072727272727,149.44248628633568L595.8695454545455,153.2899541162312L598.6431818181818,164.9702038089333L599.5677272727273,165.65353505675836L600.4922727272727,141.92171562883715L600.9545454545455,176.68996225753054L601.4168181818181,167.96136754238873L602.3413636363637,198.1131184493016L604.1904545454546,205.30978504278232L605.5772727272728,188.64104343438024L606.5018181818182,218.25705656291282L607.8886363636365,211.41147928763178L609.2754545454545,196.43971461091047L609.7377272727272,235.95203841727954L610.6622727272727,248.91165098007258L611.1245454545455,187.33893125979094L611.5868181818181,218.91359715407972L612.0490909090909,213.75024121252224L612.5113636363636,239.45359005371162L612.9736363636364,253.30080568369618L613.435909090909,273.2281016844729L614.3604545454546,283.77476289554295L614.8227272727272,263.08351296810804L615.285,241.34266959803404L616.6718181818181,203.5456239629594L617.1340909090909,198.91273313184698L618.0586363636364,237.75152309787345L621.7568181818182,235.55678282248581L622.2190909090909,223.0982101693715L622.6813636363637,216.92484112265228L623.1436363636363,211.77697975446293L623.6059090909091,234.94920277005147L624.5304545454546,179.21194066647118L624.9927272727273,186.97876863613865L625.455,219.52663427173366L625.9172727272728,173.40129378783266L626.8418181818181,186.13828704401755L627.3040909090909,188.15132606142973L627.7663636363636,223.2918357032301L628.690909090909,215.4831718908407L629.1531818181818,241.04561334617156L630.0777272727272,280.052102925257L634.7004545454546,245.8041757313033L636.0872727272728,236.1489226256924L636.5495454545454,135.19815299828645L637.0118181818182,187.86953122676385L637.4740909090909,245.20355342944683L638.3986363636363,259.819496604704L638.8609090909091,258.70789813247245L639.3231818181819,259.9312014686607L640.2477272727273,254.82726045295857L641.6345454545454,289.3630064976745L642.0968181818182,276.1601144399311L642.559090909091,243.2038389638702L643.0213636363637,245.4005812349755L643.4836363636364,242.9817291073974L643.9459090909091,256.5603467318293L644.4081818181819,253.65752914505467L644.8704545454544,224.79023747472863L645.795,232.7065427634488L646.7195454545454,220.2949450171378L647.1818181818181,237.03168065613107L648.1063636363637,232.81420500924452L649.0309090909091,250.65485471506165L649.9554545454545,253.88459954164875L650.4177272727272,254.93935106479415L650.88,281.6694982924874L651.3422727272728,275.892826659392L651.8045454545454,272.868514742202L652.2668181818182,238.15714510696642L654.1159090909091,290.4421200300307L656.4272727272728,284.51491699107976L656.8895454545454,290.8021335170341L657.814090909091,283.03941288873506L658.2763636363636,293.2208756057427L658.7386363636364,269.58565093131534L660.1254545454545,213.0592993105371L660.5877272727273,211.66892629999526L661.0500000000001,204.6100424872337L661.9745454545455,219.90446417229546L662.8990909090909,223.3036887080392L663.3613636363635,205.5349528233578L664.7481818181818,230.85751787014482L665.6727272727272,216.73889607032024L666.5972727272726,253.26612780757313L667.0595454545454,234.362804203111L667.9840909090909,234.15383354087632L668.4463636363636,240.9276964707047L669.8331818181819,237.45374089409856L670.2954545454545,255.67028923751514L670.7577272727273,211.63191962412134L671.6822727272727,184.24391415437918L672.1445454545454,220.48368923985385L672.6068181818182,215.75698811593796L673.5313636363636,237.9629018017458L673.9936363636364,210.4192990996452L674.4559090909091,211.54683152284477L674.9181818181819,233.93880240153655L675.3804545454545,255.82440781178545L675.8427272727273,226.9909314694227L676.7672727272727,226.62417639496346L678.154090909091,263.73658851126464L678.6163636363636,194.62369640780364L679.5409090909092,248.0819238322657L681.39,242.55678332976046L681.8522727272726,266.38355287012564L682.7768181818182,266.36558386036927L683.2390909090909,252.5069596419773L684.6259090909091,191.7141062918059L685.5504545454545,234.77603861380854L686.475,271.4746361405099L687.3995454545454,189.50964734627385L687.8618181818182,204.38776862751862L688.3240909090908,197.86879843660137L688.7863636363636,184.27947755730554L689.7109090909091,138.67149883879335L691.0977272727273,147.37317460130794L691.5600000000001,211.23812378041453L692.4845454545455,244.20686463145648L692.9468181818182,223.89602982776304L693.4090909090909,240.46159039927954L694.3336363636364,231.18031447634252L696.1827272727273,239.78013467818857L697.1072727272727,234.33808946194108L697.5695454545455,245.42406848311452L698.4940909090909,309.5331405529327L698.9563636363637,298.2090460615722L699.4186363636363,269.34097379408666L699.8809090909091,243.07570463396547L700.3431818181817,244.12171597142205L700.8054545454545,268.54770359313005L702.6545454545454,218.63183974464948L703.1168181818182,214.61955863326372L703.5790909090908,227.92307419071702L704.0413636363636,198.64527699480882L704.5036363636364,218.5257750903665L705.4281818181818,185.6784246385427L706.3527272727273,189.11321686735826L706.8149999999999,229.93327408343106L707.2772727272727,202.09357638922876L707.7395454545455,207.55757155063102L708.2018181818182,209.24385716832003L708.6640909090909,244.1616672675607L710.0509090909092,259.00360278871256L711.4377272727273,257.03243531880196L712.3622727272727,259.6231113450482L713.2868181818183,222.50269153087953L713.7490909090909,205.01474170363264L714.2113636363637,241.3214385256114L714.6736363636364,216.36082108017737L715.1359090909091,224.258843100703L716.985,248.0492074816334L718.8340909090908,166.36793992095642L719.7586363636364,200.6028441043918L720.220909090909,253.29225765561233L720.6831818181818,230.3698251550018L721.6077272727273,226.71202092252432L722.0699999999999,208.44573996159423L722.5322727272727,223.9814543066366L723.9190909090909,168.74905153143075L725.305909090909,201.25510812038956L725.7681818181818,236.8826830726226L726.2304545454546,241.22161156348187L727.155,215.46094482082114L727.6172727272727,204.37637380812274L728.0795454545455,197.33720441980296L729.0040909090909,221.0201924841807L729.4663636363637,210.37284248424263L730.3909090909091,182.44460674138483L730.8531818181818,208.91767751744L731.3154545454546,200.27524859649301L731.7777272727274,175.60299070334764L732.24,200.44378735164057L732.7022727272728,149.27827093434976L733.6268181818182,200.87671114518378L734.0890909090909,179.39660322051446L735.4759090909091,186.2195385180783L737.7872727272727,136.21284736021863L739.6363636363636,196.4078745197543L743.3345454545455,219.2862127827741L743.7968181818181,207.6367026279108L744.2590909090909,245.57826029607978L744.7213636363637,218.64850056217074L745.1836363636364,199.3933487439727L746.5704545454546,204.88949785205625L747.0327272727272,215.7450827172138L747.9572727272728,215.43915129963983L748.4195454545455,198.84662967915355L749.3440909090909,175.51661014662292L749.8063636363637,198.28557736286638L750.2686363636363,213.40892448896724L750.7309090909091,158.70589349682774L751.6554545454546,223.47688729880733L752.58,248.4206797580846L753.0422727272728,262.9595301092224L753.5045454545456,218.3159316721078L754.4290909090909,234.92258857904608L754.8913636363636,215.7715028109367L755.3536363636363,168.64636055666955L756.2781818181818,170.37716208394346L757.2027272727272,190.4310633504693L759.9763636363637,215.94988753257746L760.9009090909091,229.49284065227297L762.75,200.46812256524046L763.2122727272728,222.31024525590368L763.6745454545454,270.3072284472552L765.5236363636363,253.75703208521412L767.835,237.40586974492365L768.2972727272728,271.44721224144246L770.1463636363637,237.04139105655204L771.5331818181819,238.42567447854822L771.9954545454544,242.12299147756056L773.3822727272727,188.77031900374607L773.8445454545454,196.621147023967L774.7690909090909,189.72650278159938L775.2313636363637,246.18150842950487L775.6936363636363,236.30334736023337L776.1559090909091,227.37226738293276L777.0804545454545,225.887646041866L777.5427272727272,224.68709857832923L778.9295454545454,251.31031338046188L779.3918181818182,189.17403152876122L779.8540909090909,197.11157933377314L780.3163636363636,239.09680840672905L780.7786363636363,190.3191789769695L782.6277272727273,223.36556411125025L784.0145454545454,229.95657080938344L784.4768181818182,244.97888019942656L784.939090909091,224.1622196998908L785.4013636363636,180.47559665026378L786.3259090909091,206.11130633690314L786.7881818181819,215.7821374948035L787.2504545454545,189.3634016945542L787.7127272727273,237.84976994980673L788.1750000000001,251.45083020810767L788.6372727272728,254.33561926404423L789.0995454545455,230.4009740019482L789.5618181818182,221.71452778637988L790.0240909090909,240.7135651104377L791.4109090909091,240.83716124577958L792.3354545454545,223.8823971927816L794.6468181818182,269.17755486524754L795.1090909090909,254.71035824121302L795.5713636363636,224.5645653577902L796.4959090909091,229.18965127844615L798.345,245.1474538795347L799.7318181818182,236.402806850315L800.6563636363636,263.3594744710732L802.5054545454545,279.81416480321616L802.9677272727273,202.90898697071088L803.4300000000001,188.5606113463212L803.8922727272727,180.139982382196L805.279090909091,193.73225433594072L806.2036363636364,188.9388565218594L806.6659090909092,205.69723447863407L807.1281818181818,197.40790326364782L807.5904545454546,198.29104056610166L808.0527272727273,232.65874529816264L808.9772727272726,228.31803171976756L809.4395454545454,193.43354384497508L810.8263636363636,131.57240982725014L811.2886363636363,153.00627374357074L812.2131818181817,210.3656173840257L812.6754545454545,240.05518347591715L813.1377272727273,249.09370180491754L815.4490909090908,262.0827679968778L815.9113636363636,262.38414249911057L816.3736363636364,246.27227233921158L820.0718181818182,242.65632497062535L820.5340909090909,249.83959987742944L820.9963636363636,260.63860041705897L821.9209090909092,233.7070812154301L822.3831818181818,214.36165271592876L822.8454545454546,154.59813883213573L823.3077272727273,181.69658885944546L823.7700000000001,175.02102787496568L824.2322727272727,173.90103617972736L824.6945454545455,193.13298470125017L825.6190909090909,215.41287937478572L826.5436363636363,223.08965924971747L827.0059090909091,215.9377470230666L827.4681818181817,242.87920363801004L828.3927272727273,278.95797555480766L828.8549999999999,219.36047464781353L829.7795454545454,192.4817372083159L830.7040909090908,213.8531022717433L831.1663636363636,250.11339334980272L832.0909090909091,261.41524676392936L832.5531818181818,238.92640181184635L834.4022727272727,282.0801758906024L834.8645454545455,221.78427777262465L835.3268181818182,222.26397354889528L835.7890909090909,205.03850329701186L836.2513636363636,203.641092602028L836.7136363636364,250.28793277847487L837.1759090909092,167.70117972524866L838.1004545454546,217.00085557403943L838.5627272727273,220.16100372289023L839.025,202.22418177103913L839.4872727272727,186.4800092240545L841.3363636363637,192.0102624853313L842.2609090909091,197.92442603738985L842.7231818181818,198.81634634307872L843.1854545454546,222.69111626651627L844.11,224.78570641516237L845.0345454545454,197.83914097646388L845.9590909090908,218.39819915375637L846.8836363636364,168.65607461067592L847.345909090909,189.3504003004909L847.8081818181818,245.06627915384277L848.7327272727273,249.3230176074401L849.1949999999999,270.1939825964735L849.6572727272727,200.36659184521122L850.1195454545455,210.71972457803525L850.5818181818181,220.51459753004508L851.0440909090909,165.43737632489515L851.5063636363636,148.23465328163422L851.9686363636364,167.7983064154125L852.430909090909,177.55026594992506L853.8177272727273,209.13801354611797L854.28,227.9530208906768L855.2045454545455,245.23534770236034L855.6668181818181,254.5840788915384L857.0536363636364,269.09766973896956L857.5159090909091,245.14756865950355L857.9781818181818,246.58465915602514L858.4404545454546,261.38643514595395L858.9027272727274,229.04228809004564L859.8272727272728,264.5343868882986L861.6763636363637,271.6084208405389L862.6009090909091,248.29332207267993L863.0631818181818,205.66110587167773L863.5254545454545,229.96262408198467L864.9122727272727,237.2859104687068L865.3745454545455,235.22758175218664L866.2990909090909,240.84715790213792L866.7613636363636,237.07651260401886L867.2236363636364,234.28402241358262L868.1481818181818,247.7595896608072L868.6104545454546,243.02191000608323L869.0727272727272,240.17229725865067L869.535,238.57897161864312L870.4595454545455,233.32248713409558L871.3840909090909,243.672366946498L872.3086363636364,213.34895776104676L872.7709090909091,226.8972905063137L873.6954545454546,226.15054158415884L874.1577272727272,256.4265508155992L874.62,244.0427505412464L875.0822727272728,237.73115343303252L876.0068181818182,263.6162816237094L877.3936363636363,240.64642803375023L877.8559090909091,242.78663430514396L878.3181818181819,270.7068931042753L878.7804545454546,259.71817875328725L879.2427272727273,261.77397987444493L880.1672727272728,269.5207267312528L880.6295454545456,270.8034983894583L881.0918181818181,239.54970420401162L881.5540909090909,207.13498063033794L882.0163636363636,229.8984022999925L882.4786363636363,237.484214504829L882.940909090909,193.76646454783892L883.4031818181818,191.85750851424106L884.3277272727272,201.94943390288523L884.79,237.25271197990085L885.2522727272727,246.41413577100937L887.1013636363637,222.3578034773276L888.4881818181818,229.8390250438065L888.9504545454546,158.60135173456078L889.4127272727272,157.43341955933695L890.7995454545454,200.0385594841193L891.2618181818182,168.71911808165567L891.7240909090909,182.53271081633955L892.1863636363637,218.167133886415L892.6486363636363,242.91797994195227L893.5731818181819,195.06310394937708L894.0354545454546,212.47798872367034L894.4977272727273,190.84441186955323L895.8845454545454,181.079621846935L896.3468181818182,140.11470098333302L897.2713636363637,215.69928702950708L897.7336363636364,210.31464771229713L898.1959090909091,232.4264789894416L899.5827272727272,204.8321414103678L900.5072727272727,194.97233690574106L900.9695454545454,169.1703917326156L901.4318181818181,217.47528635999214L901.8940909090909,210.6024720446344L902.3563636363637,222.85399135642066L903.7431818181818,229.97033937607077L905.13,259.0875619228171L905.5922727272728,209.8611624312962" style="fill: none;" fill="none"></path></g></g></g></g><g opacity="0.2"><g><g><g><path stroke="rgb(0, 119, 187)" stroke-width="2px" d="M94.30363636363636,186.37254189361227L95.22818181818182,196.99472600763497L95.69045454545454,129.14083388718691L97.53954545454545,88.9822177453475L98.00181818181818,200.4857844114304L98.92636363636363,192.783304290338L99.38863636363637,114.23149466514593L99.85090909090908,162.75842005556282L100.31318181818182,202.35720309344205L100.77545454545455,204.4486531344327L101.23772727272727,121.05845787308436L101.7,204.7993105108088L102.16227272727272,319.3597103248943L104.01136363636364,220.65308966419914L104.47363636363636,120.02742891961879L108.17181818181818,199.3702658739957L108.6340909090909,71.38764592734253L109.55863636363637,147.9236876964569L110.94545454545454,174.90838067098096L111.40772727272727,196.32736070589587L112.33227272727274,193.46705545078626L112.79454545454546,141.9229302081195L113.25681818181818,228.25648654590955L113.71909090909091,265.2083133296533L114.64363636363636,257.00281294909394L115.56818181818181,232.66448736190796L116.03045454545455,242.4854541908611L117.41727272727272,231.2204323573546L117.87954545454545,213.42170298099518L118.34181818181818,156.85536324977875L118.80409090909092,195.49874831329694L119.26636363636364,111.02667673067612L120.65318181818182,90.09302534840327L121.11545454545455,277.38377443768763L122.03999999999999,277.32227626171976L122.96454545454546,154.63154619390318L123.42681818181819,246.7371748794209L123.8890909090909,168.26109864495018L124.35136363636363,290.474206534299L125.73818181818183,202.84934211861005L126.20045454545453,186.99033997275615L126.66272727272727,127.10509576580742L127.125,45.30822044069117L128.04954545454547,200.78666974197736L128.97409090909093,259.0856092084538L129.4363636363636,155.18861418420622L131.74772727272727,214.03130813078448L132.21,224.3982312896035L132.67227272727274,226.19396778670225L133.13454545454547,79.57417455586523L133.5968181818182,214.79422347112137L134.05909090909088,256.8671175566587L136.37045454545455,158.9745156331496L140.06863636363636,225.4092387719588L140.99318181818182,140.30016693201935L141.45545454545456,168.74601765112445L141.9177272727273,56.14347192374146L145.15363636363637,16.04748048565608L146.54045454545457,185.43040622364393L147.465,156.780910004269L147.9272727272727,194.08946205269208L148.38954545454544,220.3462132540616L150.23863636363637,133.73998598618945L150.7009090909091,201.32975854656914L151.16318181818184,33.18790798837489L152.54999999999998,74.41073444756597L153.01227272727272,89.49115227569234L154.39909090909092,363.112846206535L156.24818181818182,239.69729791988027L157.17272727272726,199.79967778379267L158.09727272727272,125.38852344859731L158.55954545454546,130.93723605979574L159.0218181818182,154.410285895521L159.48409090909092,231.02272673086688L159.94636363636366,115.39816780523819L160.40863636363636,216.18364187804136L161.3331818181818,162.80235463922676L162.25772727272727,191.48047490553424L163.64454545454547,158.2950657606125L164.1068181818182,271.76652285185725L164.5690909090909,215.09024424986407L165.49363636363637,179.8999740860679L165.95590909090907,158.14851473678243L166.4181818181818,294.78903838179326L167.34272727272727,190.3374076431448L167.805,196.53971119360492L168.72954545454547,100.61305387453604L169.19181818181818,179.38243697990072L170.11636363636364,287.0532744851979L170.57863636363635,83.95657246763056L171.96545454545455,93.75193639235067L173.81454545454545,230.04863863641566L174.2768181818182,96.26434938474137L174.73909090909092,264.2781854217703L175.20136363636362,72.73748224431819L176.1259090909091,279.5937147194689L176.58818181818182,150.50169532949278L177.5127272727273,309.93400113149124L178.43727272727273,159.63768205859446L178.89954545454546,250.60541526837784L179.36181818181817,96.71598461541265L179.8240909090909,175.64323522827843L180.74863636363636,101.43925959413701L181.2109090909091,91.20613721284002L184.44681818181817,212.0594748583707L186.2959090909091,186.82248733260417L188.145,279.3600370125337L188.60727272727271,118.91001576727086L189.06954545454545,97.68945824016225L190.91863636363635,224.35322138396177L191.38090909090909,178.3906828815287L191.84318181818182,274.4009080800143L192.30545454545455,245.5824326927012L193.69227272727272,152.24171990698036L194.15454545454546,203.64221285689962L195.54136363636363,268.4987217729742L196.00363636363636,160.31088482249868L196.92818181818183,243.43347852880305L197.39045454545456,209.21657957813957L197.85272727272726,339.38602038405156L190.45636363636365,270.10955409570175L190.91863636363635,207.078122604977L191.38090909090909,262.70934186198497L191.84318181818182,223.38271769610319L198.315,86.41931582580918L198.77727272727273,133.06898507204926L200.1640909090909,212.06090862100777L200.62636363636364,112.45982489802623L201.5509090909091,205.96321853724393L203.4,209.1767926649614L203.8622727272727,268.4549920125441L204.78681818181818,210.3383964300156L205.71136363636364,211.92255052653226L206.17363636363638,55.01064582304525L208.48499999999999,199.78221660310572L209.87181818181818,179.49698437343946L210.33409090909092,262.0343212918802L210.79636363636365,285.84778734228826L211.25863636363636,109.34200563214046L212.18318181818182,238.76233106309718L214.03227272727273,156.76385847004977L214.9568181818182,138.3932626247406L215.88136363636363,192.92893360961568L216.34363636363636,213.89115783301267L216.8059090909091,266.8415481935848L218.655,204.91682784123856L219.11727272727273,291.7575009031729L220.0418181818182,157.99822568893433L220.96636363636364,189.86544370651248L221.89090909090908,143.73940505764702L224.20227272727274,241.61469941789454L225.12681818181818,198.2712868126956L225.5890909090909,219.0045698664405L226.97590909090908,226.77848209034315L227.90045454545455,-1.8694318966431638L228.36272727272728,237.97412005337802L228.82500000000002,71.25640544024384L229.74954545454545,250.39941430091858L230.21181818181816,218.6038332093846L230.6740909090909,227.75323586030441L232.52318181818183,181.45151008259168L232.98545454545456,236.92537389018318L233.91,147.9736645655199L235.29681818181817,145.5064150961963L237.1459090909091,161.35517608035696L237.60818181818183,195.68109219724482L238.07045454545457,169.33140245350924L238.53272727272727,89.25053618171L239.4572727272727,250.50085300748998L240.8440909090909,196.18342117829758L241.30636363636364,111.61498026414353L241.76863636363638,271.0184827988798L243.15545454545455,258.13528060913086L243.61772727272725,182.09055857224897L244.54227272727272,155.36604231054136L247.31590909090912,288.63596921617335L248.24045454545453,231.42249047756195L248.70272727272726,122.29630708694461L249.165,269.12123078649694L249.62727272727273,253.8111037015915L250.08954545454546,163.8057324561206L251.01409090909092,201.04172587394717L251.47636363636366,252.82078336585653L253.78772727272727,207.518082911318L254.25,170.52700687538496L255.17454545454547,154.23951452428648L256.09909090909093,181.95394147526136L256.56136363636364,126.01804765787995L257.0236363636364,192.47514773498884L257.94818181818187,192.07886598326945L258.41045454545457,119.68235297636551L258.8727272727272,128.44551021402535L259.335,195.75646714730698L260.25954545454545,178.18539879538798L260.72181818181815,152.66580641269684L261.6463636363636,165.77188188379463L262.1086363636364,139.0305189111016L263.0331818181818,250.35471163012767L263.95772727272725,124.34325928037819L264.8822727272727,234.76725388656965L265.3445454545455,169.04613489454445L265.8068181818182,223.90885737809268L266.73136363636365,273.47833302888006L267.1936363636364,196.41912151466718L268.58045454545453,95.86525131355637L269.04272727272723,27.046027291904863L269.505,176.9341336597096L269.9672727272727,206.44839357246053L270.89181818181817,182.0566603270444L271.3540909090909,152.14714277874342L271.81636363636363,232.9645533995195L272.27863636363634,227.60299801826477L274.59000000000003,16.26838234337896L276.4390909090909,237.5532595135949L276.90136363636367,238.28540016304365L277.8259090909091,159.28712709383532L279.21272727272725,188.9939208464189L282.44863636363635,192.96621143817904L282.9109090909091,221.53562177311292L284.76000000000005,55.48962495543742L285.22227272727275,352.814257199114L285.68454545454546,223.8166357170452L286.60909090909087,176.81999591263857L287.53363636363633,198.4684291752902L288.4581818181818,128.36993044072935L289.38272727272727,295.992221263322L293.54318181818184,181.13966670903292L294.00545454545454,110.64483501694423L294.4677272727273,136.63736424662852L294.93,239.8011432994496L295.8545454545454,306.6753914952278L296.3168181818182,288.60058600252324L297.70363636363635,156.86488753015348L299.0904545454545,128.40285577557304L301.8640909090909,176.5108152411201L302.3263636363637,168.91284617510712L302.7886363636364,147.46816082434222L303.2509090909091,204.36016949740323L303.71318181818185,244.15558283979243L304.63772727272726,112.87704982540828L305.09999999999997,149.9435520172119L305.5622727272727,193.33765837279233L306.4868181818182,62.710258418863475L306.9490909090909,161.69098377227783L307.4113636363636,85.11940517208797L308.33590909090907,180.8465646613728L309.26045454545454,194.8186327652498L309.7227272727273,225.8561630682512L311.5718181818182,150.47901115634227L313.42090909090905,223.3315630934455L314.8077272727273,136.88586603511465L315.27,194.00937616825107L316.19454545454545,173.50452222607353L316.65681818181815,258.6168968406591L317.5813636363636,203.3443998748606L318.5059090909091,208.296718434854L319.8927272727273,210.03310739994052L323.12863636363636,155.4270284284245L324.51545454545453,164.389427466826L324.97772727272724,197.00573525645515L326.36454545454546,66.9511234760285L326.82681818181817,183.7109663811597L327.28909090909093,217.99427926540375L328.2136363636364,203.81288181651723L328.6759090909091,174.6731411868876L329.1381818181818,227.0824397693981L329.60045454545457,334.19533878564835L330.52500000000003,170.22965474562213L332.8363636363636,73.57428756627172L333.2986363636363,228.5110306197947L336.0722727272727,192.1285356174816L336.9968181818182,137.2214176979932L337.45909090909095,11.746243780309555L337.92136363636365,193.17088105461815L338.38363636363636,253.35066107186407L338.8459090909091,193.04639973423699L339.3081818181818,114.92517975243658L339.7704545454546,98.37546245618302L340.2327272727273,-29.650067957964723L340.695,139.8059796745127L341.1572727272727,254.51513236219233L342.08181818181816,116.53662654486573L343.46863636363634,166.27016560597852L343.9309090909091,270.61075654896825L344.3931818181818,234.4614527984099L345.31772727272727,234.39944256435743L345.78000000000003,133.96324331110176L347.1668181818182,176.01201946085152L348.09136363636367,217.0111789486625L349.01590909090913,225.484511310404L349.47818181818184,171.90075630491432L350.86499999999995,157.24913591688332L351.3272727272727,201.77524908022448L351.7895454545454,226.86619764024562L352.7140909090909,141.03338290344587L353.17636363636365,186.72391615130687L353.63863636363635,162.61442932215607L354.5631818181818,139.02345250953329L355.4877272727273,170.30671948736367L355.95,262.49076986854726L357.3368181818182,275.3375135226683L357.7990909090909,176.81159816005015L358.2613636363637,-38.38449873707509L358.72363636363633,166.24041503125974L359.1859090909091,235.51736777479L359.6481818181818,265.17835793170065L360.1104545454545,202.28106005625293L360.57272727272726,101.59118722785604L361.49727272727273,215.65330331975764L361.95954545454543,208.56590736996046L363.80863636363637,224.51738720590419L364.2709090909091,242.94994207945737L364.73318181818183,124.09573040225291L365.6577272727273,171.97572160850874L366.12,151.80329577489337L366.58227272727277,160.0295089049773L367.04454545454547,128.2401237162677L367.9690909090909,257.5572694431652L368.89363636363635,179.28898637945005L369.8181818181818,193.25465375726876L370.7427272727273,99.21103883873337L371.66727272727275,300.8917210318825L372.5918181818182,172.75328181006694L373.0540909090909,258.38475530797785L373.5163636363636,164.38051765615293L374.90318181818185,117.74324021556163L376.7522727272728,89.91165437481624L377.21454545454543,239.01902578093788L378.1390909090909,182.34146703373304L378.6013636363636,256.514309536327L379.52590909090907,175.00802717425609L381.375,288.77535142681813L381.8372727272727,209.52202222564003L382.76181818181817,144.3130637298931L383.68636363636364,115.24383349852127L385.53545454545457,76.47340682419866L386.9222727272727,91.69781538573181L387.38454545454545,199.40687802704898L388.3090909090909,63.125998377800045L388.7713636363636,188.52502925829455L389.2336363636364,286.8892366777767L389.6959090909091,211.9145112146031L390.1581818181818,225.6574845314026L390.62045454545455,146.82732013138857L391.08272727272725,164.490712555972L391.545,219.67900156974792L392.0072727272727,102.25875735282904L393.85636363636365,187.26700495589864L394.3186363636364,182.3194485360926L395.24318181818177,161.36173042384064L396.16772727272723,214.9107166853818L397.55454545454546,158.6429580233314L398.4790909090909,287.82914489507675L398.94136363636363,110.25546604936773L399.40363636363634,194.93297533555466L400.79045454545457,251.5815515951677L401.25272727272727,132.2154354507273L401.71500000000003,226.48512401364067L402.17727272727274,59.771147424524486L402.6395454545455,107.27185720747167L403.5640909090909,78.40463389049881L404.02636363636367,282.14192057197744L404.4886363636363,312.95939391309565L405.4131818181818,243.4335297346115L405.87545454545455,287.5347883051092L406.33772727272725,169.10266610709107L406.8,240.10069727897644L407.2622727272727,178.56017410755157L407.7245454545454,230.24127488786525L408.6490909090909,169.71114472909406L409.11136363636365,173.05473040450704L410.4981818181818,202.09139374169436L412.34727272727275,189.47848141193393L413.73409090909087,249.76277248425916L414.1963636363636,99.74265754222876L414.65863636363633,47.245284969156444L415.1209090909091,135.32833895900035L415.5831818181818,29.1725533116948L416.04545454545456,214.68264601447365L416.50772727272727,166.8263118917292L416.96999999999997,109.67013245279139L417.89454545454544,193.39838846163317L418.3568181818182,121.74932664090937L418.8190909090909,73.90016133135015L420.66818181818184,208.7636129964482L422.5172727272727,251.99258061972535L422.9795454545454,162.84649404612458L423.9040909090909,174.48772495443174L424.36636363636364,227.8459183736281L424.82863636363635,44.90702293135905L425.29090909090905,195.58974103494126L425.7531818181818,167.70536200566724L426.2154545454545,144.56212878227234L427.60227272727275,154.2660903388804L428.06454545454545,179.80529454621401L428.5268181818182,203.31603185697037L430.83818181818185,207.47768152843824L431.76272727272726,290.72716322812164L432.22499999999997,108.1431240385229L432.6872727272727,139.87136949192396L433.14954545454543,225.13236896558243L434.0740909090909,226.60591851581228L435.46090909090907,216.66067518971184L435.92318181818183,255.73736380447042L437.31,86.33702809160405L437.77227272727276,227.1464982357892L438.23454545454547,128.53512037884107L438.6968181818182,163.50054583766246L439.15909090909093,116.1786979436875L440.0836363636364,228.36483803662387L441.4704545454545,168.47723836248574L441.9327272727273,314.92134446447545L442.8572727272727,234.49192025444725L444.2440909090909,109.97787936167282L444.7063636363636,213.3466864715923L445.1686363636364,265.4903549226848L446.09318181818185,183.10494563796306L446.55545454545455,235.67149725827304L447.0177272727273,213.76683013005692L447.48,219.4504700465636L447.9422727272727,193.60797383568504L448.4045454545455,128.3261494744908L448.8668181818182,195.3070849722082L449.32909090909095,147.7521482380954L450.71590909090907,311.73972276124084L451.1781818181818,242.36399401317945L453.0272727272727,150.03300856460226L453.48954545454546,223.05428364060143L454.41409090909093,230.9138119762594L455.3386363636364,280.1143753799525L456.2631818181818,195.93609712340617L456.72545454545457,210.41556358337405L457.1877272727273,335.7351742549376L457.65000000000003,276.0829164765098L458.11227272727274,195.99329401146284L458.57454545454544,214.05086874961853L459.4990909090909,277.91636605154383L460.4236363636363,243.14390968192708L461.3481818181818,256.9287181442434L462.735,154.30331696163526L463.1972727272727,243.46896415407008L463.6595454545455,214.323795708743L464.1218181818182,167.25725997578016L464.58409090909095,317.41847252303904L465.50863636363636,228.65722320296547L466.4331818181818,149.06429708003998L467.3577272727273,116.47415545853704L467.82,183.67204996672547L468.74454545454546,177.65255115248942L470.13136363636363,254.8166321624409L471.0559090909091,203.2376357642087L471.5181818181818,289.2206627401439L471.98045454545456,272.5892209735784L473.36727272727273,216.51064217090607L474.7540909090909,244.1187146576968L475.21636363636367,210.4448021000082L476.14090909090913,301.211552511562L477.06545454545454,165.09273924610832L477.98999999999995,230.23610310121018L478.4522727272727,163.23202257806608L480.30136363636365,85.93270702795553L481.2259090909091,182.5225819782777L481.6881818181818,154.4433136419817L482.1504545454546,194.59537544033745L482.6127272727273,154.8088719086214L483.53727272727275,359.655225195668L483.99954545454545,250.49947045066142L484.4618181818182,197.6305485313589L484.9240909090909,218.53019925681028L486.7731818181818,177.83131062984467L487.69772727272726,211.9726810130206L488.15999999999997,160.1190166581761L488.62227272727273,229.953651861711L489.08454545454543,232.36165621063927L489.5468181818182,273.2663665847345L491.3959090909091,293.56050862507385L491.85818181818183,195.6868784536015L492.32045454545454,125.98978205160662L492.7827272727273,149.25688212568113L494.16954545454547,209.3623113090342L494.63181818181823,196.4777521653609L495.0940909090909,145.81155050884595L495.5563636363636,292.53567557443273L496.01863636363635,149.91984372789213L496.9431818181818,180.16255747188222L497.4054545454545,223.89912827448413L497.8677272727273,161.0010367090052L498.33,181.57839807597077L499.25454545454545,241.87881897796285L500.6413636363636,195.10850884697655L501.5659090909091,193.28773270953786L502.02818181818185,261.51540162888443L502.9527272727273,201.46294485438955L503.415,206.19784355163577L503.8772727272728,249.5398736000061L504.80181818181813,158.79468083381653L505.2640909090909,160.51995813846588L506.18863636363636,228.74278810891238L506.65090909090907,141.99518160386523L508.96227272727276,101.14160022952342L509.88681818181817,252.0887451280247L510.34909090909093,153.74420073899356L510.8113636363637,39.62043285369879L511.27363636363634,237.7050335298885L511.7359090909091,144.9720824848522L512.1981818181819,235.77145099639893L512.6604545454546,86.06988738883626L513.585,254.81146037578583L514.0472727272728,145.25397046045825L514.5095454545454,144.3444528904828L515.8963636363637,222.68841813911092L516.3586363636364,119.49074084108526L516.8209090909091,144.66628139669248L517.2831818181819,262.93892310424286L518.2077272727272,117.6932121406902L520.9813636363637,201.57718501307747L521.4436363636363,232.95400500297546L521.9059090909091,251.65610725229436L522.8304545454545,235.27321848002347L524.6795454545454,200.1614468206059L526.0663636363636,176.36815585873345L527.4531818181819,151.76673482764852L528.84,179.07013275406578L529.3022727272728,318.0404950813814L530.2268181818182,326.9460812752897L530.689090909091,175.25796272537926L531.1513636363636,151.38176955960014L531.6136363636364,167.67812051556328L532.5381818181819,307.72923263636505L533.0004545454545,158.7472642551769L533.4627272727273,184.28739016706297L533.9250000000001,232.7143106135455L534.3872727272728,129.99924806031314L534.8495454545455,278.78893863071096L535.3118181818182,214.1764253919775L535.7740909090909,108.21573387492788L536.2363636363635,268.5238894278353L537.1609090909091,258.59085868705404L537.6231818181818,251.81499887596476L538.5477272727272,251.76159121773458L539.4722727272726,217.21953538331118L539.9345454545454,200.7479069449685L540.8590909090909,261.6637448560108L541.7836363636363,7.385454719716904L542.2459090909091,191.18624633008784L542.7081818181819,251.73486178571528L543.1704545454545,97.45790557427841L544.5572727272727,127.26142709905454L545.0195454545454,177.83499744805422L545.4818181818182,129.03145828030327L545.944090909091,289.58913973786616L546.8686363636364,168.386860110543L547.3309090909091,317.7044825662266L551.029090909091,152.7005239508369L552.4159090909092,149.89618664438078L552.8781818181818,201.62152924320915L553.8027272727273,205.15001909299332L554.265,269.0931700034575L554.7272727272726,166.44201229919088L555.1895454545454,215.71167794140902L556.5763636363636,251.17487506432968L557.0386363636363,164.6493481506001L557.9631818181817,234.7304369102825L558.4254545454545,278.12994547865605L558.8877272727273,230.44973373413086L559.35,285.51354142752564L560.7368181818182,172.0079812678424L564.4350000000001,265.2628219127655L564.8972727272727,237.20664739608765L565.3595454545455,315.1040467890826L566.2840909090909,273.2229696620594L567.2086363636364,213.40132306922567L567.6709090909092,230.33216519789264L568.1331818181818,257.42336625402623L569.0577272727273,133.10677495869723L569.5200000000001,219.68427576801994L569.9822727272727,130.78479636799207L570.4445454545455,244.78689925237134L570.9068181818183,193.0203871835362L572.2936363636363,329.4279500029304L572.7559090909091,227.23549393090335L573.2181818181817,193.90051261945206L575.5295454545454,323.50930102846837L576.4540909090908,118.8853857733987L576.9163636363636,172.9307611422105L577.8409090909091,270.39133965969086L578.3031818181818,325.42096747593445L579.2277272727273,180.0281934304671L582.0013636363636,178.96044991233134L582.4636363636364,149.94293754751035L583.3881818181818,237.05589749596336L583.8504545454546,210.1295791430907L584.3127272727273,257.1340022303841L586.1618181818183,276.3022821599787L586.6240909090909,235.06383792920548L587.0863636363637,105.14036422426051L587.5486363636364,214.17422354221344L588.0109090909091,159.0278720855713L588.9354545454546,188.0834815718911L589.86,11.878508383577525L590.3222727272727,217.2200986472043L590.7845454545454,252.67500042915344L591.2468181818182,189.76323691281405L591.7090909090908,228.38270886377856L592.1713636363636,271.4466401663694L592.6336363636364,95.60128537091344L594.4827272727273,20.100266608324944L595.4072727272727,201.41967594623569L595.8695454545455,159.0611558610743L598.6431818181818,182.49057834798643L599.5677272727273,166.67853192849591L600.4922727272727,106.3239864869551L600.9545454545455,228.84233220057055L601.4168181818181,154.86847546967593L602.3413636363637,243.3407448096709L604.1904545454546,216.10478493300351L605.5772727272728,163.63793102177706L606.5018181818182,262.6810762557117L607.8886363636365,201.1431133747101L609.2754545454545,173.98206759582868L609.7377272727272,295.22052412683314L610.6622727272727,268.3510698242621L611.1245454545455,94.9798516793685L611.5868181818181,266.2755959955129L612.0490909090909,206.00520730018619L612.5113636363636,278.00861331549555L612.9736363636364,274.07162912867284L613.435909090909,303.11904568563807L614.3604545454546,299.59475471214813L614.8227272727272,232.04663807695565L615.285,208.731404542923L616.6718181818181,146.85005551034757L617.1340909090909,191.96339688517833L618.0586363636364,296.00970804691315L621.7568181818182,232.26467240940443L622.2190909090909,204.41035118970004L622.6813636363637,207.66478755257347L623.1436363636363,204.05518770217898L623.6059090909091,269.70753729343414L624.5304545454546,95.60604751110083L624.9927272727273,198.62901059063998L625.455,268.3484327251261L625.9172727272728,104.21328306198126L626.8418181818181,205.2437769282948L627.3040909090909,191.17088458754802L627.7663636363636,276.0026001659307L628.690909090909,203.7701761722565L629.1531818181818,279.3892755291679L630.0777272727272,338.561837293885L634.7004545454546,194.43228494037282L636.0872727272728,221.66604296727616L636.5495454545454,-16.228001442822517L637.0118181818182,266.8765985694799L637.4740909090909,331.2045867334713L638.3986363636363,281.7434113675898L638.8609090909091,257.04050042412496L639.3231818181819,261.76615647294307L640.2477272727273,247.1713489294052L641.6345454545454,341.1666255647486L642.0968181818182,256.3557763533159L642.559090909091,193.76942574977878L643.0213636363637,248.69569464163348L643.4836363636364,239.3534509160302L643.9459090909091,276.9282731684771L644.4081818181819,249.30330276489258L644.8704545454544,181.48929996923968L645.795,244.58100069652906L646.7195454545454,201.6775483976711L647.1818181818181,262.1367841146209L648.1063636363637,226.48799153891477L649.0309090909091,277.41582927378744L649.9554545454545,258.72921678152954L650.4177272727272,256.5214783495123L650.88,321.7647191340273L651.3422727272728,267.22781920974904L651.8045454545454,268.33204686641693L652.2668181818182,186.09009065411308L654.1159090909091,368.8695824146271L656.4272727272728,275.62411243265325L656.8895454545454,300.2329583059658L657.814090909091,271.39533194628626L658.2763636363636,308.49306968125427L658.7386363636364,234.13281391967428L660.1254545454545,128.26977187936959L660.5877272727273,209.58336678418246L661.0500000000001,194.02171676809138L661.9745454545455,242.84609669988808L662.8990909090909,228.40252551165494L663.3613636363635,178.88184899633583L664.7481818181818,268.8413654403253L665.6727272727272,195.5609633705833L666.5972727272726,308.0569754134525L667.0595454545454,206.00781879641792L667.9840909090909,233.84037754752418L668.4463636363636,251.08849086544728L669.8331818181819,232.24280752918938L670.2954545454545,282.9951117526401L670.7577272727273,145.57436520403084L671.6822727272727,143.161905949766L672.1445454545454,274.8433518680659L672.6068181818182,208.6669364300641L673.5313636363636,271.2717723304575L673.9936363636364,169.10389504649424L674.4559090909091,213.23813015764412L674.9181818181819,267.52675871957433L675.3804545454545,288.6528159271587L675.8427272727273,183.74071695587853L676.7672727272727,226.07404378327456L678.154090909091,319.40520668571645L678.6163636363636,90.95435825261205L679.5409090909092,328.26926496895874L681.39,234.26907257600266L681.8522727272726,302.1237071806734L682.7768181818182,266.3386303457347L683.2390909090909,231.71902331438932L684.6259090909091,100.52482626654887L685.5504545454545,299.3689370968125L686.475,326.5225324305621L687.3995454545454,66.56216415491974L687.8618181818182,226.70495054938576L688.3240909090908,188.09034315022555L688.7863636363636,163.89549623836172L689.7109090909091,70.25953076102519L691.0977272727273,160.42568824507975L691.5600000000001,307.03554754907435L692.4845454545455,293.6599759080193L692.9468181818182,193.42977762222293L693.4090909090909,265.30993125655436L694.3336363636364,217.25840059193698L696.1827272727273,252.67986498095775L697.1072727272727,226.17502163756978L697.5695454545455,262.0530370148746L698.4940909090909,405.69674865766L698.9563636363637,281.22290432453156L699.4186363636363,226.03886539285836L699.8809090909091,203.6778008937836L700.3431818181817,245.69073297760704L700.8054545454545,305.186685025692L702.6545454545454,143.7580439719287L703.1168181818182,208.60113696618515L703.5790909090908,247.8783475268971L704.0413636363636,154.72858120094648L704.5036363636364,248.34652223370293L705.4281818181818,136.40739896080711L706.3527272727273,194.2654052105817L706.8149999999999,291.16335990754044L707.2772727272727,160.3340298479254L707.7395454545455,215.75356429273432L708.2018181818182,211.7732855948535L708.6640909090909,296.5383824164217L710.0509090909092,281.26650607044047L711.4377272727273,254.075684113936L712.3622727272727,263.5091253844175L713.2868181818183,166.8220618096265L713.7490909090909,178.78281696276233L714.2113636363637,295.7814837585796L714.6736363636364,178.91989491202617L715.1359090909091,236.10587613149124L716.985,283.7347540530292L718.8340909090908,43.84603857994085L719.7586363636364,251.95520037954503L720.220909090909,332.32637798244303L720.6831818181818,195.98617640408602L721.6077272727273,221.22531457380816L722.0699999999999,181.04631852019918L722.5322727272727,247.28502582420003L723.9190909090909,85.90044736862188L725.305909090909,250.01419300382787L725.7681818181818,290.32404550097203L726.2304545454546,247.7300042997707L727.155,176.81994470683014L727.6172727272727,187.74951728907502L728.0795454545455,186.7784503373233L729.0040909090909,256.5446745807474L729.4663636363637,194.40181748433548L730.3909090909091,140.55225312709808L730.8531818181818,248.62728368152273L731.3154545454546,187.31160521507263L731.7777272727274,138.59460386362946L732.24,237.70498232408005L732.7022727272728,72.52999630841344L733.6268181818182,278.2743714614348L734.0890909090909,147.17644133351067L735.4759090909091,196.45394146442416L737.7872727272727,61.20281062342906L739.6363636363636,286.7004152590578L743.3345454545455,253.60372017730367L743.7968181818181,190.16243739561602L744.2590909090909,302.4905967983333L744.7213636363637,178.2538609613072L745.1836363636364,170.5106210166758L746.5704545454546,213.13372151418167L747.0327272727272,232.02846001495016L747.9572727272728,214.9802541732788L748.4195454545455,173.9578472484242L749.3440909090909,140.52158084782687L749.8063636363637,232.4390281872316L750.2686363636363,236.09394517811862L750.7309090909091,76.65134700861847L751.6554545454546,320.6333780017766L752.58,285.8363684470003L753.0422727272728,284.7678056359291L753.5045454545456,151.35053401643583L754.4290909090909,259.8325739394535L754.8913636363636,187.0448741587726L755.3536363636363,97.95864717526871L756.2781818181818,172.97336437485436L757.2027272727272,220.51191525025803L759.9763636363637,254.22812380573964L760.9009090909091,249.80727033181623L762.75,156.9310454346917L763.2122727272728,255.07342929189855L763.6745454545454,342.3027032342824L765.5236363636363,228.9317375421524L767.835,212.87912623448807L768.2972727272728,322.5092259862206L770.1463636363637,185.43265927921644L771.5331818181819,240.50209961154243L771.9954545454544,247.66896697607908L773.3822727272727,108.74131029302424L773.8445454545454,208.39738905429843L774.7690909090909,179.38453641804782L775.2313636363637,330.864016901363L775.6936363636363,221.48610575632617L776.1559090909091,213.9756474169818L777.0804545454545,223.6607140302658L777.5427272727272,222.88627738302407L778.9295454545454,291.24513558366084L779.3918181818182,95.96960875121033L779.8540909090909,209.01790104129097L780.3163636363636,302.0746520161629L780.7786363636363,117.15273483233017L782.6277272727273,272.9351418126713L784.0145454545454,239.84308085658333L784.4768181818182,267.5123442844911L784.939090909091,192.93722895058718L785.4013636363636,114.94566207582301L786.3259090909091,244.5648708668622L786.7881818181819,230.28838423165408L787.2504545454545,149.73529799418017L787.7127272727273,310.57932233268565L788.1750000000001,271.8524205955592L788.6372727272728,258.66280284794897L789.0995454545455,194.4990061088042L789.5618181818182,208.68485846302727L790.0240909090909,269.2121210965243L791.4109090909091,241.0225554487922L792.3354545454545,198.45025111328474L794.6468181818182,337.12029137394643L795.1090909090909,233.0095633051612L795.5713636363636,179.34587603265592L796.4959090909091,236.1272801594301L798.345,269.08415778116745L799.7318181818182,223.28583630648527L800.6563636363636,303.7944759022106L802.5054545454545,304.49620030143046L802.9677272727273,87.55122022195297L803.4300000000001,167.03804790973663L803.8922727272727,167.50903893600812L805.279090909091,214.12066226655787L806.2036363636364,181.7487598007376L806.6659090909092,230.83480141379616L807.1281818181818,184.97390644116834L807.5904545454546,199.61574651978233L808.0527272727273,284.2103023962541L808.9772727272726,221.80696135217494L809.4395454545454,141.10681203278628L810.8263636363636,38.780708800662694L811.2886363636363,185.15706961805174L812.2131818181817,296.4046328447082L812.6754545454545,284.5895326137543L813.1377272727273,262.6514792984182L815.4490909090908,281.5663672848181L815.9113636363636,262.83620425245977L816.3736363636364,222.10446709936318L820.0718181818182,237.23240391774613L820.5340909090909,260.61451223763555L820.9963636363636,276.8371012265032L821.9209090909092,193.30980241298678L822.3831818181818,185.34350996667692L822.8454545454546,64.95286800644618L823.3077272727273,222.34426390041006L823.7700000000001,165.00768639824608L824.2322727272727,172.22104863686994L824.6945454545455,221.9809074835344L825.6190909090909,248.83272138508883L826.5436363636363,234.60482906211507L827.0059090909091,205.20987868309024L827.4681818181817,283.29138856042516L828.3927272727273,333.0761334300041L828.8549999999999,129.9642232873223L829.7795454545454,152.16363104906952L830.7040909090908,245.9101498668844L831.1663636363636,304.5038299668919L832.0909090909091,278.3680268851194L832.5531818181818,205.1931343837218L834.4022727272727,346.81083700873637L834.8645454545455,131.34043059565806L835.3268181818182,222.98351721330124L835.7890909090909,179.2002979191867L836.2513636363636,201.54497655955228L836.7136363636364,320.25819304314524L837.1759090909092,43.821050145409345L838.1004545454546,290.95036934722555L838.5627272727273,224.9012259461663L839.025,175.31894884326243L839.4872727272727,162.86375040357765L841.3363636363637,200.30564237724653L842.2609090909091,206.79567136547783L842.7231818181818,200.15422680161217L843.1854545454546,258.5032711516727L844.11,227.9275916381316L845.0345454545454,157.41929281841627L845.9590909090908,249.23678641969508L846.8836363636364,94.0428877960552L847.345909090909,220.3918888352134L847.8081818181818,328.6400974338705L848.7327272727273,255.70812528783625L849.1949999999999,301.50043008002365L849.6572727272727,95.62550571831792L850.1195454545455,226.24942367727107L850.5818181818181,235.20690695805985L851.0440909090909,82.82154451717031L851.5063636363636,122.43056871674278L851.9686363636364,197.14378611607987L852.430909090909,192.17820525169375L853.8177272727273,256.5196349404075L854.28,256.1755319075151L855.2045454545455,271.15883791988546L855.6668181818181,268.6071756753055L857.0536363636364,290.8680560101162L857.5159090909091,209.22241704030472L857.9781818181818,248.74029490080747L858.4404545454546,283.5890991308472L858.9027272727274,180.5260675061833L859.8272727272728,317.7725350856781L861.6763636363637,282.2194717688994L862.6009090909091,213.3206739208915L863.0631818181818,141.71278157017449L863.5254545454545,266.41490139744496L864.9122727272727,248.27084004878998L865.3745454545455,232.1400886774063L866.2990909090909,249.2765221270648L866.7613636363636,231.42054465684024L867.2236363636364,230.09528712792832L868.1481818181818,267.972940531644L868.6104545454546,235.91539052399722L869.0727272727272,235.8978781375018L869.535,236.18898315863177L870.4595454545455,225.43776040727442L871.3840909090909,259.19718666510147L872.3086363636364,167.86384398286995L872.7709090909091,247.21978962421417L873.6954545454546,225.03041820092636L874.1577272727272,301.84056466275996L874.62,225.46705012971705L875.0822727272728,228.26375777071175L876.0068181818182,302.44397390972483L877.3936363636363,206.19164764881137L877.8559090909091,245.9969437122345L878.3181818181819,312.58728130297226L878.7804545454546,243.23510722680524L879.2427272727273,264.8576815561815L880.1672727272728,281.1408470164646L880.6295454545456,272.72765587676656L881.0918181818181,192.6690129258416L881.5540909090909,158.51289526982745L882.0163636363636,264.04353480447423L882.4786363636363,248.86293281208387L882.940909090909,128.18983961235395L883.4031818181818,188.9940744638443L884.3277272727272,217.08732198585164L884.79,290.2076290954243L885.2522727272727,260.1562714576721L887.1013636363637,186.2733050368049L888.4881818181818,241.06085739352486L888.9504545454546,51.74484177069235L889.4127272727272,155.68152129650116L890.7995454545454,263.94626937129283L891.2618181818182,121.73995597796005L891.7240909090909,203.2530999183655L892.1863636363637,271.6187684915283L892.6486363636363,280.0442490252581L893.5731818181819,123.28078996051443L894.0354545454546,238.60031588511035L894.4977272727273,158.39404658837756L895.8845454545454,166.4324368130077L896.3468181818182,78.66731968793005L897.2713636363637,329.07616609876806L897.7336363636364,202.2376887364821L898.1959090909091,265.5942259051583L899.5827272727272,163.44063504175708L900.5072727272727,180.18263014880097L900.9695454545454,130.46747397292745L901.4318181818181,289.932628301057L901.8940909090909,200.29325057159772L902.3563636363637,241.23127032410017L903.7431818181818,240.64486140554604L905.13,302.76339574293655L905.5922727272728,136.02156319401482" style="fill: none;" fill="none"></path></g></g></g></g></g></g><g transform="translate(58, 378)" clip-path="url(#clip_1)"><clipPath id="clip_1"><rect width="1017" height="22"></rect></clipPath><g><g><line x1="0" y1="0" x2="0" y2="5" style="visibility: inherit;" fill="rgb(0, 0, 0)" stroke="rgb(204, 204, 204)" stroke-width="1px"></line><line x1="92.45454545454545" y1="0" x2="92.45454545454545" y2="5" style="visibility: inherit;" fill="rgb(0, 0, 0)" stroke="rgb(204, 204, 204)" stroke-width="1px"></line><line x1="184.9090909090909" y1="0" x2="184.9090909090909" y2="5" style="visibility: inherit;" fill="rgb(0, 0, 0)" stroke="rgb(204, 204, 204)" stroke-width="1px"></line><line x1="277.3636363636363" y1="0" x2="277.3636363636363" y2="5" style="visibility: inherit;" fill="rgb(0, 0, 0)" stroke="rgb(204, 204, 204)" stroke-width="1px"></line><line x1="369.8181818181818" y1="0" x2="369.8181818181818" y2="5" style="visibility: inherit;" fill="rgb(0, 0, 0)" stroke="rgb(204, 204, 204)" stroke-width="1px"></line><line x1="462.27272727272725" y1="0" x2="462.27272727272725" y2="5" style="visibility: inherit;" fill="rgb(0, 0, 0)" stroke="rgb(204, 204, 204)" stroke-width="1px"></line><line x1="554.7272727272726" y1="0" x2="554.7272727272726" y2="5" style="visibility: inherit;" fill="rgb(0, 0, 0)" stroke="rgb(204, 204, 204)" stroke-width="1px"></line><line x1="647.1818181818181" y1="0" x2="647.1818181818181" y2="5" style="visibility: inherit;" fill="rgb(0, 0, 0)" stroke="rgb(204, 204, 204)" stroke-width="1px"></line><line x1="739.6363636363636" y1="0" x2="739.6363636363636" y2="5" style="visibility: inherit;" fill="rgb(0, 0, 0)" stroke="rgb(204, 204, 204)" stroke-width="1px"></line><line x1="832.0909090909091" y1="0" x2="832.0909090909091" y2="5" style="visibility: inherit;" fill="rgb(0, 0, 0)" stroke="rgb(204, 204, 204)" stroke-width="1px"></line><line x1="924.5454545454545" y1="0" x2="924.5454545454545" y2="5" style="visibility: inherit;" fill="rgb(0, 0, 0)" stroke="rgb(204, 204, 204)" stroke-width="1px"></line><line x1="1017" y1="0" x2="1017" y2="5" style="visibility: inherit;" fill="rgb(0, 0, 0)" stroke="rgb(204, 204, 204)" stroke-width="1px"></line></g><g transform="translate(0, 8)"><text x="0" y="0" dx="0em" dy="0.95em" style="text-anchor: middle; visibility: hidden; font-family: &quot;Helvetica Neue&quot;, sans-serif; font-size: 12px; font-weight: 200;" fill="rgb(50, 49, 63)" stroke="none" stroke-width="1px">-200</text><text x="92.45454545454545" y="0" dx="0em" dy="0.95em" style="text-anchor: middle; visibility: inherit; font-family: &quot;Helvetica Neue&quot;, sans-serif; font-size: 12px; font-weight: 200;" fill="rgb(50, 49, 63)" stroke="none" stroke-width="1px">0</text><text x="184.9090909090909" y="0" dx="0em" dy="0.95em" style="text-anchor: middle; visibility: inherit; font-family: &quot;Helvetica Neue&quot;, sans-serif; font-size: 12px; font-weight: 200;" fill="rgb(50, 49, 63)" stroke="none" stroke-width="1px">200</text><text x="277.3636363636363" y="0" dx="0em" dy="0.95em" style="text-anchor: middle; visibility: inherit; font-family: &quot;Helvetica Neue&quot;, sans-serif; font-size: 12px; font-weight: 200;" fill="rgb(50, 49, 63)" stroke="none" stroke-width="1px">400</text><text x="369.8181818181818" y="0" dx="0em" dy="0.95em" style="text-anchor: middle; visibility: inherit; font-family: &quot;Helvetica Neue&quot;, sans-serif; font-size: 12px; font-weight: 200;" fill="rgb(50, 49, 63)" stroke="none" stroke-width="1px">600</text><text x="462.27272727272725" y="0" dx="0em" dy="0.95em" style="text-anchor: middle; visibility: inherit; font-family: &quot;Helvetica Neue&quot;, sans-serif; font-size: 12px; font-weight: 200;" fill="rgb(50, 49, 63)" stroke="none" stroke-width="1px">800</text><text x="554.7272727272726" y="0" dx="0em" dy="0.95em" style="text-anchor: middle; visibility: inherit; font-family: &quot;Helvetica Neue&quot;, sans-serif; font-size: 12px; font-weight: 200;" fill="rgb(50, 49, 63)" stroke="none" stroke-width="1px">1k</text><text x="647.1818181818181" y="0" dx="0em" dy="0.95em" style="text-anchor: middle; visibility: inherit; font-family: &quot;Helvetica Neue&quot;, sans-serif; font-size: 12px; font-weight: 200;" fill="rgb(50, 49, 63)" stroke="none" stroke-width="1px">1.2k</text><text x="739.6363636363636" y="0" dx="0em" dy="0.95em" style="text-anchor: middle; visibility: inherit; font-family: &quot;Helvetica Neue&quot;, sans-serif; font-size: 12px; font-weight: 200;" fill="rgb(50, 49, 63)" stroke="none" stroke-width="1px">1.4k</text><text x="832.0909090909091" y="0" dx="0em" dy="0.95em" style="text-anchor: middle; visibility: inherit; font-family: &quot;Helvetica Neue&quot;, sans-serif; font-size: 12px; font-weight: 200;" fill="rgb(50, 49, 63)" stroke="none" stroke-width="1px">1.6k</text><text x="924.5454545454545" y="0" dx="0em" dy="0.95em" style="text-anchor: middle; visibility: inherit; font-family: &quot;Helvetica Neue&quot;, sans-serif; font-size: 12px; font-weight: 200;" fill="rgb(50, 49, 63)" stroke="none" stroke-width="1px">1.8k</text><text x="1017" y="0" dx="0em" dy="0.95em" style="text-anchor: middle; visibility: hidden; font-family: &quot;Helvetica Neue&quot;, sans-serif; font-size: 12px; font-weight: 200;" fill="rgb(50, 49, 63)" stroke="none" stroke-width="1px">2k</text></g><line x1="0" y1="0" x2="1017" y2="0" fill="rgb(0, 0, 0)" stroke="rgb(204, 204, 204)" stroke-width="1px"></line></g></g></g></g></svg>