<svg viewBox="0 0 1075 400" xmlns="http://www.w3.org/2000/svg">
    <g>
        <g>
            <g>
                <g>
                    <g>
                        <line x1="34" y1="378" x2="29" y2="378" style="visibility: inherit;" fill="rgb(0, 0, 0)" stroke="rgb(204, 204, 204)" stroke-width="1px"></line>
                        <line x1="34" y1="324" x2="29" y2="324" style="visibility: inherit;" fill="rgb(0, 0, 0)" stroke="rgb(204, 204, 204)" stroke-width="1px"></line>
                        <line x1="34" y1="270" x2="29" y2="270" style="visibility: inherit;" fill="rgb(0, 0, 0)" stroke="rgb(204, 204, 204)" stroke-width="1px"></line>
                        <line x1="34" y1="216" x2="29" y2="216" style="visibility: inherit;" fill="rgb(0, 0, 0)" stroke="rgb(204, 204, 204)" stroke-width="1px"></line>
                        <line x1="34" y1="162" x2="29" y2="162" style="visibility: inherit;" fill="rgb(0, 0, 0)" stroke="rgb(204, 204, 204)" stroke-width="1px"></line>
                        <line x1="34" y1="108" x2="29" y2="108" style="visibility: inherit;" fill="rgb(0, 0, 0)" stroke="rgb(204, 204, 204)" stroke-width="1px"></line>
                        <line x1="34" y1="54" x2="29" y2="54" style="visibility: inherit;" fill="rgb(0, 0, 0)" stroke="rgb(204, 204, 204)" stroke-width="1px"></line>
                        <line x1="34" y1="0" x2="29" y2="0" style="visibility: inherit;" fill="rgb(0, 0, 0)" stroke="rgb(204, 204, 204)" stroke-width="1px"></line>
                    </g>
                    <g transform="translate(24, 0)">
                        <text x="0" y="378" dx="0em" dy="0.3em" style="text-anchor: end; visibility: hidden; font-family: &quot;Helvetica Neue&quot;, sans-serif; font-size: 12px; font-weight: 200;" fill="rgb(50, 49, 63)" stroke="none" stroke-width="1px">-5</text>
                        <text x="0" y="324" dx="0em" dy="0.3em" style="text-anchor: end; visibility: inherit; font-family: &quot;Helvetica Neue&quot;, sans-serif; font-size: 12px; font-weight: 200;" fill="rgb(50, 49, 63)" stroke="none" stroke-width="1px">0</text>
                        <text x="0" y="270" dx="0em" dy="0.3em" style="text-anchor: end; visibility: inherit; font-family: &quot;Helvetica Neue&quot;, sans-serif; font-size: 12px; font-weight: 200;" fill="rgb(50, 49, 63)" stroke="none" stroke-width="1px">5</text>
                        <text x="0" y="216" dx="0em" dy="0.3em" style="text-anchor: end; visibility: inherit; font-family: &quot;Helvetica Neue&quot;, sans-serif; font-size: 12px; font-weight: 200;" fill="rgb(50, 49, 63)" stroke="none" stroke-width="1px">10</text>
                        <text x="0" y="162" dx="0em" dy="0.3em" style="text-anchor: end; visibility: inherit; font-family: &quot;Helvetica Neue&quot;, sans-serif; font-size: 12px; font-weight: 200;" fill="rgb(50, 49, 63)" stroke="none" stroke-width="1px">15</text>
                        <text x="0" y="108" dx="0em" dy="0.3em" style="text-anchor: end; visibility: inherit; font-family: &quot;Helvetica Neue&quot;, sans-serif; font-size: 12px; font-weight: 200;" fill="rgb(50, 49, 63)" stroke="none" stroke-width="1px">20</text>
                        <text x="0" y="54" dx="0em" dy="0.3em" style="text-anchor: end; visibility: inherit; font-family: &quot;Helvetica Neue&quot;, sans-serif; font-size: 12px; font-weight: 200;" fill="rgb(50, 49, 63)" stroke="none" stroke-width="1px">25</text>
                        <text x="0" y="0" dx="0em" dy="0.3em" style="text-anchor: end; visibility: hidden; font-family: &quot;Helvetica Neue&quot;, sans-serif; font-size: 12px; font-weight: 200;" fill="rgb(50, 49, 63)" stroke="none" stroke-width="1px">30</text>
                    </g>
                    <line x1="34" y1="0" x2="34" y2="378" fill="rgb(0, 0, 0)" stroke="rgb(204, 204, 204)" stroke-width="1px"></line>
                </g>
            </g>
            <g transform="translate(34, 0)" clip-path="url(#clip_0)">
                <clipPath id="clip_0">
                    <rect width="1041" height="378"></rect>
                </clipPath>
                <g>
                    <g>
                        <g>
                            <line x1="0" y1="0" x2="0" y2="378" fill="rgb(0, 0, 0)" stroke="rgb(60, 60, 60)" stroke-width="1px" opacity="0.25"></line>
                            <line x1="74.35714285714285" y1="0" x2="74.35714285714285" y2="378" fill="rgb(0, 0, 0)" stroke="rgb(60, 60, 60)" stroke-width="1px" opacity="0.25"></line>
                            <line x1="148.7142857142857" y1="0" x2="148.7142857142857" y2="378" fill="rgb(0, 0, 0)" stroke="rgb(60, 60, 60)" stroke-width="1px" opacity="0.25"></line>
                            <line x1="223.07142857142856" y1="0" x2="223.07142857142856" y2="378" fill="rgb(0, 0, 0)" stroke="rgb(60, 60, 60)" stroke-width="1px" opacity="0.25"></line>
                            <line x1="297.4285714285714" y1="0" x2="297.4285714285714" y2="378" fill="rgb(0, 0, 0)" stroke="rgb(60, 60, 60)" stroke-width="1px" opacity="0.25"></line>
                            <line x1="371.7857142857143" y1="0" x2="371.7857142857143" y2="378" fill="rgb(0, 0, 0)" stroke="rgb(60, 60, 60)" stroke-width="1px" opacity="0.25"></line>
                            <line x1="446.1428571428571" y1="0" x2="446.1428571428571" y2="378" fill="rgb(0, 0, 0)" stroke="rgb(60, 60, 60)" stroke-width="1px" opacity="0.25"></line>
                            <line x1="520.5" y1="0" x2="520.5" y2="378" fill="rgb(0, 0, 0)" stroke="rgb(60, 60, 60)" stroke-width="1px" opacity="0.25"></line>
                            <line x1="594.8571428571428" y1="0" x2="594.8571428571428" y2="378" fill="rgb(0, 0, 0)" stroke="rgb(60, 60, 60)" stroke-width="1px" opacity="0.25"></line>
                            <line x1="669.2142857142858" y1="0" x2="669.2142857142858" y2="378" fill="rgb(0, 0, 0)" stroke="rgb(60, 60, 60)" stroke-width="1px" opacity="0.25"></line>
                            <line x1="743.5714285714286" y1="0" x2="743.5714285714286" y2="378" fill="rgb(0, 0, 0)" stroke="rgb(60, 60, 60)" stroke-width="1px" opacity="0.25"></line>
                            <line x1="817.9285714285714" y1="0" x2="817.9285714285714" y2="378" fill="rgb(0, 0, 0)" stroke="rgb(60, 60, 60)" stroke-width="1px" opacity="0.25"></line>
                            <line x1="892.2857142857142" y1="0" x2="892.2857142857142" y2="378" fill="rgb(0, 0, 0)" stroke="rgb(60, 60, 60)" stroke-width="1px" opacity="0.25"></line>
                            <line x1="966.6428571428572" y1="0" x2="966.6428571428572" y2="378" fill="rgb(0, 0, 0)" stroke="rgb(60, 60, 60)" stroke-width="1px" opacity="0.25"></line>
                            <line x1="1041" y1="0" x2="1041" y2="378" fill="rgb(0, 0, 0)" stroke="rgb(60, 60, 60)" stroke-width="1px" opacity="0.25"></line>
                        </g>
                        <g>
                            <line x1="0" y1="378" x2="1041" y2="378" fill="rgb(0, 0, 0)" stroke="rgb(60, 60, 60)" stroke-width="1px" opacity="0.25"></line>
                            <line x1="0" y1="324" x2="1041" y2="324" fill="rgb(0, 0, 0)" stroke="rgb(60, 60, 60)" stroke-width="1px" opacity="0.25"></line>
                            <line x1="0" y1="270" x2="1041" y2="270" fill="rgb(0, 0, 0)" stroke="rgb(60, 60, 60)" stroke-width="1px" opacity="0.25"></line>
                            <line x1="0" y1="216" x2="1041" y2="216" fill="rgb(0, 0, 0)" stroke="rgb(60, 60, 60)" stroke-width="1px" opacity="0.25"></line>
                            <line x1="0" y1="162" x2="1041" y2="162" fill="rgb(0, 0, 0)" stroke="rgb(60, 60, 60)" stroke-width="1px" opacity="0.25"></line>
                            <line x1="0" y1="108" x2="1041" y2="108" fill="rgb(0, 0, 0)" stroke="rgb(60, 60, 60)" stroke-width="1px" opacity="0.25"></line>
                            <line x1="0" y1="54" x2="1041" y2="54" fill="rgb(0, 0, 0)" stroke="rgb(60, 60, 60)" stroke-width="1px" opacity="0.25"></line>
                            <line x1="0" y1="0" x2="1041" y2="0" fill="rgb(0, 0, 0)" stroke="rgb(60, 60, 60)" stroke-width="1px" opacity="0.25"></line>
                        </g>
                    </g>
                </g>
                <g>
                    <g>
                        <line x1="0" y1="324" x2="1041" y2="324" fill="rgb(0, 0, 0)" stroke="rgb(153, 153, 153)" stroke-width="1.5px"></line>
                    </g>
                </g>
                <g>
                    <g>
                        <line x1="74.35714285714285" y1="0" x2="74.35714285714285" y2="378" fill="rgb(0, 0, 0)" stroke="rgb(153, 153, 153)" stroke-width="1.5px"></line>
                    </g>
                </g>
                <g>
                    <g>
                        <g>
                            <g>
                                <g>
                                    <path stroke="rgb(0, 119, 187)" stroke-width="2px" d="M75.84428571428572,194.29087486267088 L 77.33142857142857,192.8396701812744 L 78.81857142857143,192.57137374877928 L 80.30571428571427,193.0039707183838 L 81.79285714285714,194.41312179565432 L 83.28,195.09988403320312 L 84.76714285714286,194.71715812683107 L 86.25428571428571,189.38889541625977 L 87.74142857142857,185.9620262145996 L 89.22857142857143,181.9400722503662 L 90.71571428571428,179.10574378967286 L 92.20285714285714,177.95602111816405 L 93.69,177.5402641296387 L 95.17714285714285,182.77402725219727 L 96.66428571428571,182.52526931762696 L 98.15142857142858,177.50017776489258 L 99.63857142857142,172.06410827636716 L 101.12571428571428,168.41508522033692 L 102.61285714285715,168.14569702148438 L 104.10000000000001,169.96382789611818 L 105.58714285714285,171.7592170715332 L 107.07428571428571,172.53482437133786 L 108.56142857142858,172.0043083190918 L 110.04857142857144,169.27345046997073 L 111.53571428571428,166.3295539855957 L 113.02285714285713,159.96142501831054 L 114.51,155.11176795959472 L 115.99714285714286,151.54132118225098 L 117.4842857142857,144.73486862182617 L 118.97142857142856,142.53563919067383 L 120.45857142857143,142.21869735717775 L 121.94571428571429,143.19937133789065 L 123.43285714285715,143.6127799987793 L 124.92,142.39632568359374 L 126.40714285714286,139.4881278991699 L 127.89428571428572,139.53878173828124 L 129.3814285714286,140.4564010620117 L 130.86857142857144,140.66577301025393 L 132.35571428571427,139.19192962646483 L 133.84285714285713,138.59660797119142 L 135.33,138.08288040161133 L 138.30428571428573,134.73191986083984 L 139.79142857142858,134.29241180419925 L 141.2785714285714,133.15419387817383 L 142.7657142857143,132.93555221557617 L 144.25285714285715,131.99894027709962 L 145.74,130.28626785278323 L 147.22714285714287,127.91291198730468 L 148.7142857142857,126.93975677490235 L 150.20142857142858,127.35298004150388 L 151.68857142857144,130.40321044921873 L 153.17571428571426,132.4637237548828 L 154.66285714285715,132.83552169799805 L 156.15,131.9490074157715 L 157.63714285714286,124.17280883789061 L 159.12428571428572,118.80992889404297 L 160.61142857142855,116.1571220397949 L 162.09857142857143,115.26570510864258 L 163.5857142857143,117.56531524658203 L 165.07285714285712,119.80366287231448 L 166.56,120.07415313720702 L 168.04714285714286,117.06757278442382 L 169.53428571428572,116.3035629272461 L 171.02142857142857,116.51841430664064 L 172.50857142857143,116.23776855468753 L 173.99571428571429,115.20922164916993 L 175.48285714285714,115.0586196899414 L 176.97,115.27581939697268 L 178.45714285714286,113.56854400634768 L 179.9442857142857,111.05929412841795 L 181.43142857142857,109.46241073608394 L 182.91857142857143,108.4840026855469 L 184.40571428571428,108.40411834716798 L 185.89285714285714,110.04829788208008 L 187.38,114.44300765991215 L 188.86714285714288,115.96610412597653 L 190.3542857142857,116.53625335693363 L 191.84142857142857,114.85833206176756 L 193.32857142857142,113.41413116455078 L 194.81571428571428,110.63484420776365 L 196.30285714285716,108.16044845581052 L 197.79,106.25993041992189 L 199.27714285714285,104.77895965576175 L 200.76428571428573,105.88358001708986 L 202.25142857142856,106.79403076171877 L 203.73857142857142,105.97219848632812 L 205.2257142857143,106.95876388549806 L 206.71285714285713,109.48956069946286 L 208.20000000000002,110.91398620605469 L 209.68714285714285,111.95013427734375 L 211.1742857142857,111.09678497314451 L 212.6614285714286,108.06130371093747 L 214.14857142857142,106.41562042236325 L 215.6357142857143,104.44073867797852 L 217.12285714285716,102.65763702392576 L 218.60999999999999,101.79903488159181 L 220.09714285714287,100.69389953613285 L 221.58428571428573,100.92197570800784 L 223.07142857142856,101.27850952148435 L 224.55857142857144,100.65185623168946 L 226.04571428571427,103.74196701049806 L 227.53285714285715,106.18363037109373 L 229.02,109.88504791259766 L 230.50714285714284,110.36002807617183 L 231.99428571428572,109.76952667236327 L 233.48142857142858,107.4142776489258 L 234.9685714285714,104.25252227783204 L 236.4557142857143,100.9614028930664 L 237.94285714285712,99.51454467773436 L 239.43,100.18076934814451 L 240.91714285714286,99.50708770751953 L 242.4042857142857,98.41330261230468 L 243.89142857142858,97.96510162353513 L 245.37857142857143,101.40299148559569 L 246.8657142857143,105.10342025756836 L 248.35285714285715,105.96647186279301 L 249.84,107.13371429443356 L 251.32714285714286,104.9360092163086 L 252.81428571428572,104.81171264648441 L 254.30142857142854,103.87959136962888 L 255.78857142857143,101.17792282104494 L 257.2757142857143,99.97310714721681 L 258.7628571428572,98.12561187744143 L 260.25,97.76981964111326 L 261.7371428571429,97.0677520751953 L 263.2242857142857,95.89756393432617 L 264.71142857142854,95.72768096923829 L 267.68571428571425,98.5982437133789 L 269.17285714285714,100.44751052856446 L 270.66,99.17193603515625 L 272.1471428571429,96.97340698242186 L 273.6342857142857,97.19435577392579 L 275.12142857142857,98.78188705444336 L 276.60857142857145,98.47996215820314 L 278.0957142857143,95.62577590942385 L 279.58285714285716,97.14040603637693 L 281.07,100.19963836669922 L 282.5571428571428,101.01669158935545 L 284.0442857142857,102.42451400756835 L 285.5314285714286,101.7154426574707 L 287.0185714285714,99.39716949462894 L 288.5057142857143,97.31941452026365 L 289.99285714285713,95.88530731201172 L 291.48,94.70039062499995 L 292.96714285714285,93.41097335815431 L 294.45428571428573,92.97838668823243 L 295.9414285714286,93.347135925293 L 297.4285714285714,92.56905670166014 L 298.9157142857143,92.73920745849608 L 300.40285714285716,95.73336639404295 L 303.37714285714287,90.64456100463866 L 304.86428571428576,88.22092208862307 L 306.3514285714285,88.88026657104496 L 307.8385714285714,91.42301101684569 L 309.3257142857143,91.45005798339844 L 310.8128571428572,88.97125396728512 L 312.3,88.61043548583984 L 313.78714285714284,87.20926666259766 L 315.2742857142857,90.28137359619143 L 316.76142857142855,98.08218841552736 L 318.24857142857144,102.05825729370116 L 319.7357142857143,104.42986221313475 L 321.2228571428571,102.52188720703128 L 322.71,99.07485122680663 L 324.19714285714286,95.05696563720704 L 325.6842857142857,92.82755813598635 L 327.1714285714286,90.55701370239262 L 328.65857142857146,92.3459243774414 L 330.14571428571423,99.21768722534182 L 331.6328571428571,104.34577560424805 L 333.12,106.67496643066409 L 334.6071428571429,105.34894409179685 L 336.0942857142857,97.15593795776368 L 337.58142857142855,85.96203689575196 L 339.06857142857143,83.01783142089846 L 340.55571428571426,87.07263107299804 L 342.04285714285714,91.6627258300781 L 343.53000000000003,95.35343170166016 L 345.01714285714286,96.62950057983397 L 346.5042857142857,97.74250488281251 L 347.99142857142857,97.88626785278319 L 349.4785714285714,94.9072494506836 L 350.9657142857143,90.79495697021486 L 352.45285714285717,88.55716552734373 L 353.94,88.4016403198242 L 355.4271428571428,90.42070770263672 L 356.9142857142857,92.9212646484375 L 358.4014285714286,94.62963180541993 L 359.8885714285714,92.99686431884766 L 361.3757142857143,91.01009674072264 L 362.86285714285714,84.73035964965823 L 364.34999999999997,83.39055633544922 L 367.32428571428574,86.61769409179686 L 368.81142857142856,89.51839370727538 L 370.2985714285714,89.07964782714839 L 371.7857142857143,87.64564361572269 L 373.27285714285716,86.13006591796875 L 374.76,84.18816375732422 L 376.2471428571429,82.81049880981442 L 377.73428571428576,84.81823654174804 L 380.7085714285714,80.87681579589844 L 382.1957142857143,80.27049407958981 L 383.68285714285713,80.50472946166991 L 385.17,81.21901245117186 L 386.65714285714284,82.23404617309575 L 389.63142857142856,80.30135192871097 L 391.11857142857144,77.53042831420896 L 392.6057142857143,75.19944534301754 L 394.09285714285716,72.85239486694337 L 395.58,73.49124298095705 L 397.06714285714287,80.40068206787112 L 398.5542857142857,88.48587112426759 L 400.0414285714286,88.62283630371093 L 401.52857142857147,85.17837524414062 L 403.01571428571424,79.10916366577146 L 404.5028571428571,77.66978302001957 L 405.99,74.77215270996095 L 407.47714285714284,73.92067794799806 L 410.4514285714286,77.29281463623045 L 411.93857142857144,77.79537734985348 L 413.42571428571426,78.31888961791992 L 414.91285714285715,77.09320678710935 L 416.40000000000003,78.54406127929684 L 417.88714285714286,80.36772308349612 L 419.3742857142857,81.43038253784181 L 420.8614285714286,80.37719879150387 L 422.3485714285714,78.43031158447263 L 423.8357142857143,80.32246627807615 L 425.3228571428572,78.94026947021484 L 426.81,79.70541229248045 L 428.29714285714283,81.23297882080078 L 429.7842857142857,81.7933639526367 L 431.2714285714286,83.9034599304199 L 432.75857142857143,83.72352447509769 L 434.2457142857143,80.5474937438965 L 435.73285714285714,80.3168014526367 L 437.21999999999997,82.31160278320311 L 438.70714285714286,80.5298812866211 L 440.19428571428574,80.58514938354489 L 441.68142857142857,81.34454498291018 L 443.16857142857145,81.0324851989746 L 444.6557142857143,80.51768646240237 L 446.1428571428571,79.37545166015627 L 447.63,77.3128372192383 L 449.1171428571429,77.51100311279299 L 450.60428571428577,77.57008209228513 L 452.09142857142854,77.99496459960938 L 453.5785714285714,75.56046981811522 L 455.0657142857143,73.40868072509767 L 456.55285714285714,73.03900451660155 L 458.04,72.92797393798827 L 459.5271428571429,71.2912307739258 L 461.0142857142857,71.00176849365232 L 462.50142857142856,71.50080871582031 L 463.98857142857145,72.70844650268555 L 465.4757142857143,74.64338607788085 L 466.96285714285716,75.0480812072754 L 468.45,75.06363372802736 L 469.9371428571428,74.30961456298826 L 472.9114285714286,72.39894104003906 L 474.3985714285715,72.8961067199707 L 475.88571428571424,72.51944732666016 L 477.37285714285713,72.39638671875002 L 478.86,72.79646759033204 L 480.34714285714284,71.84904098510742 L 481.8342857142857,70.43660430908199 L 483.3214285714286,69.81157836914059 L 484.8085714285714,70.97220840454099 L 486.29571428571427,73.15351638793948 L 487.78285714285715,75.38418045043943 L 489.27,77.29038391113284 L 490.75714285714287,79.09661865234375 L 492.2442857142857,76.05631713867189 L 493.7314285714286,71.00374603271484 L 495.2185714285714,67.88506393432613 L 496.7057142857143,68.62849502563478 L 498.1928571428572,71.75545806884764 L 499.68,70.2525489807129 L 501.16714285714284,69.57445907592773 L 502.6542857142857,69.75202560424805 L 505.62857142857143,69.83353729248046 L 508.6028571428571,67.07140960693363 L 510.09,67.20017623901367 L 511.57714285714286,68.17256927490234 L 513.0642857142857,68.95270843505858 L 514.5514285714286,69.17991943359374 L 516.0385714285715,68.5260131835937 L 517.5257142857143,68.93190307617186 L 519.0128571428571,68.38859481811522 L 520.5,66.97904205322266 L 521.9871428571429,66.09806900024415 L 523.4742857142858,68.02654037475588 L 524.9614285714287,70.34524612426759 L 526.4485714285714,70.99777221679688 L 527.9357142857143,69.60406036376952 L 529.4228571428571,68.47140426635741 L 532.3971428571429,66.92097244262698 L 533.8842857142857,73.69871978759767 L 535.3714285714285,78.07489013671875 L 536.8585714285714,73.95089721679688 L 538.3457142857143,68.2434310913086 L 541.32,75.43448410034176 L 542.8071428571429,73.22882766723632 L 544.2942857142858,69.1263198852539 L 545.7814285714285,70.09343948364261 L 547.2685714285714,73.16132354736328 L 548.7557142857142,72.95042724609374 L 550.2428571428571,68.70036621093749 L 551.73,65.80465164184574 L 553.2171428571429,66.60948944091797 L 554.7042857142857,68.46689300537105 L 556.1914285714286,68.71917343139648 L 557.6785714285714,69.06060791015625 L 559.1657142857143,73.84439849853516 L 560.6528571428572,76.5948051452637 L 562.14,76.06599884033199 L 563.6271428571429,73.3709838867187 L 565.1142857142856,69.07389450073242 L 566.6014285714285,65.30645599365238 L 568.0885714285714,66.84448699951173 L 569.5757142857143,69.44734039306638 L 571.0628571428572,71.1328010559082 L 572.5500000000001,69.79860076904293 L 574.0371428571428,66.20384674072267 L 575.5242857142857,63.90281524658201 L 577.0114285714286,63.82214813232423 L 578.4985714285714,64.72810821533204 L 579.9857142857143,66.02036819458004 L 581.4728571428572,65.64543914794922 L 582.96,65.91459045410159 L 584.4471428571428,67.4860954284668 L 585.9342857142857,68.797883605957 L 587.4214285714286,70.65087890625 L 588.9085714285715,72.58344955444335 L 590.3957142857143,75.01889190673825 L 591.8828571428572,73.08803100585936 L 593.37,73.50216064453127 L 594.8571428571428,79.95338745117186 L 596.3442857142857,90.79157867431644 L 597.8314285714285,90.76331634521483 L 599.3185714285714,80.861304473877 L 600.8057142857143,70.0564224243164 L 602.2928571428572,66.38730468749998 L 603.78,66.86953582763675 L 605.2671428571429,70.44739837646483 L 606.7542857142857,72.41074447631837 L 608.2414285714286,71.0371994018555 L 609.7285714285715,69.17040252685547 L 611.2157142857143,67.99401397705083 L 612.702857142857,67.77535171508788 L 614.1899999999999,68.27624588012696 L 615.6771428571428,69.27891998291017 L 617.1642857142857,69.86750564575192 L 618.6514285714286,70.95406036376954 L 620.1385714285715,75.29121551513674 L 621.6257142857144,77.62195129394536 L 623.1128571428571,72.16713638305663 L 626.0871428571429,67.74731597900393 L 627.5742857142857,67.26901931762694 L 629.0614285714286,65.98652343750001 L 630.5485714285714,63.71266250610353 L 632.0357142857142,63.261639404296886 L 633.5228571428571,66.4467544555664 L 635.01,68.96679840087893 L 636.4971428571429,66.75920562744142 L 637.9842857142858,63.472576904296886 L 639.4714285714286,65.48468170166012 L 640.9585714285715,69.24991607666016 L 642.4457142857142,70.91257324218748 L 643.9328571428571,71.17686309814451 L 645.42,67.97397079467771 L 646.9071428571428,68.04662475585934 L 648.3942857142857,71.90939712524414 L 649.8814285714286,73.25406188964843 L 651.3685714285714,70.05980072021487 L 652.8557142857143,66.04935150146486 L 654.3428571428572,63.73731994628906 L 655.83,63.68386459350586 L 657.3171428571429,65.08320007324221 L 658.8042857142858,68.09942092895506 L 660.2914285714285,69.00709075927733 L 663.2657142857142,64.99081192016598 L 664.7528571428571,67.46143798828126 L 666.24,66.43806152343745 L 667.7271428571429,65.06328048706052 L 669.2142857142858,66.93195190429691 L 670.7014285714286,67.16089324951173 L 672.1885714285714,65.44094924926753 L 673.6757142857143,65.3357894897461 L 675.1628571428571,67.39232711791993 L 676.65,70.60139923095704 L 678.1371428571429,71.3310493469238 L 679.6242857142856,70.13807830810549 L 681.1114285714285,67.48603363037108 L 682.5985714285714,66.05555191040042 L 684.0857142857143,64.5075508117676 L 685.5728571428572,61.80944595336911 L 687.0600000000001,60.524169158935536 L 688.547142857143,61.980420684814476 L 690.0342857142857,63.61654586791991 L 691.5214285714285,63.54333572387691 L 693.0085714285714,62.52751922607422 L 694.4957142857143,61.57102890014647 L 697.47,62.160047149658226 L 698.9571428571428,65.28486785888674 L 700.4442857142857,68.8956275939941 L 701.9314285714286,69.56352081298832 L 703.4185714285715,67.60509796142577 L 704.9057142857143,66.95722732543942 L 706.3928571428572,66.20866699218749 L 707.88,63.682402038574196 L 709.3671428571428,61.906036376953125 L 710.8542857142857,60.580467224121094 L 712.3414285714285,60.91557769775392 L 713.8285714285714,60.03301849365232 L 715.3157142857143,60.51042938232422 L 718.29,63.563275909423794 L 721.2642857142857,61.01486663818355 L 722.7514285714286,60.87573852539066 L 724.2385714285714,62.991375732421886 L 725.7257142857143,66.32379684448244 L 727.2128571428572,65.75997161865234 L 728.6999999999999,63.63042984008791 L 730.1871428571428,61.78709564208981 L 731.6742857142857,60.232749938964844 L 733.1614285714286,59.96876907348633 L 734.6485714285715,59.53286590576175 L 736.1357142857144,59.86669921875 L 737.6228571428571,60.838536071777355 L 739.11,61.43276596069336 L 740.5971428571428,60.24683990478513 L 742.0842857142857,58.84134521484373 L 743.5714285714286,59.48381881713868 L 745.0585714285714,60.958856964111305 L 746.5457142857143,59.931669616699196 L 748.0328571428571,58.34043045043944 L 749.52,58.06740646362306 L 751.0071428571429,60.15278320312501 L 752.4942857142858,62.58389968872069 L 753.9814285714286,62.0622413635254 L 755.4685714285715,59.651394653320324 L 756.9557142857142,57.63296585083009 L 758.4428571428571,59.81993865966797 L 759.93,62.95067138671874 L 761.4171428571428,62.95977630615232 L 762.9042857142857,61.83294982910155 L 764.3914285714286,59.769552612304665 L 765.8785714285715,59.27481765747069 L 767.3657142857143,60.58712081909181 L 768.8528571428571,60.89611129760743 L 770.34,59.321392822265636 L 771.8271428571429,59.44025115966792 L 773.3142857142857,58.34943237304691 L 774.8014285714286,59.868923950195324 L 776.2885714285713,61.014372253417946 L 777.7757142857142,60.51459045410161 L 779.2628571428571,60.37678070068358 L 780.75,58.611394500732445 L 782.2371428571429,58.798622131347656 L 783.7242857142858,58.03873214721676 L 785.2114285714287,58.71655426025393 L 786.6985714285714,59.64877853393557 L 788.1857142857143,59.22222747802732 L 789.6728571428571,59.042642211914085 L 791.16,59.97550506591796 L 792.6471428571429,60.995338439941406 L 794.1342857142857,59.5959823608398 L 795.6214285714285,57.647076416015636 L 797.1085714285714,57.18422927856443 L 798.5957142857143,57.496000671386696 L 800.0828571428572,57.69377517700195 L 801.57,56.973332977294945 L 803.0571428571429,58.86322174072262 L 804.5442857142858,60.653594970703125 L 806.0314285714285,60.97933273315431 L 807.5185714285714,57.921439361572254 L 809.0057142857142,57.84989776611326 L 811.98,60.81657714843749 L 813.4671428571429,58.995758056640625 L 814.9542857142857,55.840697479248036 L 816.4414285714286,56.220220184326195 L 817.9285714285714,58.214403533935524 L 819.4157142857143,59.86303253173827 L 822.39,57.58163223266598 L 823.8771428571429,57.14649124145507 L 825.3642857142856,58.53991470336916 L 826.8514285714285,58.414176177978504 L 828.3385714285714,56.88984375000001 L 829.8257142857143,56.10307159423826 L 831.3128571428572,57.50341644287107 L 832.8000000000001,58.748812866210926 L 834.2871428571428,59.65407257080079 L 835.7742857142857,56.50072174072267 L 837.2614285714286,55.29652404785156 L 838.7485714285714,56.10772705078125 L 840.2357142857143,57.005941772460915 L 841.7228571428572,57.69828643798826 L 843.21,61.46698150634762 L 844.6971428571428,61.84885253906248 L 846.1842857142857,59.1126594543457 L 847.6714285714286,56.5016075134277 L 849.1585714285715,57.33079376220701 L 850.6457142857143,57.97699584960941 L 852.1328571428572,56.73332977294922 L 853.62,56.640467834472645 L 855.1071428571428,59.19466552734377 L 856.5942857142857,60.95115280151367 L 862.5428571428572,60.3278984069824 L 864.03,62.27181930541991 L 865.5171428571429,61.450666809082065 L 867.0042857142857,60.227806091308594 L 868.4914285714286,59.697001647949264 L 869.9785714285715,59.577484130859375 L 871.4657142857143,59.16605300903319 L 872.952857142857,60.9708251953125 L 874.4399999999999,59.03038558959963 L 875.9271428571428,61.281628417968705 L 877.4142857142857,61.46284103393555 L 878.9014285714286,64.95187911987301 L 880.3885714285715,66.55902099609375 L 881.8757142857144,64.70928039550779 L 883.3628571428571,63.47471923828124 L 884.85,61.73411407470701 L 886.3371428571429,60.5824035644531 L 887.8242857142857,58.76096649169921 L 889.3114285714286,58.273791503906295 L 890.7985714285714,61.75446624755858 L 892.2857142857142,61.26937179565425 L 893.7728571428571,60.97935333251951 L 895.26,61.722084045410156 L 896.7471428571429,58.324383544921886 L 898.2342857142858,56.26432342529296 L 901.2085714285715,54.7620735168457 L 902.6957142857142,55.111170959472645 L 904.1828571428571,55.94418869018557 L 905.67,56.3141738891602 L 907.1571428571428,57.7012733459473 L 908.6442857142857,57.14086761474607 L 910.1314285714286,57.47144622802733 L 911.6185714285714,59.39050369262691 L 913.1057142857143,60.73807296752926 L 914.5928571428572,65.28824615478516 L 916.08,70.07098617553709 L 917.5671428571429,67.95211486816402 L 919.0542857142858,65.03757247924807 L 920.5414285714285,62.037480926513695 L 922.0285714285714,62.384600830078114 L 923.5157142857142,61.65437393188472 L 925.0028571428571,61.94770889282228 L 926.49,60.28138504028317 L 927.9771428571429,59.69189300537113 L 929.4642857142858,59.558326721191406 L 930.9514285714286,56.39500579833987 L 932.4385714285714,55.80574035644531 L 933.9257142857143,57.160972595214844 L 935.4128571428571,58.43500213623048 L 936.9,58.54170684814454 L 938.3871428571429,61.614967346191406 L 939.8742857142856,67.58888626098633 L 941.3614285714285,70.36549530029299 L 942.8485714285714,65.38984222412114 L 944.3357142857143,62.07307662963865 L 945.8228571428572,61.75897750854489 L 947.3100000000001,61.22526855468749 L 948.797142857143,59.89854583740231 L 950.2842857142857,59.50122528076173 L 951.7714285714285,60.19171600341798 L 954.7457142857143,58.90538864135743 L 956.2328571428571,60.18359985351566 L 957.72,61.186006164550804 L 959.2071428571428,61.59999160766603 L 960.6942857142857,62.22744827270509 L 962.1814285714286,60.90727615356445 L 963.6685714285715,60.89260940551759 L 965.1557142857143,60.295392608642544 L 966.6428571428572,57.98016815185548 L 968.13,58.47875518798827 L 969.6171428571428,58.127659606933605 L 971.1042857142857,58.78387298583982 L 972.81714285714284,60.261012268066395 L 973.30428571428573,64.1351142883301 L 974.79142857142858,63.8159065246582 L 975.2785714285714,62.33199005126954 L 978.7657142857143,61.09602813720704 L 979.25285714285715,59.002576446533226 L 980.74,57.41356201171874 L 981.22714285714287,57.20814514160156 L 982.7142857142857,59.27776336669922 L 983.20142857142858,59.86276473999027 L 984.17571428571426,55.74198532104492 L 985.66285714285715,57.32063827514645 L 986.15,58.332252502441406 L 989.63714285714286,65.60251007080075 L 990.12428571428572,70.12518310546875 L 991.61142857142855,71.52861785888672" style="fill: none;" fill="none"></path>
                                </g>
                            </g>
                        </g>
                    </g>
                </g>
            </g>
            <g transform="translate(34, 378)" clip-path="url(#clip_1)">
                <clipPath id="clip_1">
                    <rect width="1041" height="22"></rect>
                </clipPath>
                <g>
                    <g>
                        <line x1="0" y1="0" x2="0" y2="5" style="visibility: inherit;" fill="rgb(0, 0, 0)" stroke="rgb(204, 204, 204)" stroke-width="1px"></line>
                        <line x1="74.35714285714285" y1="0" x2="74.35714285714285" y2="5" style="visibility: inherit;" fill="rgb(0, 0, 0)" stroke="rgb(204, 204, 204)" stroke-width="1px"></line>
                        <line x1="148.7142857142857" y1="0" x2="148.7142857142857" y2="5" style="visibility: inherit;" fill="rgb(0, 0, 0)" stroke="rgb(204, 204, 204)" stroke-width="1px"></line>
                        <line x1="223.07142857142856" y1="0" x2="223.07142857142856" y2="5" style="visibility: inherit;" fill="rgb(0, 0, 0)" stroke="rgb(204, 204, 204)" stroke-width="1px"></line>
                        <line x1="297.4285714285714" y1="0" x2="297.4285714285714" y2="5" style="visibility: inherit;" fill="rgb(0, 0, 0)" stroke="rgb(204, 204, 204)" stroke-width="1px"></line>
                        <line x1="371.7857142857143" y1="0" x2="371.7857142857143" y2="5" style="visibility: inherit;" fill="rgb(0, 0, 0)" stroke="rgb(204, 204, 204)" stroke-width="1px"></line>
                        <line x1="446.1428571428571" y1="0" x2="446.1428571428571" y2="5" style="visibility: inherit;" fill="rgb(0, 0, 0)" stroke="rgb(204, 204, 204)" stroke-width="1px"></line>
                        <line x1="520.5" y1="0" x2="520.5" y2="5" style="visibility: inherit;" fill="rgb(0, 0, 0)" stroke="rgb(204, 204, 204)" stroke-width="1px"></line>
                        <line x1="594.8571428571428" y1="0" x2="594.8571428571428" y2="5" style="visibility: inherit;" fill="rgb(0, 0, 0)" stroke="rgb(204, 204, 204)" stroke-width="1px"></line>
                        <line x1="669.2142857142858" y1="0" x2="669.2142857142858" y2="5" style="visibility: inherit;" fill="rgb(0, 0, 0)" stroke="rgb(204, 204, 204)" stroke-width="1px"></line>
                        <line x1="743.5714285714286" y1="0" x2="743.5714285714286" y2="5" style="visibility: inherit;" fill="rgb(0, 0, 0)" stroke="rgb(204, 204, 204)" stroke-width="1px"></line>
                        <line x1="817.9285714285714" y1="0" x2="817.9285714285714" y2="5" style="visibility: inherit;" fill="rgb(0, 0, 0)" stroke="rgb(204, 204, 204)" stroke-width="1px"></line>
                        <line x1="892.2857142857142" y1="0" x2="892.2857142857142" y2="5" style="visibility: inherit;" fill="rgb(0, 0, 0)" stroke="rgb(204, 204, 204)" stroke-width="1px"></line>
                        <line x1="966.6428571428572" y1="0" x2="966.6428571428572" y2="5" style="visibility: inherit;" fill="rgb(0, 0, 0)" stroke="rgb(204, 204, 204)" stroke-width="1px"></line>
                        <line x1="1041" y1="0" x2="1041" y2="5" style="visibility: inherit;" fill="rgb(0, 0, 0)" stroke="rgb(204, 204, 204)" stroke-width="1px"></line>
                    </g>
                    <g transform="translate(0, 8)">
                        <text x="0" y="0" dx="0em" dy="0.95em" style="text-anchor: middle; visibility: hidden; font-family: &quot;Helvetica Neue&quot;, sans-serif; font-size: 12px; font-weight: 200;" fill="rgb(50, 49, 63)" stroke="none" stroke-width="1px">-50</text>
                        <text x="74.35714285714285" y="0" dx="0em" dy="0.95em" style="text-anchor: middle; visibility: inherit; font-family: &quot;Helvetica Neue&quot;, sans-serif; font-size: 12px; font-weight: 200;" fill="rgb(50, 49, 63)" stroke="none" stroke-width="1px">0</text>
                        <text x="148.7142857142857" y="0" dx="0em" dy="0.95em" style="text-anchor: middle; visibility: inherit; font-family: &quot;Helvetica Neue&quot;, sans-serif; font-size: 12px; font-weight: 200;" fill="rgb(50, 49, 63)" stroke="none" stroke-width="1px">50</text>
                        <text x="223.07142857142856" y="0" dx="0em" dy="0.95em" style="text-anchor: middle; visibility: inherit; font-family: &quot;Helvetica Neue&quot;, sans-serif; font-size: 12px; font-weight: 200;" fill="rgb(50, 49, 63)" stroke="none" stroke-width="1px">100</text>
                        <text x="297.4285714285714" y="0" dx="0em" dy="0.95em" style="text-anchor: middle; visibility: inherit; font-family: &quot;Helvetica Neue&quot;, sans-serif; font-size: 12px; font-weight: 200;" fill="rgb(50, 49, 63)" stroke="none" stroke-width="1px">150</text>
                        <text x="371.7857142857143" y="0" dx="0em" dy="0.95em" style="text-anchor: middle; visibility: inherit; font-family: &quot;Helvetica Neue&quot;, sans-serif; font-size: 12px; font-weight: 200;" fill="rgb(50, 49, 63)" stroke="none" stroke-width="1px">200</text>
                        <text x="446.1428571428571" y="0" dx="0em" dy="0.95em" style="text-anchor: middle; visibility: inherit; font-family: &quot;Helvetica Neue&quot;, sans-serif; font-size: 12px; font-weight: 200;" fill="rgb(50, 49, 63)" stroke="none" stroke-width="1px">250</text>
                        <text x="520.5" y="0" dx="0em" dy="0.95em" style="text-anchor: middle; visibility: inherit; font-family: &quot;Helvetica Neue&quot;, sans-serif; font-size: 12px; font-weight: 200;" fill="rgb(50, 49, 63)" stroke="none" stroke-width="1px">300</text>
                        <text x="594.8571428571428" y="0" dx="0em" dy="0.95em" style="text-anchor: middle; visibility: inherit; font-family: &quot;Helvetica Neue&quot;, sans-serif; font-size: 12px; font-weight: 200;" fill="rgb(50, 49, 63)" stroke="none" stroke-width="1px">350</text>
                        <text x="669.2142857142858" y="0" dx="0em" dy="0.95em" style="text-anchor: middle; visibility: inherit; font-family: &quot;Helvetica Neue&quot;, sans-serif; font-size: 12px; font-weight: 200;" fill="rgb(50, 49, 63)" stroke="none" stroke-width="1px">400</text>
                        <text x="743.5714285714286" y="0" dx="0em" dy="0.95em" style="text-anchor: middle; visibility: inherit; font-family: &quot;Helvetica Neue&quot;, sans-serif; font-size: 12px; font-weight: 200;" fill="rgb(50, 49, 63)" stroke="none" stroke-width="1px">450</text>
                        <text x="817.9285714285714" y="0" dx="0em" dy="0.95em" style="text-anchor: middle; visibility: inherit; font-family: &quot;Helvetica Neue&quot;, sans-serif; font-size: 12px; font-weight: 200;" fill="rgb(50, 49, 63)" stroke="none" stroke-width="1px">500</text>
                        <text x="892.2857142857142" y="0" dx="0em" dy="0.95em" style="text-anchor: middle; visibility: inherit; font-family: &quot;Helvetica Neue&quot;, sans-serif; font-size: 12px; font-weight: 200;" fill="rgb(50, 49, 63)" stroke="none" stroke-width="1px">550</text>
                        <text x="966.6428571428572" y="0" dx="0em" dy="0.95em" style="text-anchor: middle; visibility: inherit; font-family: &quot;Helvetica Neue&quot;, sans-serif; font-size: 12px; font-weight: 200;" fill="rgb(50, 49, 63)" stroke="none" stroke-width="1px">600</text>
                        <text x="1041" y="0" dx="0em" dy="0.95em" style="text-anchor: middle; visibility: hidden; font-family: &quot;Helvetica Neue&quot;, sans-serif; font-size: 12px; font-weight: 200;" fill="rgb(50, 49, 63)" stroke="none" stroke-width="1px">650</text>
                    </g>
                    <line x1="0" y1="0" x2="1041" y2="0" fill="rgb(0, 0, 0)" stroke="rgb(204, 204, 204)" stroke-width="1px"></line>
                </g>
            </g>
        </g>
    </g>
</svg>